<?xml version="1.0" encoding="UTF-8"?>
<svg width="189.15pt" height="182.73pt" version="1.2" viewBox="0 0 189.15 182.73" xmlns="http://www.w3.org/2000/svg" xmlns:xlink="http://www.w3.org/1999/xlink"><defs><symbol id="d" overflow="visible"><path d="m3.5-3.1719c0.0625-0.26562 0.3125-1.2344 1.0469-1.2344 0.046875 0 0.29688 0 0.53125 0.125-0.29688 0.0625-0.51562 0.32812-0.51562 0.57812 0 0.17188 0.125 0.35938 0.40625 0.35938 0.23438 0 0.5625-0.1875 0.5625-0.60938 0-0.54688-0.625-0.6875-0.96875-0.6875-0.60938 0-0.98438 0.5625-1.1094 0.79688-0.26562-0.6875-0.82812-0.79688-1.125-0.79688-1.0938 0-1.7031 1.3594-1.7031 1.6094 0 0.10938 0.10938 0.10938 0.125 0.10938 0.09375 0 0.125-0.015625 0.14062-0.10938 0.35938-1.1094 1.0469-1.375 1.4062-1.375 0.20312 0 0.5625 0.09375 0.5625 0.70312 0 0.32812-0.17188 1.0312-0.5625 2.5-0.17188 0.64062-0.53125 1.0938-1 1.0938-0.0625 0-0.29688 0-0.51562-0.14062 0.26562-0.046875 0.48438-0.28125 0.48438-0.5625 0-0.29688-0.21875-0.375-0.39062-0.375-0.3125 0-0.57812 0.28125-0.57812 0.60938 0 0.48438 0.53125 0.6875 1 0.6875 0.6875 0 1.0625-0.73438 1.0938-0.79688 0.125 0.39062 0.5 0.79688 1.1406 0.79688 1.0781 0 1.6719-1.3438 1.6719-1.6094 0-0.10938-0.09375-0.10938-0.125-0.10938-0.09375 0-0.10938 0.046875-0.125 0.125-0.35938 1.1094-1.0625 1.375-1.4062 1.375-0.40625 0-0.57812-0.34375-0.57812-0.70312 0-0.23438 0.0625-0.45312 0.1875-0.92188z"/></symbol><symbol id="c" overflow="visible"><path d="m5.1094-4c0.03125-0.14062 0.03125-0.17188 0.03125-0.23438 0-0.20312-0.14062-0.29688-0.29688-0.29688-0.10938 0-0.28125 0.0625-0.375 0.21875-0.015625 0.0625-0.09375 0.39062-0.14062 0.57812-0.078125 0.26562-0.15625 0.54688-0.21875 0.84375l-0.46875 1.875c-0.046875 0.17188-0.48438 0.90625-1.1875 0.90625-0.53125 0-0.64062-0.46875-0.64062-0.85938 0-0.48438 0.17188-1.125 0.53125-2.0625 0.17188-0.42188 0.20312-0.53125 0.20312-0.75 0-0.46875-0.32812-0.85938-0.85938-0.85938-1 0-1.3906 1.5156-1.3906 1.6094 0 0.10938 0.10938 0.10938 0.14062 0.10938 0.09375 0 0.10938-0.015625 0.15625-0.1875 0.28125-0.98438 0.70312-1.2969 1.0625-1.2969 0.09375 0 0.26562 0 0.26562 0.32812 0 0.26562-0.10938 0.54688-0.17188 0.73438-0.42188 1.125-0.60938 1.7188-0.60938 2.2031 0 0.9375 0.65625 1.25 1.2812 1.25 0.40625 0 0.76562-0.17188 1.0469-0.46875-0.125 0.54688-0.25 1.0625-0.67188 1.625-0.28125 0.34375-0.67188 0.65625-1.1562 0.65625-0.15625 0-0.625-0.03125-0.79688-0.4375 0.17188 0 0.29688 0 0.45312-0.125 0.09375-0.09375 0.20312-0.23438 0.20312-0.4375 0-0.32812-0.28125-0.35938-0.39062-0.35938-0.23438 0-0.57812 0.15625-0.57812 0.67188 0 0.53125 0.45312 0.92188 1.1094 0.92188 1.0781 0 2.1562-0.95312 2.4531-2.1406z"/></symbol><symbol id="b" overflow="visible"><path d="m7.7656-4.5781c0-1.6875-1.1094-2.8281-2.6719-2.8281-2.2656 0-4.5781 2.3906-4.5781 4.8281 0 1.75 1.1719 2.8125 2.6875 2.8125 2.2188 0 4.5625-2.2969 4.5625-4.8125zm-4.5 4.5312c-1.0469 0-1.7812-0.84375-1.7812-2.2344 0-0.45312 0.15625-2 0.96875-3.2188 0.71875-1.0938 1.75-1.6406 2.5781-1.6406 0.85938 0 1.7969 0.59375 1.7969 2.1562 0 0.75-0.28125 2.3906-1.3125 3.6875-0.5 0.64062-1.375 1.25-2.25 1.25z"/></symbol><symbol id="a" overflow="visible"><path d="m3.0938-6.7188c0-0.25 0-0.28125-0.25-0.28125-0.65625 0.67188-1.5781 0.67188-1.9062 0.67188v0.32812c0.20312 0 0.82812 0 1.375-0.26562v5.4375c0 0.375-0.03125 0.5-0.98438 0.5h-0.32812v0.32812c0.35938-0.03125 1.2812-0.03125 1.7031-0.03125s1.3281 0 1.7031 0.03125v-0.32812h-0.34375c-0.9375 0-0.96875-0.10938-0.96875-0.5z"/></symbol></defs><path transform="matrix(1,0,0,-1,88.073,94.657)" d="m-70.866-70.866h141.73m-141.73 14.172h141.73m-141.73 14.176h141.73m-141.73 14.172h141.73m-141.73 14.172h141.73m-141.73 14.176h141.73m-141.73 14.172h141.73m-141.73 14.176h141.73m-141.73 14.172h141.73m-141.73 14.172h141.73m-141.73 14.164h141.73m-141.73-141.72v141.73m14.172-141.73v141.73m14.176-141.73v141.73m14.172-141.73v141.73m14.172-141.73v141.73m14.176-141.73v141.73m14.172-141.73v141.73m14.172-141.73v141.73m14.176-141.73v141.73m14.172-141.73v141.73m14.164-141.73v141.73" fill="none" stroke="#7f7f7f" stroke-miterlimit="10" stroke-width=".19925"/><path transform="matrix(1,0,0,-1,88.073,94.657)" d="m-85.042 7.5e-4h168.09" fill="none" stroke="#000" stroke-miterlimit="10" stroke-width=".3985"/><path d="m173.11 94.656-3.1875-1.5938 1.1953 1.5938-1.1953 1.5938"/><g><use x="176.812" y="96.917" xlink:href="#d"/></g><path transform="matrix(1,0,0,-1,88.073,94.657)" d="m0.0012188-85.042v168.09" fill="none" stroke="#000" stroke-miterlimit="10" stroke-width=".3985"/><path d="m88.074 9.6172-1.5938 3.1875 1.5938-1.1953 1.5938 1.1953"/><g><use x="91.772" y="10.856" xlink:href="#c"/><use x="99.621" y="105.123" xlink:href="#a"/><use x="81.959" y="83.867" xlink:href="#a"/><use x="78.908" y="104.114" xlink:href="#b"/></g></svg>
