<svg version="1.1" xmlns="http://www.w3.org/2000/svg" xmlns:xlink="http://www.w3.org/1999/xlink" width="242" height="288"><defs><clipPath id="eBTiNJnCMKWn"><path fill="none" stroke="none" d=" M 0 0 L 242 0 L 242 288 L 0 288 L 0 0 Z"/></clipPath></defs><g transform="scale(1,1)" clip-path="url(#eBTiNJnCMKWn)"><g><rect fill="rgb(255,255,255)" stroke="none" x="0" y="0" width="242" height="288" fill-opacity="1"/><path fill="none" stroke="rgb(0,0,0)" paint-order="fill stroke markers" d=" M 65.5 2.5 L 65.5 288.5" stroke-opacity="1" stroke-miterlimit="10"/><path fill="none" stroke="rgb(0,0,0)" paint-order="fill stroke markers" d=" M 65.5 1.5 L 61.5 5.5" stroke-opacity="1" stroke-miterlimit="10"/><path fill="none" stroke="rgb(0,0,0)" paint-order="fill stroke markers" d=" M 65.5 1.5 L 69.5 5.5" stroke-opacity="1" stroke-miterlimit="10"/><text fill="rgb(0,0,0)" stroke="none" font-family="geogebra-sans-serif, sans-serif" font-size="16px" font-style="normal" font-weight="normal" text-decoration="normal" x="224" y="141" text-anchor="start" dominant-baseline="alphabetic" fill-opacity="1">x</text><path fill="none" stroke="rgb(0,0,0)" paint-order="fill stroke markers" d=" M 0.5 145.5 L 240.5 145.5" stroke-opacity="1" stroke-miterlimit="10"/><path fill="none" stroke="rgb(0,0,0)" paint-order="fill stroke markers" d=" M 241.5 145.5 L 237.5 141.5" stroke-opacity="1" stroke-miterlimit="10"/><path fill="none" stroke="rgb(0,0,0)" paint-order="fill stroke markers" d=" M 241.5 145.5 L 237.5 149.5" stroke-opacity="1" stroke-miterlimit="10"/><text fill="rgb(0,0,0)" stroke="none" font-family="geogebra-sans-serif, sans-serif" font-size="16px" font-style="normal" font-weight="normal" text-decoration="normal" x="70" y="17" text-anchor="start" dominant-baseline="alphabetic" fill-opacity="1">y</text><path fill="none" stroke="rgb(0,0,0)" paint-order="fill stroke markers" d=" M 224.80750000000023 0 C 12.61972222222218 97.111111111111 12.61972222222218 194.22222222222197 224.80750000000023 291.333333333333" stroke-opacity="0.6980392156862745" stroke-linecap="round" stroke-linejoin="round" stroke-miterlimit="10" stroke-width="2.5"/><path fill="none" stroke="rgb(0,0,0)" paint-order="fill stroke markers" d=" M 25.333333333333144 293 L 174.3333333333334 -5" stroke-opacity="0.6980392156862745" stroke-linecap="round" stroke-linejoin="round" stroke-miterlimit="10" stroke-width="2.5"/><path fill="none" stroke="rgb(0,0,0)" paint-order="fill stroke markers" d=" M 32.33333333333338 293 L 32.33333333333338 -5" stroke-opacity="0.6980392156862745" stroke-linecap="round" stroke-linejoin="round" stroke-miterlimit="10" stroke-width="2.5"/><path fill="rgb(21,101,192)" stroke="none" paint-order="stroke fill markers" d=" M 104.00000000000003 145.6666666666665 C 104.00000000000003 148.42809041582046 101.76142374915399 150.6666666666665 99.00000000000003 150.6666666666665 C 96.23857625084607 150.6666666666665 94.00000000000003 148.42809041582046 94.00000000000003 145.6666666666665 C 94.00000000000003 142.9052429175125 96.23857625084607 140.6666666666665 99.00000000000003 140.6666666666665 C 101.76142374915399 140.6666666666665 104.00000000000003 142.9052429175125 104.00000000000003 145.6666666666665 Z" fill-opacity="1"/><path fill="none" stroke="rgb(0,0,0)" paint-order="fill stroke markers" d=" M 104.00000000000003 145.6666666666665 C 104.00000000000003 148.42809041582046 101.76142374915399 150.6666666666665 99.00000000000003 150.6666666666665 C 96.23857625084607 150.6666666666665 94.00000000000003 148.42809041582046 94.00000000000003 145.6666666666665 C 94.00000000000003 142.9052429175125 96.23857625084607 140.6666666666665 99.00000000000003 140.6666666666665 C 101.76142374915399 140.6666666666665 104.00000000000003 142.9052429175125 104.00000000000003 145.6666666666665 Z" stroke-opacity="1" stroke-linecap="round" stroke-linejoin="round" stroke-miterlimit="10"/><text fill="rgb(21,101,192)" stroke="none" font-family="geogebra-sans-serif, sans-serif" font-size="16px" font-style="normal" font-weight="normal" text-decoration="normal" x="113" y="138" text-anchor="start" dominant-baseline="alphabetic" fill-opacity="1">F</text><text fill="none" stroke="rgb(255,255,255)" font-family="geogebra-sans-serif, sans-serif" font-size="16px" font-style="normal" font-weight="normal" text-decoration="normal" x="113" y="138" text-anchor="start" dominant-baseline="alphabetic" stroke-opacity="1" stroke-linejoin="bevel" stroke-miterlimit="10" stroke-width="3">F</text><text fill="rgb(21,101,192)" stroke="none" font-family="geogebra-sans-serif, sans-serif" font-size="16px" font-style="normal" font-weight="normal" text-decoration="normal" x="113" y="138" text-anchor="start" dominant-baseline="alphabetic" fill-opacity="1">F</text><path fill="rgb(46,125,50)" stroke="none" paint-order="stroke fill markers" d=" M 82.3988670416702 186.86893258332606 C 82.3988670416702 189.07807158264922 80.60800604099337 190.86893258332606 78.3988670416702 190.86893258332606 C 76.18972804234703 190.86893258332606 74.3988670416702 189.07807158264922 74.3988670416702 186.86893258332606 C 74.3988670416702 184.65979358400287 76.18972804234703 182.86893258332606 78.3988670416702 182.86893258332606 C 80.60800604099337 182.86893258332606 82.3988670416702 184.65979358400287 82.3988670416702 186.86893258332606 Z" fill-opacity="1"/><path fill="none" stroke="rgb(0,0,0)" paint-order="fill stroke markers" d=" M 82.3988670416702 186.86893258332606 C 82.3988670416702 189.07807158264922 80.60800604099337 190.86893258332606 78.3988670416702 190.86893258332606 C 76.18972804234703 190.86893258332606 74.3988670416702 189.07807158264922 74.3988670416702 186.86893258332606 C 74.3988670416702 184.65979358400287 76.18972804234703 182.86893258332606 78.3988670416702 182.86893258332606 C 80.60800604099337 182.86893258332606 82.3988670416702 184.65979358400287 82.3988670416702 186.86893258332606 Z" stroke-opacity="1" stroke-linecap="round" stroke-linejoin="round" stroke-miterlimit="10"/><text fill="rgb(46,125,50)" stroke="none" font-family="geogebra-sans-serif, sans-serif" font-size="16px" font-style="normal" font-weight="normal" text-decoration="normal" x="88" y="194" text-anchor="start" dominant-baseline="alphabetic" fill-opacity="1">B</text><text fill="none" stroke="rgb(255,255,255)" font-family="geogebra-sans-serif, sans-serif" font-size="16px" font-style="normal" font-weight="normal" text-decoration="normal" x="88" y="194" text-anchor="start" dominant-baseline="alphabetic" stroke-opacity="1" stroke-linejoin="bevel" stroke-miterlimit="10" stroke-width="3">B</text><text fill="rgb(46,125,50)" stroke="none" font-family="geogebra-sans-serif, sans-serif" font-size="16px" font-style="normal" font-weight="normal" text-decoration="normal" x="88" y="194" text-anchor="start" dominant-baseline="alphabetic" fill-opacity="1">B</text><path fill="rgb(46,125,50)" stroke="none" paint-order="stroke fill markers" d=" M 156.93446629166317 37.79773408334039 C 156.93446629166317 40.00687308266356 155.14360529098633 41.79773408334039 152.93446629166317 41.79773408334039 C 150.72532729233998 41.79773408334039 148.93446629166317 40.00687308266356 148.93446629166317 37.79773408334039 C 148.93446629166317 35.588595084017214 150.72532729233998 33.79773408334039 152.93446629166317 33.79773408334039 C 155.14360529098633 33.79773408334039 156.93446629166317 35.588595084017214 156.93446629166317 37.79773408334039 Z" fill-opacity="1"/><path fill="none" stroke="rgb(0,0,0)" paint-order="fill stroke markers" d=" M 156.93446629166317 37.79773408334039 C 156.93446629166317 40.00687308266356 155.14360529098633 41.79773408334039 152.93446629166317 41.79773408334039 C 150.72532729233998 41.79773408334039 148.93446629166317 40.00687308266356 148.93446629166317 37.79773408334039 C 148.93446629166317 35.588595084017214 150.72532729233998 33.79773408334039 152.93446629166317 33.79773408334039 C 155.14360529098633 33.79773408334039 156.93446629166317 35.588595084017214 156.93446629166317 37.79773408334039 Z" stroke-opacity="1" stroke-linecap="round" stroke-linejoin="round" stroke-miterlimit="10"/><text fill="rgb(46,125,50)" stroke="none" font-family="geogebra-sans-serif, sans-serif" font-size="16px" font-style="normal" font-weight="normal" text-decoration="normal" x="158" y="58" text-anchor="start" dominant-baseline="alphabetic" fill-opacity="1">A</text><text fill="none" stroke="rgb(255,255,255)" font-family="geogebra-sans-serif, sans-serif" font-size="16px" font-style="normal" font-weight="normal" text-decoration="normal" x="158" y="58" text-anchor="start" dominant-baseline="alphabetic" stroke-opacity="1" stroke-linejoin="bevel" stroke-miterlimit="10" stroke-width="3">A</text><text fill="rgb(46,125,50)" stroke="none" font-family="geogebra-sans-serif, sans-serif" font-size="16px" font-style="normal" font-weight="normal" text-decoration="normal" x="158" y="58" text-anchor="start" dominant-baseline="alphabetic" fill-opacity="1">A</text><path fill="rgb(21,101,192)" stroke="none" paint-order="stroke fill markers" d=" M 70.6666666666667 145.6666666666665 C 70.6666666666667 148.42809041582046 68.42809041582066 150.6666666666665 65.6666666666667 150.6666666666665 C 62.90524291751273 150.6666666666665 60.6666666666667 148.42809041582046 60.6666666666667 145.6666666666665 C 60.6666666666667 142.9052429175125 62.90524291751273 140.6666666666665 65.6666666666667 140.6666666666665 C 68.42809041582066 140.6666666666665 70.6666666666667 142.9052429175125 70.6666666666667 145.6666666666665 Z" fill-opacity="1"/><path fill="none" stroke="rgb(0,0,0)" paint-order="fill stroke markers" d=" M 70.6666666666667 145.6666666666665 C 70.6666666666667 148.42809041582046 68.42809041582066 150.6666666666665 65.6666666666667 150.6666666666665 C 62.90524291751273 150.6666666666665 60.6666666666667 148.42809041582046 60.6666666666667 145.6666666666665 C 60.6666666666667 142.9052429175125 62.90524291751273 140.6666666666665 65.6666666666667 140.6666666666665 C 68.42809041582066 140.6666666666665 70.6666666666667 142.9052429175125 70.6666666666667 145.6666666666665 Z" stroke-opacity="1" stroke-linecap="round" stroke-linejoin="round" stroke-miterlimit="10"/><text fill="rgb(21,101,192)" stroke="none" font-family="geogebra-sans-serif, sans-serif" font-size="16px" font-style="normal" font-weight="normal" text-decoration="normal" x="70" y="136" text-anchor="start" dominant-baseline="alphabetic" fill-opacity="1">O</text><text fill="none" stroke="rgb(255,255,255)" font-family="geogebra-sans-serif, sans-serif" font-size="16px" font-style="normal" font-weight="normal" text-decoration="normal" x="70" y="136" text-anchor="start" dominant-baseline="alphabetic" stroke-opacity="1" stroke-linejoin="bevel" stroke-miterlimit="10" stroke-width="3">O</text><text fill="rgb(21,101,192)" stroke="none" font-family="geogebra-sans-serif, sans-serif" font-size="16px" font-style="normal" font-weight="normal" text-decoration="normal" x="70" y="136" text-anchor="start" dominant-baseline="alphabetic" fill-opacity="1">O</text></g></g></svg>