<svg version="1.1" xmlns="http://www.w3.org/2000/svg" xmlns:xlink="http://www.w3.org/1999/xlink" width="238" height="290"><defs><clipPath id="haBVTerPrTka"><path fill="none" stroke="none" d=" M 0 0 L 238 0 L 238 290 L 0 290 L 0 0 Z"/></clipPath></defs><g transform="scale(1,1)" clip-path="url(#haBVTerPrTka)"><g><rect fill="rgb(255,255,255)" stroke="none" x="0" y="0" width="238" height="290" fill-opacity="1"/><path fill="none" stroke="rgb(192,192,192)" paint-order="fill stroke markers" d=" M 101.78968190792182 148.14357852871302 C 101.78968190792182 148.14357852871302 101.78968190792182 148.14357852871302 101.78968190792182 148.14357852871302 C 101.78968190792182 148.14357852871302 101.78968190792182 148.14357852871302 101.78968190792182 148.14357852871302 C 101.78968190792182 148.14357852871302 101.78968190792182 148.14357852871302 101.78968190792182 148.14357852871302 C 101.78968190792182 148.14357852871302 101.78968190792182 148.14357852871302 101.78968190792182 148.14357852871302 Z" stroke-opacity="1" stroke-linecap="round" stroke-linejoin="round" stroke-miterlimit="10"/><path fill="none" stroke="rgb(192,192,192)" paint-order="fill stroke markers" d=" M 199.99495029900822 148.14357852871302 C 199.99495029900822 202.3808506141501 156.0269539933589 246.34884691979943 101.78968190792182 246.34884691979943 C 47.55240982248475 246.34884691979943 3.5844135168354114 202.3808506141501 3.5844135168354114 148.14357852871302 C 3.5844135168354114 93.90630644327595 47.55240982248475 49.938310137626615 101.78968190792182 49.938310137626615 C 156.0269539933589 49.938310137626615 199.99495029900822 93.90630644327595 199.99495029900822 148.14357852871302 Z" stroke-opacity="1" stroke-linecap="round" stroke-linejoin="round" stroke-miterlimit="10"/><path fill="none" stroke="rgb(192,192,192)" paint-order="fill stroke markers" d=" M 298.20021869009463 148.14357852871302 C 298.20021869009463 256.61812269958716 210.26422607879596 344.55411531088583 101.78968190792182 344.55411531088583 C -6.684862262952322 344.55411531088583 -94.620854874251 256.61812269958716 -94.620854874251 148.14357852871302 C -94.620854874251 39.66903435783888 -6.684862262952322 -48.26695825345979 101.78968190792182 -48.26695825345979 C 210.26422607879596 -48.26695825345979 298.20021869009463 39.66903435783888 298.20021869009463 148.14357852871302 Z" stroke-opacity="1" stroke-linecap="round" stroke-linejoin="round" stroke-miterlimit="10"/><path fill="none" stroke="rgb(192,192,192)" paint-order="fill stroke markers" d=" M 0 148.14357852871302 L 238 148.14357852871302" stroke-opacity="1" stroke-linecap="round" stroke-linejoin="round" stroke-miterlimit="10"/><path fill="none" stroke="rgb(192,192,192)" paint-order="fill stroke markers" d=" M 0 206.91187877897806 L 238 69.50251471184714" stroke-opacity="1" stroke-linecap="round" stroke-linejoin="round" stroke-miterlimit="10"/><path fill="none" stroke="rgb(192,192,192)" paint-order="fill stroke markers" d=" M 0 324.4484792795081 L 238 -87.77961292188456" stroke-opacity="1" stroke-linecap="round" stroke-linejoin="round" stroke-miterlimit="10"/><path fill="none" stroke="rgb(192,192,192)" paint-order="fill stroke markers" d=" M 101.78968190792182 0 L 101.78968190792182 290" stroke-opacity="1" stroke-linecap="round" stroke-linejoin="round" stroke-miterlimit="10"/><path fill="none" stroke="rgb(192,192,192)" paint-order="fill stroke markers" d=" M 0 -28.16132222208219 L 238 384.06676997931083" stroke-opacity="1" stroke-linecap="round" stroke-linejoin="round" stroke-miterlimit="10"/><path fill="none" stroke="rgb(192,192,192)" paint-order="fill stroke markers" d=" M 0 89.37527827844792 L 238 226.784642345579" stroke-opacity="1" stroke-linecap="round" stroke-linejoin="round" stroke-miterlimit="10"/><path fill="none" stroke="rgb(192,192,192)" paint-order="fill stroke markers" d=" M 0 148.14357852871296 L 238 148.1435785287131" stroke-opacity="1" stroke-linecap="round" stroke-linejoin="round" stroke-miterlimit="10"/><path fill="none" stroke="rgb(0,0,0)" paint-order="fill stroke markers" d=" M 0.5 148.5 L 236.5 148.5" stroke-opacity="1" stroke-miterlimit="10"/><path fill="none" stroke="rgb(0,0,0)" paint-order="fill stroke markers" d=" M 237.5 148.5 L 233.5 144.5" stroke-opacity="1" stroke-miterlimit="10"/><path fill="none" stroke="rgb(0,0,0)" paint-order="fill stroke markers" d=" M 237.5 148.5 L 233.5 152.5" stroke-opacity="1" stroke-miterlimit="10"/><path fill="rgb(46,125,50)" stroke="none" paint-order="stroke fill markers" d=" M 121.78968190792182 148.14357852871302 C 121.78968190792182 140.21997913664504 117.11191565651684 133.04349308923966 109.86247086853152 129.84521580421065 L 101.78968190792182 148.14357852871302 Z" fill-opacity="0.09803921568627451"/><path fill="none" stroke="rgb(46,125,50)" paint-order="fill stroke markers" d=" M 121.78968190792182 148.14357852871302 C 121.78968190792182 140.21997913664504 117.11191565651684 133.04349308923966 109.86247086853152 129.84521580421065 L 101.78968190792182 148.14357852871302 Z" stroke-opacity="0.6" stroke-linecap="round" stroke-linejoin="round" stroke-miterlimit="10" stroke-width="2.5"/><path fill="rgb(46,125,50)" stroke="none" paint-order="stroke fill markers" fill-rule="evenodd" d=" M 109.86247086853152 129.84521580421065 L 123.01968160518277 136.92646256105715 L 116.13949140374461 143.4045396516786 Z" fill-opacity="0.6"/><g transform="scale(19,19)"><g transform="translate(6.631578947368421,7.115052631578948)"><path fill="rgb(46,125,50)" stroke="none" paint-order="stroke fill markers" d=" M 0.455 -0.5 L 0.455 -0.5 Q 0.455 -0.34700000000000003 0.377 -0.19 Q 0.307 -0.05 0.222 -0.005 Q 0.191 0.011 0.162 0.011 Q 0.08 0.011 0.052000000000000005 -0.101 Q 0.042 -0.14300000000000002 0.042 -0.194 Q 0.042 -0.35100000000000003 0.122 -0.509 Q 0.192 -0.646 0.277 -0.6900000000000001 Q 0.307 -0.705 0.335 -0.705 Q 0.422 -0.705 0.447 -0.578 Q 0.455 -0.54 0.455 -0.5 M 0.148 -0.363 L 0.148 -0.363 L 0.357 -0.363 Q 0.389 -0.495 0.389 -0.562 Q 0.389 -0.675 0.342 -0.682 Q 0.338 -0.683 0.334 -0.683 Q 0.28300000000000003 -0.683 0.225 -0.578 Q 0.187 -0.511 0.149 -0.368 Q 0.149 -0.365 0.148 -0.363 M 0.34800000000000003 -0.331 L 0.14 -0.331 Q 0.108 -0.21 0.108 -0.133 Q 0.108 -0.013000000000000001 0.162 -0.011 Q 0.218 -0.011 0.278 -0.128 Q 0.317 -0.202 0.34800000000000003 -0.331 Z"/></g></g><path fill="none" stroke="rgb(0,0,0)" paint-order="fill stroke markers" d=" M 248 18.486031948453103 L 248 18.6471020196885 L 242.23673891573014 20.849786012615198 L 242.23673891573014 20.849786012615198 L 242.23673891573014 20.849786012615198 L 236.3542209367669 23.139517169924034 L 236.3542209367669 23.139517169924034 L 230.75455365611828 25.35881348029588 L 225.41993105988897 27.511035306881112 L 220.33392733104716 29.59933310558769 M 220.33392733104716 29.59933310558769 L 210.84822902978254 33.595804323425185 L 202.1891727365885 37.36981074906693 L 194.26371839102183 40.940471031909155 L 186.99156693658654 44.32478123454365 L 180.3031227161465 47.53790169176355 L 174.13782615810663 50.593398576917124 L 168.44278179802004 53.50344830507947 L 163.17162332747 56.27901127662173 L 153.74263839278643 61.465307201650376 L 145.57832859609104 66.22078264481118 L 138.4640956553548 70.60204559252628 L 132.22911214079227 74.65629322960756 L 126.73603406364116 78.42319489686327 L 121.87342797198663 81.93634057498747 L 117.55012380630257 85.22436753927092 L 113.69095354009198 88.3118456457869 L 110.2335001820144 91.21997951394454 L 107.12559237993916 93.9671703332946 L 104.323355438918 96.56946899623345 L 101.78968190792182 99.0409443331698 M 101.78968190792182 99.0409443331698 L 99.49302162347453 101.39398446305258 L 97.40641719399295 103.63954503419967 L 95.50672965975552 105.78735498220479 L 93.77401268144189 107.8460880706126 L 92.19100359956312 109.82350669332544 L 90.74270710378242 111.72658305419247 L 89.41605277659565 113.56160179042237 L 88.19961193798216 115.33424729368537 L 87.08336237758299 117.04967834846339 L 86.05849197795735 118.71259220888317 L 85.11723409428572 120.32727984131009 L 84.2527289997014 121.89767374667703 L 83.45890683226585 123.42738952595823 L 82.73038836442375 124.91976215074446 L 82.06240061462614 126.37787773809366 L 81.4507048758829 127.80460149667411 L 80.89153517926931 129.20260240345206 L 80.3815455662485 130.57437508193345 L 79.9177648307927 131.92225928044354 L 79.49755762513158 133.24845728911052 L 79.11859101274045 134.55504958473503 L 78.77880570765572 135.84400895168574 L 78.47639136724321 137.11721329285172 L 78.20976541157277 138.37645731630016 L 77.97755493087665 139.62346325965834 L 77.77858131663179 140.8598907945829 L 77.6118473143747 142.0873462373672 L 77.47652624967233 143.30739117826047 L 77.37195322456596 144.52155063102398 L 77.29761812178744 145.73132079530345 L 77.25316028938406 146.93817651729384 L 77.23836481015022 148.14357852871302 M 77.23836481015022 148.14357852871302 L 77.25316028938406 149.3489805401322 L 77.29761812178744 150.55583626212257 L 77.37195322456596 151.76560642640203 L 77.47652624967233 152.97976587916557 L 77.6118473143747 154.19981082005881 L 77.77858131663179 155.42726626284315 L 77.97755493087665 156.6636937977677 L 78.20976541157277 157.91069974112585 L 78.47639136724321 159.1699437645743 L 78.77880570765572 160.44314810574028 L 79.11859101274045 161.732107472691 L 79.49755762513156 163.03869976831552 L 79.91776483079269 164.3648977769825 L 80.3815455662485 165.71278197549256 L 80.89153517926931 167.08455465397395 L 81.4507048758829 168.4825555607519 L 82.06240061462614 169.90927931933237 L 82.73038836442373 171.36739490668157 L 83.45890683226585 172.8597675314678 L 84.2527289997014 174.389483310749 L 85.11723409428572 175.95987721611596 L 86.05849197795735 177.57456484854288 L 87.08336237758297 179.23747870896264 L 88.19961193798214 180.95290976374065 L 89.41605277659565 182.72555526700367 L 90.74270710378241 184.56057400323357 L 92.19100359956312 186.4636503641006 L 93.77401268144187 188.44106898681343 L 95.50672965975554 190.49980207522125 L 97.40641719399297 192.64761202322637 L 99.49302162347453 194.89317259437348 L 101.7896819079218 197.24621272425622 M 101.7896819079218 197.24621272425622 L 104.32335543891797 199.71768806119258 L 107.12559237993912 202.3199867241314 L 110.23350018201441 205.0671775434815 L 113.69095354009198 207.97531141163915 L 117.55012380630254 211.0627895181551 L 121.8734279719866 214.35081648243857 L 126.73603406364111 217.86396216056272 L 132.2291121407923 221.6308638278185 L 138.46409565535478 225.68511146489976 L 145.578328596091 230.06637441261483 L 153.7426383927864 234.82184985577567 L 163.1716233274699 240.00814578080423 L 168.44278179801992 242.7837087523465 L 174.1378261581064 245.6937584805088 L 180.3031227161466 248.74925536566252 L 186.9915669365866 251.96237582288245 L 194.26371839102177 255.34668602551685 L 202.18917273658843 258.9173463083591 L 210.84822902978246 262.6913527340008 L 220.33392733104705 266.68782395183825 M 220.33392733104705 266.68782395183825 L 225.4199310598891 268.77612175054503 L 230.75455365611808 270.9283435771301 L 236.35422093676695 273.14763988750207 L 236.35422093676695 273.14763988750207 L 242.23673891572992 275.43737104481073 L 242.23673891572992 275.43737104481073 L 242.23673891572992 275.43737104481073 L 248 277.64005503773757 L 248 277.80112510897294 M 248 300" stroke-opacity="0.6980392156862745" stroke-linecap="round" stroke-linejoin="round" stroke-miterlimit="10" stroke-width="2.5"/><path fill="none" stroke="rgb(0,0,0)" paint-order="fill stroke markers" d=" M 52.687047712378615 295 L 52.687047712378615 -5" stroke-opacity="0.6980392156862745" stroke-linecap="round" stroke-linejoin="round" stroke-miterlimit="10" stroke-width="2.5"/><g transform="scale(19,19)"><g transform="translate(3.210526315789474,1.694)"><path fill="rgb(0,0,0)" stroke="none" paint-order="stroke fill markers" d=" M 0.258 -0.683 L 0.114 -0.105 Q 0.108 -0.082 0.108 -0.057 Q 0.108 -0.011 0.138 -0.011 Q 0.177 -0.011 0.203 -0.097 Q 0.20800000000000002 -0.112 0.214 -0.135 Q 0.222 -0.152 0.228 -0.153 Q 0.24 -0.153 0.24 -0.14300000000000002 Q 0.24 -0.128 0.222 -0.074 Q 0.216 -0.057 0.21 -0.045 Q 0.184 0.011 0.135 0.011 Q 0.083 0.011 0.057 -0.031 Q 0.044 -0.053 0.044 -0.081 Q 0.044 -0.097 0.049 -0.115 L 0.17500000000000002 -0.615 L 0.178 -0.635 Q 0.178 -0.646 0.164 -0.649 Q 0.152 -0.652 0.129 -0.652 Q 0.106 -0.652 0.10400000000000001 -0.663 Q 0.10400000000000001 -0.681 0.123 -0.684 L 0.245 -0.6940000000000001 Q 0.258 -0.6940000000000001 0.258 -0.683 Z"/></g></g><path fill="none" stroke="rgb(211,47,47)" paint-order="fill stroke markers" d=" M 101.78968190792182 148.14357852871302 L 135.02420772971865 72.81181754357888" stroke-opacity="0.6980392156862745" stroke-linecap="round" stroke-linejoin="round" stroke-miterlimit="10" stroke-width="2.5"/><g transform="scale(19,19)"><g transform="translate(5.473684210526316,5.746789473684211)"><path fill="rgb(211,47,47)" stroke="none" paint-order="stroke fill markers" d=" M 0.033 0.17300000000000001 L 0.131 -0.22 Q 0.157 -0.324 0.23900000000000002 -0.392 Q 0.3 -0.442 0.363 -0.442 Q 0.435 -0.442 0.47400000000000003 -0.382 Q 0.502 -0.34 0.502 -0.279 Q 0.502 -0.17 0.424 -0.079 Q 0.353 0.003 0.27 0.01 Q 0.263 0.011 0.256 0.011 Q 0.19 0.011 0.157 -0.056 Q 0.095 0.191 0.093 0.195 Q 0.079 0.216 0.058 0.216 Q 0.035 0.216 0.031 0.195 Q 0.03 0.192 0.03 0.189 Q 0.03 0.185 0.033 0.17300000000000001 M 0.255 -0.011 L 0.255 -0.011 Q 0.307 -0.011 0.352 -0.07200000000000001 Q 0.364 -0.08700000000000001 0.374 -0.106 Q 0.40700000000000003 -0.166 0.425 -0.27 Q 0.43 -0.301 0.43 -0.322 Q 0.43 -0.403 0.379 -0.418 Q 0.37 -0.42 0.361 -0.42 Q 0.307 -0.42 0.257 -0.355 Q 0.247 -0.341 0.23700000000000002 -0.325 Q 0.214 -0.28300000000000003 0.185 -0.17 Q 0.182 -0.157 0.177 -0.137 Q 0.169 -0.10200000000000001 0.169 -0.1 Q 0.169 -0.077 0.188 -0.049 Q 0.213 -0.011 0.255 -0.011 Z"/></g></g><path fill="rgb(21,101,192)" stroke="none" paint-order="stroke fill markers" d=" M 106.78968190792182 148.14357852871302 C 106.78968190792182 150.905002277867 104.55110565707578 153.14357852871302 101.78968190792182 153.14357852871302 C 99.02825815876785 153.14357852871302 96.78968190792182 150.905002277867 96.78968190792182 148.14357852871302 C 96.78968190792182 145.38215477955904 99.02825815876785 143.14357852871302 101.78968190792182 143.14357852871302 C 104.55110565707578 143.14357852871302 106.78968190792182 145.38215477955904 106.78968190792182 148.14357852871302 Z" fill-opacity="1"/><path fill="none" stroke="rgb(0,0,0)" paint-order="fill stroke markers" d=" M 106.78968190792182 148.14357852871302 C 106.78968190792182 150.905002277867 104.55110565707578 153.14357852871302 101.78968190792182 153.14357852871302 C 99.02825815876785 153.14357852871302 96.78968190792182 150.905002277867 96.78968190792182 148.14357852871302 C 96.78968190792182 145.38215477955904 99.02825815876785 143.14357852871302 101.78968190792182 143.14357852871302 C 104.55110565707578 143.14357852871302 106.78968190792182 145.38215477955904 106.78968190792182 148.14357852871302 Z" stroke-opacity="1" stroke-linecap="round" stroke-linejoin="round" stroke-miterlimit="10"/><g transform="scale(19,19)"><g transform="translate(5.684210526315789,8.893526315789474)"><path fill="rgb(21,101,192)" stroke="none" paint-order="stroke fill markers" d=" M 0.303 -0.325 L 0.241 -0.076 Q 0.23700000000000002 -0.061 0.23700000000000002 -0.053 Q 0.23700000000000002 -0.039 0.25 -0.036000000000000004 Q 0.257 -0.034 0.269 -0.033 Q 0.294 -0.031 0.321 -0.031 Q 0.34600000000000003 -0.031 0.34900000000000003 -0.03 L 0.354 -0.023 Q 0.355 -0.021 0.355 -0.019 Q 0.355 0 0.334 0 L 0.186 -0.003 L 0.185 -0.003 L 0.054 0 L 0.053 0 Q 0.038 0 0.038 -0.012 Q 0.038 -0.029 0.054 -0.031 L 0.066 -0.031 Q 0.131 -0.031 0.14400000000000002 -0.045 Q 0.15 -0.052000000000000005 0.156 -0.073 Q 0.156 -0.074 0.157 -0.078 L 0.289 -0.607 Q 0.294 -0.625 0.294 -0.631 Q 0.294 -0.648 0.248 -0.649 L 0.247 -0.649 L 0.229 -0.649 Q 0.203 -0.649 0.201 -0.66 Q 0.201 -0.678 0.217 -0.68 L 0.231 -0.68 L 0.721 -0.68 Q 0.745 -0.68 0.747 -0.673 L 0.748 -0.673 Q 0.75 -0.667 0.748 -0.653 L 0.728 -0.48 Q 0.721 -0.457 0.714 -0.455 Q 0.7020000000000001 -0.455 0.7020000000000001 -0.467 Q 0.7020000000000001 -0.47200000000000003 0.704 -0.485 Q 0.707 -0.512 0.707 -0.539 Q 0.707 -0.606 0.673 -0.628 L 0.672 -0.629 Q 0.64 -0.649 0.561 -0.649 L 0.429 -0.649 Q 0.392 -0.649 0.385 -0.638 L 0.384 -0.638 L 0.384 -0.637 Q 0.381 -0.633 0.379 -0.625 L 0.379 -0.624 L 0.378 -0.623 Q 0.377 -0.619 0.375 -0.61 L 0.311 -0.356 L 0.402 -0.356 Q 0.47500000000000003 -0.356 0.5 -0.383 L 0.501 -0.384 Q 0.518 -0.403 0.531 -0.452 Q 0.536 -0.47100000000000003 0.546 -0.47300000000000003 Q 0.557 -0.47300000000000003 0.558 -0.462 Q 0.558 -0.457 0.555 -0.446 L 0.5 -0.229 Q 0.49 -0.209 0.485 -0.20800000000000002 Q 0.47300000000000003 -0.20800000000000002 0.47300000000000003 -0.22 Q 0.47300000000000003 -0.224 0.47600000000000003 -0.231 Q 0.483 -0.261 0.483 -0.28 Q 0.483 -0.309 0.461 -0.318 L 0.461 -0.318 Q 0.442 -0.325 0.4 -0.325 L 0.303 -0.325 Z"/></g></g><path fill="rgb(21,101,192)" stroke="none" paint-order="stroke fill markers" d=" M 140.02420772971865 72.81181754357888 C 140.02420772971865 75.57324129273285 137.78563147887263 77.81181754357888 135.02420772971865 77.81181754357888 C 132.26278398056468 77.81181754357888 130.02420772971865 75.57324129273285 130.02420772971865 72.81181754357888 C 130.02420772971865 70.05039379442492 132.26278398056468 67.81181754357888 135.02420772971865 67.81181754357888 C 137.78563147887263 67.81181754357888 140.02420772971865 70.05039379442492 140.02420772971865 72.81181754357888 Z" fill-opacity="1"/><path fill="none" stroke="rgb(0,0,0)" paint-order="fill stroke markers" d=" M 140.02420772971865 72.81181754357888 C 140.02420772971865 75.57324129273285 137.78563147887263 77.81181754357888 135.02420772971865 77.81181754357888 C 132.26278398056468 77.81181754357888 130.02420772971865 75.57324129273285 130.02420772971865 72.81181754357888 C 130.02420772971865 70.05039379442492 132.26278398056468 67.81181754357888 135.02420772971865 67.81181754357888 C 137.78563147887263 67.81181754357888 140.02420772971865 70.05039379442492 140.02420772971865 72.81181754357888 Z" stroke-opacity="1" stroke-linecap="round" stroke-linejoin="round" stroke-miterlimit="10"/><g transform="scale(19,19)"><g transform="translate(6.842105263157895,3.0514210526315786)"><path fill="rgb(21,101,192)" stroke="none" paint-order="stroke fill markers" d=" M 0.303 -0.316 L 0.303 -0.316 L 0.241 -0.066 L 0.23800000000000002 -0.049 Q 0.23800000000000002 -0.032 0.28400000000000003 -0.031 L 0.28400000000000003 -0.031 L 0.28400000000000003 -0.031 L 0.303 -0.031 Q 0.329 -0.031 0.331 -0.02 Q 0.331 0 0.311 0 L 0.247 -0.002 L 0.246 -0.002 L 0.184 -0.003 L 0.182 -0.003 L 0.056 0 L 0.055 0 Q 0.04 0 0.04 -0.012 Q 0.04 -0.029 0.056 -0.031 L 0.068 -0.031 Q 0.133 -0.031 0.146 -0.045 Q 0.152 -0.052000000000000005 0.158 -0.073 Q 0.158 -0.074 0.159 -0.078 L 0.293 -0.615 Q 0.297 -0.631 0.297 -0.634 Q 0.297 -0.646 0.281 -0.649 L 0.28 -0.649 L 0.28 -0.649 Q 0.278 -0.65 0.275 -0.65 Q 0.251 -0.652 0.232 -0.652 Q 0.20600000000000002 -0.652 0.20400000000000001 -0.66 Q 0.203 -0.662 0.203 -0.664 Q 0.203 -0.681 0.22 -0.683 L 0.22 -0.683 L 0.233 -0.683 L 0.557 -0.683 Q 0.678 -0.683 0.73 -0.609 Q 0.754 -0.5740000000000001 0.754 -0.532 Q 0.754 -0.451 0.671 -0.385 Q 0.583 -0.316 0.47300000000000003 -0.316 L 0.303 -0.316 M 0.375 -0.614 L 0.307 -0.342 L 0.448 -0.342 Q 0.543 -0.342 0.602 -0.395 Q 0.643 -0.433 0.658 -0.522 L 0.658 -0.523 Q 0.661 -0.542 0.661 -0.556 Q 0.661 -0.652 0.525 -0.652 L 0.429 -0.652 Q 0.393 -0.652 0.385 -0.642 L 0.385 -0.642 L 0.385 -0.641 L 0.384 -0.641 L 0.384 -0.64 Q 0.38 -0.634 0.375 -0.614 Z"/></g></g><g transform="scale(19,19)"><g transform="translate(11.68421052631579,8.799421052631578)"><path fill="rgb(0,0,0)" stroke="none" paint-order="stroke fill markers" d=" M 0.334 -0.302 L 0.3 -0.165 Q 0.28300000000000003 -0.097 0.28300000000000003 -0.077 Q 0.28300000000000003 -0.025 0.32 -0.014 Q 0.328 -0.011 0.338 -0.011 Q 0.388 -0.011 0.429 -0.061 Q 0.456 -0.093 0.47100000000000003 -0.14200000000000002 Q 0.47400000000000003 -0.153 0.484 -0.153 Q 0.496 -0.153 0.496 -0.14300000000000002 Q 0.496 -0.11800000000000001 0.465 -0.07100000000000001 Q 0.41100000000000003 0.011 0.336 0.011 Q 0.268 0.011 0.23700000000000002 -0.046 Q 0.231 -0.055 0.228 -0.065 Q 0.20400000000000001 -0.017 0.162 0.002 Q 0.14300000000000002 0.011 0.123 0.011 Q 0.063 0.011 0.039 -0.024 Q 0.029 -0.037 0.029 -0.055 Q 0.029 -0.092 0.061 -0.107 Q 0.07200000000000001 -0.113 0.084 -0.113 Q 0.114 -0.113 0.12 -0.088 Q 0.121 -0.083 0.121 -0.078 Q 0.121 -0.044 0.08700000000000001 -0.028 Q 0.081 -0.025 0.074 -0.024 Q 0.095 -0.011 0.124 -0.011 Q 0.177 -0.011 0.20800000000000002 -0.082 Q 0.214 -0.097 0.219 -0.115 Q 0.273 -0.319 0.273 -0.353 Q 0.267 -0.41500000000000004 0.219 -0.42 Q 0.167 -0.42 0.124 -0.367 L 0.124 -0.366 Q 0.124 -0.365 0.123 -0.365 Q 0.108 -0.34500000000000003 0.096 -0.319 Q 0.091 -0.307 0.08700000000000001 -0.295 L 0.085 -0.289 Q 0.083 -0.278 0.07200000000000001 -0.278 Q 0.06 -0.278 0.06 -0.28800000000000003 Q 0.06 -0.313 0.092 -0.36 Q 0.146 -0.442 0.221 -0.442 Q 0.298 -0.442 0.329 -0.366 Q 0.361 -0.428 0.41400000000000003 -0.44 Q 0.424 -0.442 0.434 -0.442 Q 0.493 -0.442 0.517 -0.40900000000000003 Q 0.527 -0.395 0.527 -0.376 Q 0.527 -0.335 0.49 -0.321 Q 0.481 -0.318 0.47300000000000003 -0.318 Q 0.442 -0.318 0.436 -0.34500000000000003 Q 0.435 -0.34900000000000003 0.435 -0.353 Q 0.435 -0.383 0.464 -0.4 Q 0.47300000000000003 -0.405 0.483 -0.40700000000000003 Q 0.462 -0.42 0.433 -0.42 Q 0.365 -0.42 0.337 -0.314 Q 0.335 -0.308 0.334 -0.302 Z"/></g></g></g></g></svg>