<svg xmlns="http://www.w3.org/2000/svg" width="362" height="230"><defs><clipPath id="a"><path fill="none" d="M0 0h362v230H0V0z"/></clipPath></defs><g clip-path="url(#a)"><path fill="#FFF" d="M0 0h362v230H0z"/><path fill="none" stroke="#000" paint-order="fill stroke markers" d="M47.5 2.5v228M47.5 1.5l-4 4M47.5 1.5l4 4M.5 189.5h360M361.5 189.5l-4-4M361.5 189.5l-4 4" stroke-miterlimit="10"/><path fill="none" stroke="#2E7D32" paint-order="fill stroke markers" d="M47.8 189.2l.3-.4m0 0l2.8-3.4m0 0l2.8-3.2 2.9-3.1m0 0l2.8-3 2.8-2.7 2.8-2.6 2.9-2.4m0 0l2.8-2.4 2.8-2.2 2.9-2 2.8-2 2.8-2 2.8-1.7 2.9-1.7 2.8-1.6m0 0l2.8-1.5 2.9-1.4 2.8-1.4 2.8-1.2 2.8-1.2 2.9-1.2 2.8-1 2.8-1.1 2.9-1 2.8-.9 2.8-.9 2.8-.8 2.9-.8 2.8-.7 2.8-.7 2.8-.7 2.9-.6 2.8-.6 2.8-.6 2.9-.5 2.8-.5 2.8-.5 2.8-.4 2.9-.5 2.8-.4 2.8-.4 2.9-.3 2.8-.4 2.8-.3 2.8-.3 2.9-.3 2.8-.3m0 0l2.8-.2 2.9-.3 2.8-.2 2.8-.2 2.8-.3 2.9-.2 2.8-.1 2.8-.2 2.9-.2 2.8-.2 2.8-.1 2.8-.1 2.9-.2 2.8-.1 2.8-.1 2.8-.2h2.9l2.8-.2h2.8l2.9-.2h2.8l2.8-.1 2.8-.1h2.9l2.8-.2H257.4l2.8-.1 2.8-.1h2.8l2.9-.1h2.8l2.8-.1H280l2.8-.1H288.5l2.8-.1H297l2.8-.1h8.5l2.8-.1h11.3l2.8-.1h17l2.8-.1h17" stroke-opacity=".8" stroke-linecap="round" stroke-linejoin="round" stroke-miterlimit="10" stroke-width="2.5"/><path fill="#2E7D32" paint-order="stroke fill markers" d="M68.7 159.1q-1 1.3-2.3 1.3-1.5 0-2.1-1.1-.2-.5-.2-1.2 0-1 1-3.7v-.3q.4-.8.4-1.3 0-.6-.5-.6-1 0-1.7 1.8l-.2.6-.3.3q-.2 0-.2-.2l.4-1.2q.8-1.7 2-1.7 1 0 1.5.8l.1.7-.3 1.2q-1 2.8-1 4 0 1.5 1.1 1.5 1.2 0 2-1.3l.2-.3 1.4-5.7q.2-.7.8-.7.5.1.5.5l-.3 1.3-.3 1.3-.5 2-.4 2q0 .9.6.9.8 0 1.3-2l.1-.4.3-.3q.2 0 .2.2l-.3 1.3-.3.6q-.5 1-1.4 1-1 0-1.5-1l-.1-.3z"/><path fill="none" stroke="#6557D2" paint-order="fill stroke markers" d="M47.8 27.4l.3 1m0 0l2.8 8.5m0 0l2.8 8.1 2.9 7.7m0 0l2.8 7.2 2.8 7 2.8 6.4 2.9 6.2m0 0l2.8 5.8 2.8 5.5 2.9 5.3 2.8 5 2.8 4.6 2.8 4.5 2.9 4.2 2.8 4m0 0l2.8 3.7 2.9 3.6L99 129l2.8 3.2 2.8 3 2.9 3 2.8 2.7 2.8 2.5 2.9 2.5 2.8 2.3 2.8 2.1 2.8 2.1 2.9 2 2.8 1.8 2.8 1.8 2.8 1.6 2.9 1.6 2.8 1.5 2.8 1.4 2.9 1.3 2.8 1.3 2.8 1.2 2.8 1.1 2.9 1.1 2.8 1 2.8 1 2.9.9 2.8.8 2.8.9 2.8.7 2.9.8 2.8.7m0 0l2.8.6 2.9.6 2.8.6 2.8.6 2.8.5 2.9.5 2.8.5 2.8.4 2.9.4 2.8.4 2.8.4 2.8.4 2.9.3 2.8.3 2.8.4 2.8.2 2.9.3 2.8.3 2.8.2 2.9.3 2.8.2 2.8.2 2.8.2 2.9.2 2.8.1 2.8.2 2.9.2 2.8.1 2.8.2h2.8l2.9.2 2.8.1 2.8.2h2.9l2.8.2h2.8l2.8.2h2.9l2.8.1 2.8.1h2.9l2.8.1 2.8.1h2.8l2.9.1h2.8l2.8.1h2.9l2.8.1h2.8l2.8.1h2.9l2.8.1h5.6l2.9.1h5.6l2.9.1H359.2l2.8.1" stroke-opacity=".8" stroke-linecap="round" stroke-linejoin="round" stroke-miterlimit="10" stroke-width="2.5"/><path fill="#6557D2" paint-order="stroke fill markers" d="M62.4 21.7q0 .6-.6.9h-.4q-.6 0-.7-.4V22q0-.5.5-.9l.5-.1q.6 0 .7.5v.2M61 28.8l-.8 2q-.5 1.5-.5 1.9 0 .6.4.6 1.2 0 1.9-2.1V31l.2-.3h.1l.3.1q0 .4-.5 1.2-.8 1.7-2 1.7-1 0-1.4-.8-.2-.3-.2-.7 0-.4.5-1.5l1.3-3.5.2-1q0-.6-.5-.6-1 0-1.7 1.7l-.2.6-.3.4q-.2 0-.2-.2 0-.4.4-1.2.8-1.8 2-1.8 1 0 1.5.9l.1.7-.2 1-.4 1.1z"/><path fill="none" stroke="#6557D2" paint-order="fill stroke markers" d="M47.8 124.5h.3m0 0h2.8m0 0H56.6m0 0H67.9m0 0h22.6m0 0H181m0 0H362" stroke-opacity=".8" stroke-linejoin="round" stroke-miterlimit="10" stroke-width="2.5" stroke-dasharray="6.5,4"/><path fill="#6557D2" paint-order="stroke fill markers" d="M36.5 127.5l-1.8 4.2-.3.3H24.3q-.5 0-.6-.2 0-.4.3-.4h.3q1.2 0 1.4-.3.2-.1.3-.5v-.1l2.5-10v-.5q0-.3-.8-.4h-.3q-.5 0-.6-.2 0-.3.3-.3h10.4v.5l-.4 3.3-.2.4q-.3 0-.3-.2v-.3l.1-1q0-1.4-.7-1.8-.7-.4-2.2-.4h-2.6q-.8 0-.9.3l-.1.2v.3L29 125h1.8q1.4 0 1.9-.6.3-.4.6-1.3 0-.3.2-.4.3 0 .3.3l-1.1 4.4q-.1.4-.3.4-.3 0-.3-.2l.1-.2.1-1q0-.5-.3-.6-.3-.2-1.3-.2h-1.9l-1.3 5.1v.5l.1.2H31q2.3 0 3.4-1 .7-.8 1.6-2.6l.2-.5q0-.2.2-.2t.2.2v.3z"/><path fill="#1565C0" paint-order="stroke fill markers" d="M52.8 189.2a5 5 0 11-10 0 5 5 0 0110 0z"/><path fill="none" stroke="#000" paint-order="fill stroke markers" d="M52.8 189.2a5 5 0 11-10 0 5 5 0 0110 0z" stroke-linecap="round" stroke-linejoin="round" stroke-miterlimit="10"/><path fill="#1565C0" paint-order="stroke fill markers" d="M41.7 205.2q0 2.7-.7 4.2-1 2.2-3.3 2.3-1.7 0-2.7-1.4l-.4-.6q-.9-1.5-.9-4.5 0-2.8.7-4.4 1-2 3.1-2.2h.3q1.6 0 2.7 1.3l.5.8q.7 1.6.7 4.5m-4 6q1.2 0 1.9-1.1l.4-1.2q.2-1.3.2-4 0-2.6-.2-3.7-.4-1.8-1.8-2.1l-.5-.1q-1.3 0-2 1.3l-.2 1.1q-.2 1-.2 3.5 0 2.9.2 4 .4 1.9 1.7 2.3h.5z"/><path fill="#616161" paint-order="stroke fill markers" d="M104.5 189.2a5 5 0 11-10 0 5 5 0 0110 0z"/><path fill="none" stroke="#000" paint-order="fill stroke markers" d="M104.5 189.2a5 5 0 11-10 0 5 5 0 0110 0z" stroke-linecap="round" stroke-linejoin="round" stroke-miterlimit="10"/><path fill="#616161" paint-order="stroke fill markers" d="M103.6 202.1l-1.3 6.5q-.1.7-.6.8h-.2q-.5 0-.5-.5l.2-.7 1.8-6.1h-1.5q-1.5 0-2.5 1.5-.1.2-.3.2-.2 0-.2-.2t.7-1.1q.2-.4.5-.6.8-.9 2-.9h5.2q.7 0 .8.3v.2q0 .6-1 .6h-3.1zM156.3 189.2a5 5 0 11-10 0 5 5 0 0110 0z"/><path fill="none" stroke="#000" paint-order="fill stroke markers" d="M156.3 189.2a5 5 0 11-10 0 5 5 0 0110 0z" stroke-linecap="round" stroke-linejoin="round" stroke-miterlimit="10"/><path fill="#616161" paint-order="stroke fill markers" d="M147.5 207l-.5 3.2h-7v-.6h.2l3.6-4.1q2-2.3 2-4.2 0-1.7-1-2.6-.7-.5-1.5-.5-1.4 0-2.2 1.1l-.4.8h.2q.8 0 1 .7v.3q0 .7-.7 1h-.2q-.7 0-1-.6v-.5q0-1.4 1-2.5 1-1 2.5-1 2 0 3.3 1.5.6.8.7 2v.3q0 1.4-1 2.6l-1.7 1.7-1.2 1-.2.2-2 2h3.4q1.7 0 1.8-.2.2-.2.5-1.7h.4zM154 203.1l-1.2 6.5q-.1.8-.6.8h-.2q-.5 0-.5-.4l.2-.8 1.8-6H152q-1.5 0-2.5 1.4-.1.2-.3.2-.2 0-.2-.2t.7-1l.5-.7q.8-.9 2-.9h5.2q.7 0 .8.3v.2q0 .6-1 .6h-3.1zM208 189.2a5 5 0 11-10 0 5 5 0 0110 0z"/><path fill="none" stroke="#000" paint-order="fill stroke markers" d="M208 189.2a5 5 0 11-10 0 5 5 0 0110 0z" stroke-linecap="round" stroke-linejoin="round" stroke-miterlimit="10"/><path fill="#616161" paint-order="stroke fill markers" d="M197.5 203.5q2 .4 2.7 2 .5.7.5 1.5 0 1.6-1.3 2.7-1.2 1-2.8 1-1.8 0-3-1.2-.8-.8-.8-1.8t.8-1l.3-.1q.7 0 1 .6v.4q0 .8-.7 1h-.5q.7 1.3 2.4 1.5h.5q1.2 0 1.8-1.2.3-.7.3-2 0-2.4-1.5-3h-1.6q-.4 0-.4-.3 0-.2.3-.2h.7q1-.1 1.5-.8l.2-.2q.5-1 .5-2.2 0-1.8-1.3-2l-.5-.1q-1.3 0-2.2.7l-.3.4q1.1 0 1.1 1 0 .7-.5.9h-.4q-.8 0-1-.6v-.3q0-1.3 1.3-2 .9-.6 2-.6 1.8 0 2.9 1 .7.7.7 1.6 0 1.6-1.4 2.6-.6.5-1.3.7zM207 203.1l-1.2 6.5q-.1.8-.6.8h-.2q-.5 0-.5-.4l.2-.8 1.8-6H205q-1.5 0-2.5 1.4-.1.2-.3.2-.2 0-.2-.2t.7-1l.5-.7q.8-.9 2-.9h5.2q.7 0 .8.3v.2q0 .6-1 .6h-3.1zM259.8 189.2a5 5 0 11-10 0 5 5 0 0110 0z"/><path fill="none" stroke="#000" paint-order="fill stroke markers" d="M259.8 189.2a5 5 0 11-10 0 5 5 0 0110 0z" stroke-linecap="round" stroke-linejoin="round" stroke-miterlimit="10"/><path fill="#616161" paint-order="stroke fill markers" d="M244.5 207.1v-.6l5.9-8.9q.1-.2.3-.2.3 0 .3.2v8.9h2v.6h-2v1.7q0 .5.3.7l1.2.1h.4v.6h-5.2v-.6h.4q1.2 0 1.4-.3v-2.2h-5m5.2-.6v-7l-4.6 7h4.6zM259 203.1l-1.2 6.5q-.1.8-.6.8h-.2q-.5 0-.5-.4l.2-.8 1.8-6H257q-1.5 0-2.5 1.4-.1.2-.3.2-.2 0-.2-.2t.7-1l.5-.7q.8-.9 2-.9h5.2q.7 0 .8.3v.2q0 .6-1 .6h-3.1zM311.6 189.2a5 5 0 11-10 0 5 5 0 0110 0z"/><path fill="none" stroke="#000" paint-order="fill stroke markers" d="M311.6 189.2a5 5 0 11-10 0 5 5 0 0110 0z" stroke-linecap="round" stroke-linejoin="round" stroke-miterlimit="10"/><g><path fill="#616161" paint-order="stroke fill markers" d="M304.5 206.4q0 2-1.4 3.2-1.2 1-2.7 1-1.8 0-2.8-1.4-.7-1-.7-2 0-.9.8-1h.2q.7 0 .9.6v.3q0 .6-.5.8l-.4.1h-.3q.3 1.2 1.4 1.8.6.3 1.4.3 1.2 0 2-1.2.4-.8.4-2.6 0-1.6-.3-2.4-.5-1.2-1.6-1.2-1.6 0-2.5 1.3 0 .2-.2.2-.3 0-.3-.3v-5.8q0-.5.2-.5h.2q1.2.6 2.6.6 1.3 0 2.5-.6h.2q.2 0 .2.2t-.6.8q-1.3 1.2-3 1.2-.9 0-1.7-.3v3.7q1-1 2.4-1 1.7 0 2.8 1.5.8 1.2.8 2.7zM311 203.1l-1.2 6.5q-.1.8-.6.8h-.2q-.5 0-.5-.4l.2-.8 1.8-6H309q-1.5 0-2.5 1.4-.1.2-.3.2-.2 0-.2-.2t.7-1l.5-.7q.8-.9 2-.9h5.2q.7 0 .8.3v.2q0 .6-1 .6h-3.1z"/></g></g></svg>