<svg xmlns="http://www.w3.org/2000/svg" version="1.1" xml:space="preserve" width="200" height="200"><defs/><path d="M10.72845 29.0177q-.12972 0-.12972-.17513.05189-.29187.16864-.29187.53834 0 .9275-.21404.39566-.21404.68104-.66158l.02595-.02595 4.74131-7.99732q.10378-.1427.25296-.1427h.17512q.03892 0 .07784.01947.03891.01297.06486.05188.03243.03244.03243.07135l.80427 8.58107q0 .05837.05837.17512.12973.1427.99237.1427.13621 0 .13621.17512-.0454.17512-.07783.2335-.02595.05837-.14918.05837h-3.32087q-.12323 0-.12323-.17512.07134-.29187.17512-.29187 1.05074 0 1.1156-.35674l-.20107-2.19229h-3.27546l-1.06371 1.78367q-.0973.1427-.0973.33079 0 .2335.22053.33727.22701.0973.49943.0973.12972 0 .12972.17512-.0454.1881-.07135.23998-.02594.0519-.14918.0519zm3.41167-3.48303h2.96414l-.39565-4.30026z" aria-label="A"/><path d="M181.32264 29.0177q-.12972 0-.12972-.17513.00649-.03243.02594-.11026.01946-.07784.0519-.12973.03242-.05188.09728-.05188.3762 0 .6551-.01946.2789-.01946.47348-.07135.15566-.05837.25296-.35673l1.8161-7.29683q.02594-.12972.02594-.1816 0-.1427-.15567-.16216-.25295-.05189-.95993-.05189-.12973 0-.12973-.17512.00648-.03243.02595-.11027.01946-.08431.05189-.12972.03891-.05188.0908-.05188h4.76077q.43457 0 .85617.11026.42808.10378.78481.33727.36322.2335.57077.58375.21404.34376.21404.80427 0 .49943-.25944.92751-.25296.42808-.66158.7459-.40213.31781-.87562.52537-.467.20107-.9794.29836.36323 0 .73293.1427.3762.14269.66807.38916.29187.24647.467.59023.1816.34376.1816.7394 0 .7978-.5578 1.45937-.5578.66158-1.40747 1.04426-.8432.3762-1.6345.3762zm2.44525-.57078q0 .10378.45402.10378h1.90042q.6486 0 1.24533-.35674.59671-.36322.95345-.95994.36322-.59671.36322-1.24532 0-.39565-.16864-.7459-.16215-.35673-.47348-.5578-.31133-.20755-.71347-.20755h-2.58794l-.92102 3.6776q-.0519.1816-.0519.29187zm1.06371-4.31972h2.01717q.63564 0 1.23235-.3243.6032-.3243.9794-.88211.38268-.5578.38268-1.18047 0-.57726-.36322-.95345-.35674-.37619-.92751-.37619h-1.82258q-.35674 0-.47997.06486-.12324.06486-.20756.38917z" aria-label="B"/><path d="M182.6004 177.33218q0 .79779.30484 1.40748.31133.6032.89508.94696.59023.33728 1.38802.33728.8367 0 1.60854-.42808.77833-.42808 1.32316-1.14155.55132-.71995.75238-1.52423.02595-.07783.10378-.07783h.16215q.05189 0 .08432.03892.03243.03243.03243.07783 0 .01297-.01297.03892-.22701.92102-.8821 1.73178-.64861.80427-1.55666 1.27775-.90805.47348-1.86799.47348-1.03777 0-1.8615-.467-.82373-.46699-1.28424-1.2972-.45403-.83022-.45403-1.87448 0-1.1156.49943-2.20526.49943-1.09615 1.34262-1.94582.84318-.85616 1.91987-1.36208 1.08318-.5059 2.1923-.5059.44105 0 .84318.1362.40214.12972.7459.40213.34376.27242.56429.62915l1.05074-1.14155q0-.02594.06486-.02594h.07783q.0519 0 .08432.0454.03243.0454.03243.0908l-.90156 3.5868q0 .0908-.10378.0908h-.23998q-.10378 0-.10378-.14917.05189-.29187.05189-.7005 0-.6486-.22053-1.21938-.22052-.57726-.68752-.9275-.46051-.35025-1.12858-.35025-1.08317 0-1.98473.54483-.90157.54483-1.53071 1.43342-.62267.8821-.96643 1.96528-.33727 1.07668-.33727 2.08851z" aria-label="C"/><g><path d="M9.37634 180.19902q-.12972 0-.12972-.17512.00649-.03243.02594-.11027.01946-.08431.0519-.12972.0389-.05188.0908-.05188.81075 0 1.13506-.09081.16864-.05837.24647-.35673l1.82258-7.29683q.02595-.12972.02595-.1816 0-.1427-.15567-.16216-.25295-.05189-.95994-.05189-.12972 0-.12972-.17512.00648-.03243.02595-.11027.01946-.08431.05188-.12972.03892-.05188.09081-.05188h4.77375q.9275 0 1.62151.45402.69401.44754 1.06372 1.2129.3697.75886.3697 1.67989 0 1.0183-.4216 2.03662-.42159 1.01831-1.18046 1.8615-.75887.8432-1.73178 1.33613-.9729.49294-1.9977.49294zm2.48416-.57077q0 .10378.45403.10378h1.54368q.73941 0 1.42694-.30485.68752-.30485 1.22586-.8367.49943-.49943.8821-1.31019.38269-.81076.59024-1.69286.21404-.8821.21404-1.62152 0-.53834-.16215-.9729-.15567-.43458-.44754-.7459-.28539-.31134-.71995-.47998-.43457-.17512-.9794-.17512H14.429q-.36322 0-.47997.06486-.11675.05838-.21404.38917l-1.8161 7.29034q-.05838.16215-.05838.29187z" aria-label="D"/></g><g><path d="M100.37706 175.66118c41.74856 0 75.5915-33.84293 75.5915-75.59149 0-41.74856-33.84294-75.5915-75.5915-75.5915m0 0c-20.87426 0-37.79573 16.92148-37.79573 37.79577 0 20.87428 16.92147 37.79573 37.79573 37.79573" style="fill:#000;fill-opacity:1;fill-rule:nonzero;stroke:#000;stroke-width:.3985;stroke-linecap:butt;stroke-linejoin:miter;stroke-miterlimit:10;stroke-dasharray:none;stroke-opacity:1"/></g><g><path d="M138.1728 137.86542c0-20.87428-16.92147-37.79573-37.79574-37.79573-20.87426 0-37.79573 16.92145-37.79573 37.79573 0 20.8743 16.92147 37.79576 37.79573 37.79576 20.87427 0 37.79574-16.92146 37.79574-37.79576z" style="fill:#fff;fill-opacity:1;fill-rule:nonzero;stroke:none"/></g><g><path d="M107.9361 62.27396c0-4.17479-3.38425-7.55904-7.55904-7.55904-4.17478 0-7.55902 3.38425-7.55902 7.55904 0 4.17478 3.38424 7.55901 7.55902 7.55901 4.1748 0 7.55903-3.38423 7.55903-7.55901z" style="fill:#fff;fill-opacity:1;fill-rule:nonzero;stroke:#000;stroke-width:.3985;stroke-linecap:butt;stroke-linejoin:miter;stroke-miterlimit:10;stroke-dasharray:none;stroke-opacity:1"/></g><g><path d="M107.9361 137.86542c0-4.17478-3.38425-7.55901-7.55904-7.55901-4.17478 0-7.55902 3.38423-7.55902 7.55901 0 4.17479 3.38424 7.55904 7.55902 7.55904 4.1748 0 7.55903-3.38425 7.55903-7.55904z" style="fill:#000;fill-opacity:1;fill-rule:nonzero;stroke:#000;stroke-width:.3985;stroke-linecap:butt;stroke-linejoin:miter;stroke-miterlimit:10;stroke-dasharray:none;stroke-opacity:1"/></g><path d="M100.37706 24.4782c-41.74855 0-75.59149 33.84293-75.59149 75.5915 0 41.74855 33.84294 75.59148 75.5915 75.59148m-75.5915 0V24.4782h151.18299v151.18298z" style="fill:none;stroke:#000;stroke-width:.3985;stroke-linecap:butt;stroke-linejoin:miter;stroke-miterlimit:10;stroke-dasharray:none;stroke-opacity:1"/><g><text transform="matrix(1.33333 0 0 1.33333 404.17732 936.84667)" style="font-variant:normal;font-weight:400;font-size:9.9626px;font-family:CMR10;-inkscape-font-specification:CMR10;writing-mode:lr-tb;fill:#000;fill-opacity:1;fill-rule:nonzero;stroke:none"><tspan x="0" y="0">1</tspan></text></g></svg>