<svg xmlns="http://www.w3.org/2000/svg" version="1.1" xml:space="preserve" width="200" height="200"><defs/><path d="M119.0105 105.3482q-1.1972 0-2.1223-.5441-.9251-.552-1.4304-1.5238-.4976-.9795-.4976-2.169 0-1.7335.9796-3.4516.9873-1.718 2.5965-2.7986 1.6092-1.0884 3.3662-1.0884.9095 0 1.6636.3265.754.3265 1.275.9096.5208.5753.8007 1.3527.2876.7774.2876 1.6947 0 1.3138-.5597 2.6198-.5598 1.2983-1.5548 2.3711-.9873 1.065-2.2234 1.687-1.236.6141-2.581.6141zm.1244-.4742q1.1583 0 2.1612-.7307 1.0028-.7386 1.7103-1.8969.7074-1.1661 1.0806-2.441.3809-1.2828.3809-2.3867 0-.8629-.2954-1.5781-.2954-.723-.9096-1.1583-.6141-.4432-1.4693-.4432-.8396 0-1.6325.4043-.793.4042-1.4382 1.0728-.6608.6764-1.174 1.6792-.513.995-.7773 2.099-.2643 1.0961-.2643 2.0679 0 1.3527.6608 2.3322.6685.9795 1.9668.9795z" aria-label="O"/><path d="M157.2608 101.5623q0 .9562.3654 1.687.3731.723 1.0728 1.135.7074.4042 1.6637.4042 1.0028 0 1.928-.513.9328-.5132 1.5858-1.3683.6608-.863.9018-1.827.0311-.0932.1244-.0932h.1943q.0622 0 .1011.0466.0389.039.0389.0933 0 .0156-.0156.0467-.272 1.1039-1.0572 2.0756-.7775.964-1.8658 1.5315-1.0884.5675-2.239.5675-1.2438 0-2.231-.5597-.9874-.5597-1.5393-1.5548-.5442-.995-.5442-2.2467 0-1.3371.5986-2.6432.5986-1.3138 1.6092-2.3322 1.0106-1.0261 2.3011-1.6325 1.2983-.6064 2.6276-.6064.5287 0 1.0107.1633.482.1554.894.482.412.3265.6763.754l1.2594-1.3682q0-.0311.0777-.0311h.0933q.0622 0 .1011.0544t.0389.1089l-1.0806 4.299q0 .1088-.1244.1088h-.2876q-.1244 0-.1244-.1788.0622-.3498.0622-.8396 0-.7774-.2644-1.4615-.2643-.6919-.824-1.1117-.552-.4198-1.3527-.4198-1.2982 0-2.3788.653t-1.8347 1.7181q-.7463 1.0573-1.1583 2.3555-.4043 1.2905-.4043 2.5033z" aria-label="C"/><path d="M160.2133 15.4697q-.1555 0-.1555-.2099.0078-.0388.0311-.1321.0233-.101.0622-.1555.0466-.0622.1088-.0622.9718 0 1.3527-.1088.21-.07.3032-.4276l2.1845-8.7458q.0311-.1555.0311-.2177 0-.171-.1943-.1943-.2955-.0622-1.1428-.0622-.1555 0-.1555-.2099.0078-.0389.031-.1322.0234-.101.0623-.1554.0466-.0622.1088-.0622h8.6292q.1632 0 .1632.2099L171.2524 8.1q0 .0388-.0622.0932-.0544.0467-.101.0467h-.14q-.1632 0-.1632-.2021.0933-.7774.0933-1.1506 0-.6375-.2177-.9873-.2177-.3576-.583-.513-.3577-.1556-.8008-.1944-.4353-.0389-1.1505-.0389h-1.8114q-.4353 0-.5753.0777-.1399.07-.2565.4665l-.9562 3.8481h1.2438q.8085 0 1.2205-.1088.412-.1166.653-.4742.241-.3576.4354-1.135.0156-.0545.0544-.0933.0467-.0467.101-.0467h.1478q.1555 0 .1555.2022l-.9873 3.9336q-.0311.14-.1555.14h-.1477q-.1555 0-.1555-.2022.1555-.6374.1555-.9406 0-.4665-.4198-.5909-.4198-.1243-1.1195-.1243h-1.3216l-1.0805 4.33q-.07.1944-.07.35 0 .1243.5442.1243h1.928q1.1505 0 1.8657-.1788.7152-.1788 1.1817-.5675.4742-.3965.8162-1.0028.342-.6064.8318-1.7648.0311-.101.14-.101h.1477q.0622 0 .1088.0544.0467.0544.0467.1244 0 .031-.0156.0622l-1.6403 3.8403q-.0311.0933-.1244.0933z" aria-label="E"/><path d="M71.3056 58.6248q-.1555 0-.1555-.21.0622-.3497.2021-.3497.6452 0 1.1117-.2566.4742-.2565.8163-.793l.031-.031 5.6829-9.5854q.1244-.171.3032-.171h.2099q.0466 0 .0932.0233.0467.0155.0778.0622.0389.0388.0389.0855l.964 10.285q0 .07.0699.21.1555.171 1.1894.171.1633 0 .1633.2099-.0544.2099-.0933.2798-.0311.07-.1788.07h-3.9803q-.1477 0-.1477-.21.0855-.3497.2099-.3497 1.2594 0 1.3371-.4276l-.241-2.6276h-3.9259l-1.275 2.1378q-.1165.171-.1165.3965 0 .2799.2643.4042.272.1167.5986.1167.1555 0 .1555.2099-.0544.2254-.0855.2876-.0311.0622-.1788.0622zm4.089-4.1747h3.5528l-.4742-5.1542z" aria-label="A"/><g><path d="M.6128 104.9984q-.1555 0-.1555-.2099.0078-.0389.0311-.1322.0233-.101.0622-.1554.0467-.0622.1089-.0622.9717 0 1.3526-.1089.21-.07.3032-.4275l2.1845-8.7458q.0311-.1555.0311-.2177 0-.171-.1943-.1943-.2954-.0622-1.1428-.0622-.1555 0-.1555-.21.0078-.0388.0311-.132.0233-.1012.0622-.1556.0466-.0622.1088-.0622h8.4115q.1555 0 .1555.21l-.381 3.2961q0 .0467-.0543.0933-.0545.0467-.1089.0467h-.1399q-.1633 0-.1633-.2022.1011-.723.1011-1.1816 0-.793-.342-1.1661-.3421-.3732-.863-.451-.5208-.0854-1.4382-.0854H6.7154q-.4353 0-.5753.0777-.1399.07-.2565.4665l-1.0184 4.058h1.1972q.5908 0 .9562-.0622.3654-.0622.6064-.241.241-.1788.3965-.513.1632-.3421.2954-.9019.0466-.1477.1632-.1477h.14q.1632 0 .1632.21l-.9717 3.9336q-.07.14-.1633.14h-.14q-.1554 0-.1554-.21.0389-.1632.0622-.272.0233-.109.0544-.311.0389-.21.0389-.3654 0-.4587-.4043-.583-.4042-.1245-1.0572-.1245h-1.306l-1.034 4.128-.0389.1555q0 .1866.1166.21.412.1088 1.6248.1088.1555 0 .1555.2099-.0545.2254-.0855.2876-.0311.0622-.1866.0622z" aria-label="F"/></g><g><path d="M70.45 151.3704q-.1555 0-.1555-.2099.0078-.0388.0311-.1321t.0622-.1555q.0389-.0622.1166-.0622.451 0 .7852-.0233.3343-.0234.5675-.0855.1866-.07.3032-.4276l2.1767-8.7458q.0311-.1555.0311-.2177 0-.171-.1866-.1943-.3031-.0622-1.1505-.0622-.1555 0-.1555-.21.0078-.0388.0311-.132.0233-.1011.0622-.1556.0466-.0621.1088-.0621h5.7062q.5208 0 1.0261.1321.5131.1244.9407.4043.4353.2798.6841.6996.2566.412.2566.964 0 .5986-.311 1.1117-.3032.513-.793.894-.482.381-1.0495.6297-.5597.241-1.1738.3576.4353 0 .8784.171.451.171.8008.4665.3498.2954.5597.7074.2177.412.2177.8863 0 .9562-.6686 1.7491-.6686.793-1.687 1.2516-1.0106.451-1.959.451zm2.9308-.684q0 .1243.5442.1243h2.2778q.7774 0 1.4926-.4276.7152-.4353 1.1428-1.1505.4353-.7152.4353-1.4926 0-.4743-.202-.894-.1944-.4276-.5676-.6686-.3732-.2488-.8551-.2488h-3.1019l-1.1039 4.4079q-.0622.2177-.0622.3498zm1.275-5.1776h2.4177q.7618 0 1.477-.3887.723-.3887 1.174-1.0573.4586-.6685.4586-1.4148 0-.692-.4354-1.1428-.4275-.451-1.1116-.451h-2.1845q-.4276 0-.5753.0778-.1477.0778-.2488.4665z" aria-label="B"/></g><g><path d="M160.2444 194.5255q-.1555 0-.1555-.21.0078-.0388.0311-.132.0233-.1011.0622-.1556.0466-.0622.1088-.0622.9718 0 1.3605-.1088.2021-.07.2954-.4276l2.1845-8.7458q.0311-.1554.0311-.2176 0-.171-.1866-.1944-.3032-.0622-1.1505-.0622-.1555 0-.1555-.2099.0078-.0388.031-.1321.0234-.101.0623-.1555.0466-.0622.1088-.0622h5.7217q1.1117 0 1.9435.5442.8318.5364 1.275 1.4537.443.9096.443 2.0135 0 1.2205-.5052 2.441-.5054 1.2206-1.415 2.2312-.9095 1.0106-2.0756 1.6014-1.166.5909-2.3944.5909zm2.9774-.6841q0 .1243.5442.1243h1.8502q.8863 0 1.7103-.3653.824-.3654 1.4693-1.0029.5986-.5986 1.0573-1.5703.4587-.9718.7074-2.029.2566-1.0573.2566-1.9436 0-.6452-.1944-1.166-.1866-.521-.5364-.894-.342-.3732-.863-.5754-.5208-.2099-1.1738-.2099h-1.7491q-.4354 0-.5753.0778-.14.07-.2566.4664l-2.1767 8.738q-.07.1944-.07.3499z" aria-label="D"/></g><g><path d="M153.843 178.0223l-4.5304-78.4638 4.5304-78.4638L88.1567 64.25 17.94 99.5585l70.2167 35.3084z" style="fill:none;stroke:#000;stroke-width:.3985;stroke-linecap:butt;stroke-linejoin:miter;stroke-miterlimit:10;stroke-dasharray:2.98883,2.98883;stroke-dashoffset:0;stroke-opacity:1"/></g><path d="M199.144 99.5585c0-50.0388-40.5633-90.602-90.602-90.602-50.0387 0-90.602 40.5632-90.602 90.602 0 50.0387 40.5633 90.602 90.602 90.602 50.0387 0 90.602-40.5633 90.602-90.602zM88.1567 64.25v70.6168l61.1559-35.3084z" style="fill:none;stroke:#000;stroke-width:.3985;stroke-linecap:butt;stroke-linejoin:miter;stroke-miterlimit:10;stroke-dasharray:none;stroke-opacity:1"/><path d="M110.1341 99.5585c0-.8793-.7128-1.5922-1.5921-1.5922-.8793 0-1.5922.7129-1.5922 1.5922 0 .8793.7129 1.5921 1.5922 1.5921.8793 0 1.5921-.7128 1.5921-1.5921z" style="fill:#000;fill-opacity:1;fill-rule:nonzero;stroke:#000;stroke-width:.3985;stroke-linecap:butt;stroke-linejoin:miter;stroke-miterlimit:10;stroke-dasharray:none;stroke-opacity:1"/><g><text transform="matrix(1.33333 0 0 1.33333 404.1773 936.8467)" style="font-variant:normal;font-weight:400;font-size:9.9626px;font-family:CMR10;-inkscape-font-specification:CMR10;writing-mode:lr-tb;fill:#000;fill-opacity:1;fill-rule:nonzero;stroke:none"><tspan x="0" y="0">1</tspan></text></g></svg>