<?xml version="1.0" encoding="UTF-8"?>
<svg width="189.15pt" height="161.47pt" version="1.2" viewBox="0 0 189.15 161.47" xmlns="http://www.w3.org/2000/svg" xmlns:xlink="http://www.w3.org/1999/xlink"><defs><symbol id="f" overflow="visible"><path d="m3.5-3.1719c0.0625-0.26562 0.3125-1.2344 1.0469-1.2344 0.046875 0 0.29688 0 0.53125 0.125-0.29688 0.0625-0.51562 0.32812-0.51562 0.57812 0 0.17188 0.125 0.35938 0.40625 0.35938 0.23438 0 0.5625-0.1875 0.5625-0.60938 0-0.54688-0.625-0.6875-0.96875-0.6875-0.60938 0-0.98438 0.5625-1.1094 0.79688-0.26562-0.6875-0.82812-0.79688-1.125-0.79688-1.0938 0-1.7031 1.3594-1.7031 1.6094 0 0.10938 0.10938 0.10938 0.125 0.10938 0.09375 0 0.125-0.015625 0.14062-0.10938 0.35938-1.1094 1.0469-1.375 1.4062-1.375 0.20312 0 0.5625 0.09375 0.5625 0.70312 0 0.32812-0.17188 1.0312-0.5625 2.5-0.17188 0.64062-0.53125 1.0938-1 1.0938-0.0625 0-0.29688 0-0.51562-0.14062 0.26562-0.046875 0.48438-0.28125 0.48438-0.5625 0-0.29688-0.21875-0.375-0.39062-0.375-0.3125 0-0.57812 0.28125-0.57812 0.60938 0 0.48438 0.53125 0.6875 1 0.6875 0.6875 0 1.0625-0.73438 1.0938-0.79688 0.125 0.39062 0.5 0.79688 1.1406 0.79688 1.0781 0 1.6719-1.3438 1.6719-1.6094 0-0.10938-0.09375-0.10938-0.125-0.10938-0.09375 0-0.10938 0.046875-0.125 0.125-0.35938 1.1094-1.0625 1.375-1.4062 1.375-0.40625 0-0.57812-0.34375-0.57812-0.70312 0-0.23438 0.0625-0.45312 0.1875-0.92188z"/></symbol><symbol id="e" overflow="visible"><path d="m5.1094-4c0.03125-0.14062 0.03125-0.17188 0.03125-0.23438 0-0.20312-0.14062-0.29688-0.29688-0.29688-0.10938 0-0.28125 0.0625-0.375 0.21875-0.015625 0.0625-0.09375 0.39062-0.14062 0.57812-0.078125 0.26562-0.15625 0.54688-0.21875 0.84375l-0.46875 1.875c-0.046875 0.17188-0.48438 0.90625-1.1875 0.90625-0.53125 0-0.64062-0.46875-0.64062-0.85938 0-0.48438 0.17188-1.125 0.53125-2.0625 0.17188-0.42188 0.20312-0.53125 0.20312-0.75 0-0.46875-0.32812-0.85938-0.85938-0.85938-1 0-1.3906 1.5156-1.3906 1.6094 0 0.10938 0.10938 0.10938 0.14062 0.10938 0.09375 0 0.10938-0.015625 0.15625-0.1875 0.28125-0.98438 0.70312-1.2969 1.0625-1.2969 0.09375 0 0.26562 0 0.26562 0.32812 0 0.26562-0.10938 0.54688-0.17188 0.73438-0.42188 1.125-0.60938 1.7188-0.60938 2.2031 0 0.9375 0.65625 1.25 1.2812 1.25 0.40625 0 0.76562-0.17188 1.0469-0.46875-0.125 0.54688-0.25 1.0625-0.67188 1.625-0.28125 0.34375-0.67188 0.65625-1.1562 0.65625-0.15625 0-0.625-0.03125-0.79688-0.4375 0.17188 0 0.29688 0 0.45312-0.125 0.09375-0.09375 0.20312-0.23438 0.20312-0.4375 0-0.32812-0.28125-0.35938-0.39062-0.35938-0.23438 0-0.57812 0.15625-0.57812 0.67188 0 0.53125 0.45312 0.92188 1.1094 0.92188 1.0781 0 2.1562-0.95312 2.4531-2.1406z"/></symbol><symbol id="b" overflow="visible"><path d="m3.9219-3.9688c-0.1875-0.39062-0.5-0.67188-0.96875-0.67188-1.2344 0-2.5312 1.5469-2.5312 3.0781 0 0.98438 0.57812 1.6719 1.3906 1.6719 0.21875 0 0.73438-0.03125 1.375-0.78125 0.078125 0.4375 0.45312 0.78125 0.95312 0.78125 0.35938 0 0.60938-0.23438 0.76562-0.57812 0.1875-0.375 0.32812-1.0156 0.32812-1.0312 0-0.10938-0.09375-0.10938-0.125-0.10938-0.10938 0-0.125 0.046875-0.15625 0.1875-0.17188 0.6875-0.35938 1.3125-0.79688 1.3125-0.28125 0-0.3125-0.28125-0.3125-0.48438 0-0.23438 0.015625-0.3125 0.14062-0.78125 0.10938-0.4375 0.125-0.54688 0.21875-0.95312l0.39062-1.4688c0.0625-0.28125 0.0625-0.3125 0.0625-0.34375 0-0.1875-0.125-0.29688-0.29688-0.29688-0.25 0-0.40625 0.23438-0.4375 0.46875zm-0.6875 2.7188c-0.046875 0.1875-0.046875 0.20312-0.20312 0.39062-0.46875 0.57812-0.90625 0.75-1.1875 0.75-0.53125 0-0.67188-0.57812-0.67188-1 0-0.51562 0.32812-1.8125 0.57812-2.2969 0.3125-0.60938 0.79688-1 1.2188-1 0.67188 0 0.82812 0.85938 0.82812 0.92188s-0.03125 0.125-0.03125 0.17188z"/></symbol><symbol id="a" overflow="visible"><path d="m2.5156-7.1719c0-0.015625 0-0.10938-0.14062-0.10938-0.25 0-1.0156 0.078125-1.2812 0.09375-0.078125 0.015625-0.20312 0.03125-0.20312 0.21875 0 0.125 0.09375 0.125 0.25 0.125 0.51562 0 0.53125 0.078125 0.53125 0.17188 0 0.078125-0.09375 0.4375-0.15625 0.65625l-0.85938 3.4219c-0.125 0.53125-0.15625 0.6875-0.15625 1.0625 0 1 0.54688 1.6406 1.3281 1.6406 1.2344 0 2.5312-1.5625 2.5312-3.0781 0-0.95312-0.5625-1.6719-1.3906-1.6719-0.48438 0-0.92188 0.29688-1.2344 0.625zm-1 3.9688c0.0625-0.23438 0.0625-0.25 0.17188-0.35938 0.5-0.6875 0.98438-0.84375 1.25-0.84375 0.375 0 0.65625 0.3125 0.65625 0.98438 0 0.625-0.34375 1.8281-0.53125 2.2188-0.34375 0.70312-0.82812 1.0938-1.2344 1.0938-0.35938 0-0.70312-0.29688-0.70312-1.0625 0-0.20312 0-0.40625 0.17188-1.0625z"/></symbol><symbol id="d" overflow="visible"><path d="m7.7656-4.5781c0-1.6875-1.1094-2.8281-2.6719-2.8281-2.2656 0-4.5781 2.3906-4.5781 4.8281 0 1.75 1.1719 2.8125 2.6875 2.8125 2.2188 0 4.5625-2.2969 4.5625-4.8125zm-4.5 4.5312c-1.0469 0-1.7812-0.84375-1.7812-2.2344 0-0.45312 0.15625-2 0.96875-3.2188 0.71875-1.0938 1.75-1.6406 2.5781-1.6406 0.85938 0 1.7969 0.59375 1.7969 2.1562 0 0.75-0.28125 2.3906-1.3125 3.6875-0.5 0.64062-1.375 1.25-2.25 1.25z"/></symbol><symbol id="c" overflow="visible"><path d="m4.0781 8.9844-1.8438-4.0938c-0.078125-0.17188-0.125-0.17188-0.15625-0.17188-0.015625 0-0.0625 0-0.17188 0.09375l-1 0.75c-0.14062 0.10938-0.14062 0.14062-0.14062 0.17188 0 0.046875 0.03125 0.10938 0.10938 0.10938 0.0625 0 0.23438-0.14062 0.35938-0.21875 0.0625-0.0625 0.21875-0.17188 0.32812-0.26562l2.0781 4.5469c0.0625 0.17188 0.125 0.17188 0.21875 0.17188 0.15625 0 0.1875-0.0625 0.25-0.20312l4.7812-9.875c0.0625-0.14062 0.0625-0.1875 0.0625-0.20312 0-0.10938-0.078125-0.21875-0.20312-0.21875-0.09375 0-0.15625 0.046875-0.25 0.21875z"/></symbol></defs><path transform="matrix(1 0 0 -1 31.38 137.18)" d="m-28.349 0.0012188h168.09" fill="none" stroke="#000" stroke-miterlimit="10" stroke-width=".3985"/><path d="m173.11 137.18-3.1875-1.5938 1.1953 1.5938-1.1953 1.5938"/><g><use x="176.813" y="139.437" xlink:href="#f"/></g><path transform="matrix(1 0 0 -1 31.38 137.18)" d="m-0.0010938-21.26v146.83" fill="none" stroke="#000" stroke-miterlimit="10" stroke-width=".3985"/><path d="m31.379 9.6172-1.5938 3.1875 1.5938-1.1953 1.5938 1.1953"/><g><use x="22.156" y="10.856" xlink:href="#e"/><use x="56.952" y="145.397" xlink:href="#b"/><use x="142.514" y="148.168" xlink:href="#a"/><use x="78.67" y="141.715" xlink:href="#c"/></g><path transform="matrix(1,0,0,-1,119.29,86.01)" d="m-31.868-55.494h10.055" fill="none" stroke="#000" stroke-miterlimit="10" stroke-width=".42"/><g><use x="87.42" y="151.185" xlink:href="#b"/><use x="92.964" y="151.185" xlink:href="#a"/><use x="22.215" y="146.634" xlink:href="#d"/></g><path d="m59.727 137.18v-85.039l3.543 9.4453 3.543 7.5547 3.543 6.1914 3.543 5.1523 3.5469 4.3633 3.543 3.7383 3.543 3.2422 3.543 2.832 3.543 2.5 3.543 2.2227 3.543 1.9922 3.543 1.7891 3.543 1.625 3.543 1.4688 3.5469 1.3477 3.543 1.2266 3.543 1.1367 3.543 1.0508 3.543 0.96875 3.543 0.89844 3.543 0.83594 3.543 0.78125 3.543 0.73047 3.543 0.6875v21.258z" fill-opacity=".3"/><path transform="matrix(1 0 0 -1 31.38 137.18)" d="m28.347 0.0012188v85.039l28.348-42.52 56.691-21.262v-21.258z" fill-opacity=".2" stroke="#000" stroke-miterlimit="10" stroke-width=".3985"/><path transform="matrix(1 0 0 -1 31.38 137.18)" d="m19.843 121.49 4.8438-23.84 4.8398-16.004 4.8438-11.508 4.8398-8.6641 4.8438-6.7578 4.8398-5.418 4.8438-4.4414 4.8398-3.7109 4.8438-3.1367 4.8398-2.6992 4.8438-2.3398 4.8398-2.0508 4.8438-1.8086 4.8398-1.6094 4.8438-1.4375 4.8398-1.3008 4.8438-1.1719 4.8398-1.0664 4.8438-0.97656 4.8398-0.89453 4.8438-0.82422 4.8398-0.75781 4.8438-0.70312 4.8398-0.65234" fill="none" stroke="#000" stroke-miterlimit="10" stroke-width=".79701"/><path transform="matrix(1 0 0 -1 31.38 137.18)" d="m28.347 0.0012188v85.039" fill="none" stroke="#000" stroke-miterlimit="10" stroke-width=".79701"/><path transform="matrix(1 0 0 -1 31.38 137.18)" d="m56.694 0.0012188v42.52" fill="none" stroke="#000" stroke-miterlimit="10" stroke-width=".3985"/><path transform="matrix(1 0 0 -1 31.38 137.18)" d="m113.39 0.0012188v21.258" fill="none" stroke="#000" stroke-miterlimit="10" stroke-width=".79701"/></svg>
