<svg xmlns="http://www.w3.org/2000/svg" width="238" height="242"><defs><clipPath id="a"><path fill="none" d="M0 0h238v242H0V0z"/></clipPath></defs><g clip-path="url(#a)"><path fill="#FFF" d="M0 0h238v242H0z"/><path fill="none" stroke="#000" paint-order="fill stroke markers" d="M101.5 2.5v240M101.5 1.5l-4 4M101.5 1.5l4 4M.5 131.5h236M237.5 131.5l-4-4M237.5 131.5l-4 4M3.5 131.5v3M101.5 131.5v3M199.5 131.5v3M98.5 229.5h3M98.5 32.5h3" stroke-miterlimit="10"/><path fill="#2E7D32" paint-order="stroke fill markers" d="M121.8 131.1a20 20 0 00-12-18.3l-8 18.3z" fill-opacity=".1"/><path fill="none" stroke="#2E7D32" paint-order="fill stroke markers" d="M121.8 131.1a20 20 0 00-12-18.3l-8 18.3z" stroke-opacity=".6" stroke-linecap="round" stroke-linejoin="round" stroke-miterlimit="10" stroke-width="2.5"/><path fill="#2E7D32" paint-order="stroke fill markers" fill-rule="evenodd" d="M109.9 112.8L123 120l-6.9 6.5z" fill-opacity=".6"/><path fill="#2E7D32" paint-order="stroke fill markers" d="M134.6 108.7q0 2.9-1.4 5.9-1.4 2.6-3 3.5-.6.3-1.1.3-1.6 0-2.1-2.1-.2-.8-.2-1.8 0-3 1.5-6 1.3-2.6 3-3.4.5-.3 1-.3 1.7 0 2.2 2.4l.1 1.5m-5.8 2.6h4q.6-2.5.6-3.8 0-2.1-.9-2.3h-.2q-1 0-2 2-.7 1.3-1.5 4m3.8.7h-4q-.5 2.3-.5 3.8 0 2.2 1 2.3 1 0 2.2-2.2.7-1.5 1.3-3.9z"/><path fill="none" stroke="#D32F2F" paint-order="fill stroke markers" d="M101.8 131.1L135 55.8" stroke-opacity=".7" stroke-linecap="round" stroke-linejoin="round" stroke-miterlimit="10" stroke-width="2.5"/><path fill="#D32F2F" paint-order="stroke fill markers" d="M104.6 95.5l1.9-7.5q.5-2 2-3.3 1.2-1 2.4-1 1.4 0 2.1 1.2.5.8.5 2 0 2-1.4 3.8-1.4 1.5-3 1.7h-.2q-1.3 0-2-1.3l-1.1 4.8q-.3.4-.7.4-.4 0-.5-.4v-.1-.3m4.2-3.5q1 0 1.9-1.2l.4-.6q.6-1.2 1-3.1v-1q0-1.6-.9-1.9h-.3q-1 0-2 1.2l-.4.6q-.4.8-1 3l-.1.6-.2.7q0 .4.4 1 .4.7 1.2.7z"/><path fill="#1565C0" paint-order="stroke fill markers" d="M106.8 131.1a5 5 0 11-10 0 5 5 0 0110 0z"/><path fill="none" stroke="#000" paint-order="fill stroke markers" d="M106.8 131.1a5 5 0 11-10 0 5 5 0 0110 0z" stroke-linecap="round" stroke-linejoin="round" stroke-miterlimit="10"/><path fill="#1565C0" paint-order="stroke fill markers" d="M122 143.7q0 3-2 5.4-2 2.3-4.4 3-1 .3-1.8.3-2.4 0-3.7-1.7-1.2-1.3-1.2-3.4 0-2.8 2-5.4 2-2.3 4.5-3 .9-.3 1.8-.3 2.4 0 3.8 1.7 1 1.4 1 3.4m-8 8.2q1.7 0 3.3-1.6l.7-.7q1.8-2.3 2.3-5.5V143q0-2.7-1.7-3.6-.7-.3-1.5-.3-1.8 0-3.5 1.5l-1.2 1.4q-1.4 2.2-1.7 5.2v.7q0 2.4 1.5 3.5.7.5 1.7.5zM140 55.8a5 5 0 11-10 0 5 5 0 0110 0z"/><path fill="none" stroke="#000" paint-order="fill stroke markers" d="M140 55.8a5 5 0 11-10 0 5 5 0 0110 0z" stroke-linecap="round" stroke-linejoin="round" stroke-miterlimit="10"/><path fill="#1565C0" paint-order="stroke fill markers" d="M147.6 30.7L145 41l-.1.4q0 .3.9.4h.3q.5 0 .5.2 0 .3-.3.3H141.7q-.3 0-.3-.2 0-.3.3-.3h.2q1.2 0 1.5-.3l.2-.5v-.1l2.7-11-7.7 12.1-.4.4q-.2 0-.3-.5L136.3 30l-2.6 10.4v.4q0 .7.8.8h.4q.4 0 .4.3 0 .4-.4.4l-1.9-.1h-2q-.2 0-.2-.2 0-.3.3-.3 1.5-.1 2-1v-.5l2.5-9.6v-.4q0-.2-.2-.3h-1q-.4 0-.5-.2 0-.4.3-.4h3.4v.4l1.5 10.8 7-10.9q.2-.3.4-.3h2.8q.5 0 .5.2 0 .3-.2.3h-.4q-1.2 0-1.4.4l-.2.5zM156.8 46.8q0 .2-.2.2t-1-.8q-1.2-1.2-2-2.8-1.2-2.6-1.2-5.9 0-3.2 1.2-5.8 1-2.1 2.5-3.4l.5-.3q.2 0 .2.2l-.3.3q-3 3.1-3 9t3 8.9l.3.4zM164.2 36.5l-.6 2.6-.3 1.7q0 1 .7 1.2h.3q1 0 1.7-1 .6-.5.8-1.4.1-.3.3-.3.2 0 .2.2 0 .5-.6 1.4-1 1.6-2.4 1.6-1.3 0-1.9-1.1l-.2-.4q-.4 1-1.2 1.3l-.8.2q-1.1 0-1.6-.7l-.2-.6q0-.7.7-1l.4-.1q.6 0 .7.5v.2q0 .6-.7 1h-.2q.4.2 1 .2 1 0 1.5-1.3l.3-.6q1-4 1-4.6-.1-1.1-1-1.2-1 0-1.9 1l-.5.9-.2.4v.2q0 .2-.2.2-.3 0-.3-.2 0-.5.6-1.4 1-1.5 2.5-1.5t2 1.4q.7-1.2 1.7-1.4h.3q1.2 0 1.6.6.2.2.2.6 0 .8-.7 1l-.3.1q-.6 0-.7-.5v-.2q0-.5.5-.8l.4-.2q-.4-.2-1-.2-1.3 0-1.8 2v.2zM172.6 42.2q0 1.9-1.2 3.3l-.5.4q-.2 0-.2-.2l.2-.3q1.1-1.1 1.3-2.8v-.4-.3l-.1.1q-.3.3-.7.3-.7 0-1-.7v-.4q0-.6.6-.9h.4q.8 0 1.1 1l.1 1zM186.4 35l-1.8 7.3q-.4 1.8-2 3-1.2.8-2.4.8-1.3 0-1.8-.8l-.2-.8q0-1 .7-1.2h.3q.6 0 .7.5v.1q0 .5-.4.8-.2.2-.8.2.4.8 1.5.8 1.2 0 2-1.2.8-1 1.2-2.6l.1-.3q-.9.9-2 .9-1.4 0-2-1.2-.2-.5-.2-1.1 0-1 1-3.7v-.3q.4-.9.4-1.3 0-.6-.5-.6-1 0-1.7 1.7l-.2.6-.3.4q-.2 0-.2-.2 0-.4.4-1.2.8-1.7 2-1.7 1 0 1.5.8l.1.7q0 .4-.4 1.4-1 2.5-1 3.7 0 1.5 1.3 1.5 1 0 1.9-1.1l.2-.5.9-3.4q0-.6.3-1.5l.3-1q.2-.4.7-.4.4 0 .5.5v.4zM192.7 37.5q0 3.2-1.2 5.8-1 2.1-2.5 3.4l-.5.3q-.2 0-.2-.2l.2-.3q3-3.1 3-9 0-5.8-2.8-8.8l-.4-.5q0-.2.2-.2t1 .8q1.2 1.2 2 2.8 1.2 2.6 1.2 5.9z"/><g><path paint-order="stroke fill markers" d="M228.3 144.5l-.6 2.6-.3 1.6q0 1 .7 1.2h.3q1 0 1.8-.9.5-.6.7-1.5.1-.2.3-.2.2 0 .2.2 0 .4-.6 1.3-1 1.6-2.4 1.6-1.3 0-1.9-1l-.2-.4q-.4.9-1.2 1.2l-.8.2q-1.1 0-1.6-.7l-.1-.6q0-.7.6-1h.4q.6 0 .7.4v.2q0 .7-.6 1h-.3q.4.3 1 .3 1 0 1.6-1.4l.2-.6q1-3.9 1-4.5-.1-1.2-1-1.3-1 0-1.8 1l-.6 1-.1.4v.1q-.1.2-.3.2-.3 0-.3-.2 0-.5.6-1.4 1-1.5 2.5-1.5t2 1.4q.7-1.1 1.7-1.4h.3q1.2 0 1.6.6l.2.6q0 .8-.7 1l-.3.1q-.6 0-.7-.5v-.1q0-.6.5-1h.4q-.4-.3-1-.3-1.3 0-1.8 2v.3z"/></g></g></svg>