<svg version="1.1" xmlns="http://www.w3.org/2000/svg" xmlns:xlink="http://www.w3.org/1999/xlink" width="558" height="350"><defs><clipPath id="ElzHdERXfchF"><path fill="none" stroke="none" d=" M 0 0 L 558 0 L 558 350 L 0 350 L 0 0 Z"/></clipPath></defs><g transform="scale(1,1)" clip-path="url(#ElzHdERXfchF)"><g><rect fill="rgb(255,255,255)" stroke="none" x="0" y="0" width="558" height="350" fill-opacity="1"/><path fill="none" stroke="rgb(0,0,0)" paint-order="fill stroke markers" d=" M 257.5 2.5 L 257.5 350.5" stroke-opacity="1" stroke-miterlimit="10"/><path fill="none" stroke="rgb(0,0,0)" paint-order="fill stroke markers" d=" M 257.5 1.5 L 253.5 5.5" stroke-opacity="1" stroke-miterlimit="10"/><path fill="none" stroke="rgb(0,0,0)" paint-order="fill stroke markers" d=" M 257.5 1.5 L 261.5 5.5" stroke-opacity="1" stroke-miterlimit="10"/><text fill="rgb(0,0,0)" stroke="none" font-family="geogebra-sans-serif, sans-serif" font-size="16px" font-style="normal" font-weight="normal" text-decoration="normal" x="540" y="183" text-anchor="start" dominant-baseline="alphabetic" fill-opacity="1">x</text><path fill="none" stroke="rgb(0,0,0)" paint-order="fill stroke markers" d=" M 0.5 187.5 L 556.5 187.5" stroke-opacity="1" stroke-miterlimit="10"/><path fill="none" stroke="rgb(0,0,0)" paint-order="fill stroke markers" d=" M 557.5 187.5 L 553.5 183.5" stroke-opacity="1" stroke-miterlimit="10"/><path fill="none" stroke="rgb(0,0,0)" paint-order="fill stroke markers" d=" M 557.5 187.5 L 553.5 191.5" stroke-opacity="1" stroke-miterlimit="10"/><text fill="rgb(0,0,0)" stroke="none" font-family="geogebra-sans-serif, sans-serif" font-size="16px" font-style="normal" font-weight="normal" text-decoration="normal" x="262" y="17" text-anchor="start" dominant-baseline="alphabetic" fill-opacity="1">y</text><path fill="none" stroke="rgb(0,0,0)" paint-order="fill stroke markers" d=" M -193.73783050385572 435.2404168581244 L -166.1381874183091 416.83088826885023 L -141.627702902642 400.2409453352444 L -119.75097157899239 385.19386621196224 L -100.13953936316415 371.46532685891987 L -82.49219844815065 358.871498516141 L -66.5604162501516 347.2602440649657 L -52.13740340018927 336.50451073047134 L -39.049803545117754 326.49730495395096 L -27.151300290140455 317.1478239578447 L -16.317645139769297 308.37844440628857 L -6.442751884881488 300.12235403557355 L 2.564399408283606 292.3216711065572 L 10.782237215873153 284.92593783534954 L 18.27859199484169 277.89090328337875 L 25.112313108320393 271.1775322721257 L 31.334588672190563 264.75119222534096 L 36.990029044311825 258.5809811203115 L 42.11756076566954 252.63916810762353 L 46.75116731801617 246.90072464024348 L 50.92050514801974 241.34292870296306 L 54.65141735700416 235.9450283540751 L 57.96636278912305 230.6879535709388 L 60.88477462160131 225.55406753883568 L 63.423359713698005 220.52695019095518 L 65.59634771772497 215.59120810900393 L 67.41569715494441 210.73230591227025 L 68.89126420517647 205.93641506023886 L 70.03093877042903 201.1902766166495 L 70.84075138724316 196.48107500616084 L 71.32495373071777 191.7963201646341 L 71.48607473622693 187.12373575982755 L 71.32495373071777 182.451151355021 L 70.84075138724316 177.76639651349427 L 70.03093877042903 173.0571949030056 L 68.89126420517647 168.31105645941625 L 67.41569715494441 163.51516560738486 L 65.59634771772497 158.65626341065118 L 63.423359713698005 153.72052132869993 L 60.88477462160131 148.69340398081943 L 57.96636278912305 143.55951794871632 L 54.65141735700416 138.30244316558 L 50.92050514801974 132.90454281669204 L 46.75116731801617 127.34674687941163 L 42.11756076566954 121.60830341203157 L 36.990029044311825 115.66649039934363 L 31.334588672190563 109.49627929431415 L 25.112313108320393 103.06993924752943 L 18.27859199484169 96.35656823627636 L 10.782237215873153 89.32153368430555 L 2.564399408283606 81.92580041309793 L -6.442751884881488 74.12511748408157 L -16.317645139769297 65.86902711336653 L -27.151300290140455 57.0996475618104 L -39.049803545117754 47.75016656570415 L -52.13740340018927 37.74296078918374 L -66.5604162501516 26.987227454689418 L -82.49219844815065 15.375973003514105 L -100.13953936316415 2.7821446607352414 L -119.75097157899239 -10.94639469230711 L -141.627702902642 -25.993473815589283 L -166.1381874183091 -42.583416749195095 L -193.73783050385572 -60.99294533846927" stroke-opacity="0.6980392156862745" stroke-linecap="round" stroke-linejoin="round" stroke-miterlimit="10" stroke-width="2.5"/><path fill="none" stroke="rgb(0,0,0)" paint-order="fill stroke markers" d=" M 708.347566100771 435.2404168581244 L 680.7479230152244 416.83088826885023 L 656.2374384995574 400.2409453352444 L 634.3607071759077 385.19386621196224 L 614.7492749600794 371.46532685891987 L 597.101934045066 358.871498516141 L 581.170151847067 347.2602440649657 L 566.7471389971047 336.50451073047134 L 553.659539142033 326.49730495395096 L 541.7610358870559 317.1478239578447 L 530.9273807366847 308.37844440628857 L 521.0524874817968 300.12235403557355 L 512.0453361886317 292.3216711065572 L 503.82749838104223 284.92593783534954 L 496.33114360207367 277.89090328337875 L 489.49742248859496 271.1775322721257 L 483.2751469247248 264.75119222534096 L 477.61970655260353 258.5809811203115 L 472.49217483124585 252.63916810762353 L 467.85856827889916 246.90072464024348 L 463.6892304488956 241.34292870296306 L 459.9583182399112 235.9450283540751 L 456.6433728077923 230.6879535709388 L 453.72496097531405 225.55406753883568 L 451.18637588321735 220.52695019095518 L 449.0133878791904 215.59120810900393 L 447.194038441971 210.73230591227025 L 445.7184713917389 205.93641506023886 L 444.5787968264863 201.1902766166495 L 443.7689842096722 196.48107500616084 L 443.2847818661976 191.7963201646341 L 443.12366086068846 187.12373575982755 L 443.2847818661976 182.451151355021 L 443.7689842096722 177.76639651349427 L 444.5787968264863 173.0571949030056 L 445.7184713917389 168.31105645941625 L 447.194038441971 163.51516560738486 L 449.0133878791904 158.65626341065118 L 451.18637588321735 153.72052132869993 L 453.72496097531405 148.69340398081943 L 456.6433728077923 143.55951794871632 L 459.9583182399112 138.30244316558 L 463.6892304488956 132.90454281669204 L 467.85856827889916 127.34674687941163 L 472.49217483124585 121.60830341203157 L 477.61970655260353 115.66649039934363 L 483.2751469247248 109.49627929431415 L 489.49742248859496 103.06993924752943 L 496.33114360207367 96.35656823627636 L 503.82749838104223 89.32153368430555 L 512.0453361886317 81.92580041309793 L 521.0524874817968 74.12511748408157 L 530.9273807366847 65.86902711336653 L 541.7610358870559 57.0996475618104 L 553.659539142033 47.75016656570415 L 566.7471389971047 37.74296078918374 L 581.170151847067 26.987227454689418 L 597.101934045066 15.375973003514105 L 614.7492749600794 2.7821446607352414 L 634.3607071759077 -10.94639469230711 L 656.2374384995574 -25.993473815589283 L 680.7479230152244 -42.583416749195095 L 708.347566100771 -60.99294533846927" stroke-opacity="0.6980392156862745" stroke-linecap="round" stroke-linejoin="round" stroke-miterlimit="10" stroke-width="2.5"/><path fill="rgb(46,125,50)" stroke="none" paint-order="stroke fill markers" d=" M 69.21427482915288 187.12373575982755 C 69.21427482915288 183.0479142068384 68.26606326586412 179.13902769337938 66.5782358598318 176.25698663435446 L 60.214274829152885 187.12373575982755 Z" fill-opacity="0.09803921568627451"/><path fill="none" stroke="rgb(46,125,50)" paint-order="fill stroke markers" d=" M 69.21427482915288 187.12373575982755 C 69.21427482915288 183.0479142068384 68.26606326586412 179.13902769337938 66.5782358598318 176.25698663435446 L 60.214274829152885 187.12373575982755 Z" stroke-opacity="0.6" stroke-linecap="round" stroke-linejoin="round" stroke-miterlimit="10" stroke-width="2.5"/><text fill="rgb(46,125,50)" stroke="none" font-family="geogebra-sans-serif, sans-serif" font-size="16px" font-style="normal" font-weight="normal" text-decoration="normal" x="78" y="183" text-anchor="start" dominant-baseline="alphabetic" fill-opacity="1">α = 45°</text><text fill="none" stroke="rgb(255,255,255)" font-family="geogebra-sans-serif, sans-serif" font-size="16px" font-style="normal" font-weight="normal" text-decoration="normal" x="78" y="183" text-anchor="start" dominant-baseline="alphabetic" stroke-opacity="1" stroke-linejoin="bevel" stroke-miterlimit="10" stroke-width="3">α = 45°</text><text fill="rgb(46,125,50)" stroke="none" font-family="geogebra-sans-serif, sans-serif" font-size="16px" font-style="normal" font-weight="normal" text-decoration="normal" x="78" y="183" text-anchor="start" dominant-baseline="alphabetic" fill-opacity="1">α = 45°</text><path fill="none" stroke="rgb(0,0,0)" paint-order="fill stroke markers" d=" M 60.214274829152885 187.12373575982755 L 69.59954116102455 171.09797221216513" stroke-opacity="0.6980392156862745" stroke-linecap="round" stroke-linejoin="round" stroke-miterlimit="10" stroke-width="2.5"/><path fill="none" stroke="rgb(0,0,0)" paint-order="fill stroke markers" d=" M 454.3954607677625 187.12373575982755 L 520.0923250908643 74.94339092619042" stroke-opacity="0.6980392156862745" stroke-linecap="round" stroke-linejoin="round" stroke-miterlimit="10" stroke-width="2.5"/><path fill="none" stroke="rgb(0,0,0)" paint-order="fill stroke markers" d=" M 454.3954607677625 187.12373575982755 L 60.214274829152885 187.12373575982755" stroke-opacity="0.6980392156862745" stroke-linecap="round" stroke-linejoin="round" stroke-miterlimit="10" stroke-width="2.5"/><path fill="none" stroke="rgb(0,0,0)" paint-order="fill stroke markers" d=" M 69.59954116102455 171.09797221216513 L 520.0923250908643 74.94339092619042" stroke-opacity="0.6980392156862745" stroke-linecap="round" stroke-linejoin="round" stroke-miterlimit="10" stroke-width="2.5"/><path fill="none" stroke="rgb(97,97,97)" paint-order="fill stroke markers" d=" M 454.3954607677625 187.12373575982755 L 445.0101944358908 203.14949930748998" stroke-opacity="0.6980392156862745" stroke-linecap="round" stroke-linejoin="round" stroke-miterlimit="10" stroke-width="2.5"/><path fill="rgb(21,101,192)" stroke="none" paint-order="stroke fill markers" d=" M 65.21427482915288 187.12373575982755 C 65.21427482915288 189.88515950898153 62.97569857830685 192.12373575982755 60.214274829152885 192.12373575982755 C 57.452851079998915 192.12373575982755 55.214274829152885 189.88515950898153 55.214274829152885 187.12373575982755 C 55.214274829152885 184.36231201067358 57.452851079998915 182.12373575982755 60.214274829152885 182.12373575982755 C 62.97569857830685 182.12373575982755 65.21427482915288 184.36231201067358 65.21427482915288 187.12373575982755 Z" fill-opacity="1"/><path fill="none" stroke="rgb(0,0,0)" paint-order="fill stroke markers" d=" M 65.21427482915288 187.12373575982755 C 65.21427482915288 189.88515950898153 62.97569857830685 192.12373575982755 60.214274829152885 192.12373575982755 C 57.452851079998915 192.12373575982755 55.214274829152885 189.88515950898153 55.214274829152885 187.12373575982755 C 55.214274829152885 184.36231201067358 57.452851079998915 182.12373575982755 60.214274829152885 182.12373575982755 C 62.97569857830685 182.12373575982755 65.21427482915288 184.36231201067358 65.21427482915288 187.12373575982755 Z" stroke-opacity="1" stroke-linecap="round" stroke-linejoin="round" stroke-miterlimit="10"/><text fill="rgb(21,101,192)" stroke="none" font-family="geogebra-sans-serif, sans-serif" font-size="16px" font-style="normal" font-weight="normal" text-decoration="normal" x="44" y="182" text-anchor="start" dominant-baseline="alphabetic" fill-opacity="1">A</text><text fill="none" stroke="rgb(255,255,255)" font-family="geogebra-sans-serif, sans-serif" font-size="16px" font-style="normal" font-weight="normal" text-decoration="normal" x="44" y="182" text-anchor="start" dominant-baseline="alphabetic" stroke-opacity="1" stroke-linejoin="bevel" stroke-miterlimit="10" stroke-width="3">A</text><text fill="rgb(21,101,192)" stroke="none" font-family="geogebra-sans-serif, sans-serif" font-size="16px" font-style="normal" font-weight="normal" text-decoration="normal" x="44" y="182" text-anchor="start" dominant-baseline="alphabetic" fill-opacity="1">A</text><path fill="rgb(21,101,192)" stroke="none" paint-order="stroke fill markers" d=" M 459.3954607677625 187.12373575982755 C 459.3954607677625 189.88515950898153 457.1568845169164 192.12373575982755 454.3954607677625 192.12373575982755 C 451.6340370186085 192.12373575982755 449.3954607677625 189.88515950898153 449.3954607677625 187.12373575982755 C 449.3954607677625 184.36231201067358 451.6340370186085 182.12373575982755 454.3954607677625 182.12373575982755 C 457.1568845169164 182.12373575982755 459.3954607677625 184.36231201067358 459.3954607677625 187.12373575982755 Z" fill-opacity="1"/><path fill="none" stroke="rgb(0,0,0)" paint-order="fill stroke markers" d=" M 459.3954607677625 187.12373575982755 C 459.3954607677625 189.88515950898153 457.1568845169164 192.12373575982755 454.3954607677625 192.12373575982755 C 451.6340370186085 192.12373575982755 449.3954607677625 189.88515950898153 449.3954607677625 187.12373575982755 C 449.3954607677625 184.36231201067358 451.6340370186085 182.12373575982755 454.3954607677625 182.12373575982755 C 457.1568845169164 182.12373575982755 459.3954607677625 184.36231201067358 459.3954607677625 187.12373575982755 Z" stroke-opacity="1" stroke-linecap="round" stroke-linejoin="round" stroke-miterlimit="10"/><text fill="rgb(21,101,192)" stroke="none" font-family="geogebra-sans-serif, sans-serif" font-size="16px" font-style="normal" font-weight="normal" text-decoration="normal" x="458" y="205" text-anchor="start" dominant-baseline="alphabetic" fill-opacity="1">D</text><text fill="none" stroke="rgb(255,255,255)" font-family="geogebra-sans-serif, sans-serif" font-size="16px" font-style="normal" font-weight="normal" text-decoration="normal" x="458" y="205" text-anchor="start" dominant-baseline="alphabetic" stroke-opacity="1" stroke-linejoin="bevel" stroke-miterlimit="10" stroke-width="3">D</text><text fill="rgb(21,101,192)" stroke="none" font-family="geogebra-sans-serif, sans-serif" font-size="16px" font-style="normal" font-weight="normal" text-decoration="normal" x="458" y="205" text-anchor="start" dominant-baseline="alphabetic" fill-opacity="1">D</text><path fill="rgb(21,101,192)" stroke="none" paint-order="stroke fill markers" d=" M 73.59954116102455 171.09797221216513 C 73.59954116102455 173.3071112114883 71.80868016034772 175.09797221216513 69.59954116102455 175.09797221216513 C 67.39040216170137 175.09797221216513 65.59954116102455 173.3071112114883 65.59954116102455 171.09797221216513 C 65.59954116102455 168.88883321284194 67.39040216170137 167.09797221216513 69.59954116102455 167.09797221216513 C 71.80868016034772 167.09797221216513 73.59954116102455 168.88883321284194 73.59954116102455 171.09797221216513 Z" fill-opacity="1"/><path fill="none" stroke="rgb(0,0,0)" paint-order="fill stroke markers" d=" M 73.59954116102455 171.09797221216513 C 73.59954116102455 173.3071112114883 71.80868016034772 175.09797221216513 69.59954116102455 175.09797221216513 C 67.39040216170137 175.09797221216513 65.59954116102455 173.3071112114883 65.59954116102455 171.09797221216513 C 65.59954116102455 168.88883321284194 67.39040216170137 167.09797221216513 69.59954116102455 167.09797221216513 C 71.80868016034772 167.09797221216513 73.59954116102455 168.88883321284194 73.59954116102455 171.09797221216513 Z" stroke-opacity="1" stroke-linecap="round" stroke-linejoin="round" stroke-miterlimit="10"/><text fill="rgb(21,101,192)" stroke="none" font-family="geogebra-sans-serif, sans-serif" font-size="16px" font-style="normal" font-weight="normal" text-decoration="normal" x="67" y="158" text-anchor="start" dominant-baseline="alphabetic" fill-opacity="1">B</text><text fill="none" stroke="rgb(255,255,255)" font-family="geogebra-sans-serif, sans-serif" font-size="16px" font-style="normal" font-weight="normal" text-decoration="normal" x="67" y="158" text-anchor="start" dominant-baseline="alphabetic" stroke-opacity="1" stroke-linejoin="bevel" stroke-miterlimit="10" stroke-width="3">B</text><text fill="rgb(21,101,192)" stroke="none" font-family="geogebra-sans-serif, sans-serif" font-size="16px" font-style="normal" font-weight="normal" text-decoration="normal" x="67" y="158" text-anchor="start" dominant-baseline="alphabetic" fill-opacity="1">B</text><path fill="rgb(21,101,192)" stroke="none" paint-order="stroke fill markers" d=" M 524.0923250908643 74.94339092619042 C 524.0923250908643 77.15252992551359 522.3014640901874 78.94339092619042 520.0923250908643 78.94339092619042 C 517.8831860915411 78.94339092619042 516.0923250908643 77.15252992551359 516.0923250908643 74.94339092619042 C 516.0923250908643 72.73425192686724 517.8831860915411 70.94339092619042 520.0923250908643 70.94339092619042 C 522.3014640901874 70.94339092619042 524.0923250908643 72.73425192686724 524.0923250908643 74.94339092619042 Z" fill-opacity="1"/><path fill="none" stroke="rgb(0,0,0)" paint-order="fill stroke markers" d=" M 524.0923250908643 74.94339092619042 C 524.0923250908643 77.15252992551359 522.3014640901874 78.94339092619042 520.0923250908643 78.94339092619042 C 517.8831860915411 78.94339092619042 516.0923250908643 77.15252992551359 516.0923250908643 74.94339092619042 C 516.0923250908643 72.73425192686724 517.8831860915411 70.94339092619042 520.0923250908643 70.94339092619042 C 522.3014640901874 70.94339092619042 524.0923250908643 72.73425192686724 524.0923250908643 74.94339092619042 Z" stroke-opacity="1" stroke-linecap="round" stroke-linejoin="round" stroke-miterlimit="10"/><text fill="rgb(21,101,192)" stroke="none" font-family="geogebra-sans-serif, sans-serif" font-size="16px" font-style="normal" font-weight="normal" text-decoration="normal" x="524" y="67" text-anchor="start" dominant-baseline="alphabetic" fill-opacity="1">C</text><text fill="none" stroke="rgb(255,255,255)" font-family="geogebra-sans-serif, sans-serif" font-size="16px" font-style="normal" font-weight="normal" text-decoration="normal" x="524" y="67" text-anchor="start" dominant-baseline="alphabetic" stroke-opacity="1" stroke-linejoin="bevel" stroke-miterlimit="10" stroke-width="3">C</text><text fill="rgb(21,101,192)" stroke="none" font-family="geogebra-sans-serif, sans-serif" font-size="16px" font-style="normal" font-weight="normal" text-decoration="normal" x="524" y="67" text-anchor="start" dominant-baseline="alphabetic" fill-opacity="1">C</text><path fill="rgb(97,97,97)" stroke="none" paint-order="stroke fill markers" d=" M 449.0101944358908 203.14949930748998 C 449.0101944358908 205.35863830681313 447.21933343521397 207.14949930748998 445.0101944358908 207.14949930748998 C 442.80105543656765 207.14949930748998 441.0101944358908 205.35863830681313 441.0101944358908 203.14949930748998 C 441.0101944358908 200.9403603081668 442.80105543656765 199.14949930748998 445.0101944358908 199.14949930748998 C 447.21933343521397 199.14949930748998 449.0101944358908 200.9403603081668 449.0101944358908 203.14949930748998 Z" fill-opacity="1"/><path fill="none" stroke="rgb(0,0,0)" paint-order="fill stroke markers" d=" M 449.0101944358908 203.14949930748998 C 449.0101944358908 205.35863830681313 447.21933343521397 207.14949930748998 445.0101944358908 207.14949930748998 C 442.80105543656765 207.14949930748998 441.0101944358908 205.35863830681313 441.0101944358908 203.14949930748998 C 441.0101944358908 200.9403603081668 442.80105543656765 199.14949930748998 445.0101944358908 199.14949930748998 C 447.21933343521397 199.14949930748998 449.0101944358908 200.9403603081668 449.0101944358908 203.14949930748998 Z" stroke-opacity="1" stroke-linecap="round" stroke-linejoin="round" stroke-miterlimit="10"/><text fill="rgb(97,97,97)" stroke="none" font-family="geogebra-sans-serif, sans-serif" font-size="16px" font-style="normal" font-weight="normal" text-decoration="normal" x="433" y="221" text-anchor="start" dominant-baseline="alphabetic" fill-opacity="1">E</text><text fill="none" stroke="rgb(255,255,255)" font-family="geogebra-sans-serif, sans-serif" font-size="16px" font-style="normal" font-weight="normal" text-decoration="normal" x="433" y="221" text-anchor="start" dominant-baseline="alphabetic" stroke-opacity="1" stroke-linejoin="bevel" stroke-miterlimit="10" stroke-width="3">E</text><text fill="rgb(97,97,97)" stroke="none" font-family="geogebra-sans-serif, sans-serif" font-size="16px" font-style="normal" font-weight="normal" text-decoration="normal" x="433" y="221" text-anchor="start" dominant-baseline="alphabetic" fill-opacity="1">E</text></g></g></svg>