<?xml version="1.0" encoding="UTF-8"?>
<svg width="172.66pt" height="97.69pt" version="1.2" viewBox="0 0 172.66 97.69" xmlns="http://www.w3.org/2000/svg" xmlns:xlink="http://www.w3.org/1999/xlink"><defs><symbol id="g" overflow="visible"><path d="m3.5-3.1719c0.0625-0.26562 0.3125-1.2344 1.0469-1.2344 0.046875 0 0.29688 0 0.53125 0.125-0.29688 0.0625-0.51562 0.32812-0.51562 0.57812 0 0.17188 0.125 0.35938 0.40625 0.35938 0.23438 0 0.5625-0.1875 0.5625-0.60938 0-0.54688-0.625-0.6875-0.96875-0.6875-0.60938 0-0.98438 0.5625-1.1094 0.79688-0.26562-0.6875-0.82812-0.79688-1.125-0.79688-1.0938 0-1.7031 1.3594-1.7031 1.6094 0 0.10938 0.10938 0.10938 0.125 0.10938 0.09375 0 0.125-0.015625 0.14062-0.10938 0.35938-1.1094 1.0469-1.375 1.4062-1.375 0.20312 0 0.5625 0.09375 0.5625 0.70312 0 0.32812-0.17188 1.0312-0.5625 2.5-0.17188 0.64062-0.53125 1.0938-1 1.0938-0.0625 0-0.29688 0-0.51562-0.14062 0.26562-0.046875 0.48438-0.28125 0.48438-0.5625 0-0.29688-0.21875-0.375-0.39062-0.375-0.3125 0-0.57812 0.28125-0.57812 0.60938 0 0.48438 0.53125 0.6875 1 0.6875 0.6875 0 1.0625-0.73438 1.0938-0.79688 0.125 0.39062 0.5 0.79688 1.1406 0.79688 1.0781 0 1.6719-1.3438 1.6719-1.6094 0-0.10938-0.09375-0.10938-0.125-0.10938-0.09375 0-0.10938 0.046875-0.125 0.125-0.35938 1.1094-1.0625 1.375-1.4062 1.375-0.40625 0-0.57812-0.34375-0.57812-0.70312 0-0.23438 0.0625-0.45312 0.1875-0.92188z"/></symbol><symbol id="f" overflow="visible"><path d="m5.1094-4c0.03125-0.14062 0.03125-0.17188 0.03125-0.23438 0-0.20312-0.14062-0.29688-0.29688-0.29688-0.10938 0-0.28125 0.0625-0.375 0.21875-0.015625 0.0625-0.09375 0.39062-0.14062 0.57812-0.078125 0.26562-0.15625 0.54688-0.21875 0.84375l-0.46875 1.875c-0.046875 0.17188-0.48438 0.90625-1.1875 0.90625-0.53125 0-0.64062-0.46875-0.64062-0.85938 0-0.48438 0.17188-1.125 0.53125-2.0625 0.17188-0.42188 0.20312-0.53125 0.20312-0.75 0-0.46875-0.32812-0.85938-0.85938-0.85938-1 0-1.3906 1.5156-1.3906 1.6094 0 0.10938 0.10938 0.10938 0.14062 0.10938 0.09375 0 0.10938-0.015625 0.15625-0.1875 0.28125-0.98438 0.70312-1.2969 1.0625-1.2969 0.09375 0 0.26562 0 0.26562 0.32812 0 0.26562-0.10938 0.54688-0.17188 0.73438-0.42188 1.125-0.60938 1.7188-0.60938 2.2031 0 0.9375 0.65625 1.25 1.2812 1.25 0.40625 0 0.76562-0.17188 1.0469-0.46875-0.125 0.54688-0.25 1.0625-0.67188 1.625-0.28125 0.34375-0.67188 0.65625-1.1562 0.65625-0.15625 0-0.625-0.03125-0.79688-0.4375 0.17188 0 0.29688 0 0.45312-0.125 0.09375-0.09375 0.20312-0.23438 0.20312-0.4375 0-0.32812-0.28125-0.35938-0.39062-0.35938-0.23438 0-0.57812 0.15625-0.57812 0.67188 0 0.53125 0.45312 0.92188 1.1094 0.92188 1.0781 0 2.1562-0.95312 2.4531-2.1406z"/></symbol><symbol id="e" overflow="visible"><path d="m7.7656-4.5781c0-1.6875-1.1094-2.8281-2.6719-2.8281-2.2656 0-4.5781 2.3906-4.5781 4.8281 0 1.75 1.1719 2.8125 2.6875 2.8125 2.2188 0 4.5625-2.2969 4.5625-4.8125zm-4.5 4.5312c-1.0469 0-1.7812-0.84375-1.7812-2.2344 0-0.45312 0.15625-2 0.96875-3.2188 0.71875-1.0938 1.75-1.6406 2.5781-1.6406 0.85938 0 1.7969 0.59375 1.7969 2.1562 0 0.75-0.28125 2.3906-1.3125 3.6875-0.5 0.64062-1.375 1.25-2.25 1.25z"/></symbol><symbol id="a" overflow="visible"><path d="m2.7812-3.9219h1.1875c-0.34375 1.5625-0.4375 2.0156-0.4375 2.7188 0 0.15625 0 0.4375 0.078125 0.79688 0.10938 0.45312 0.21875 0.51562 0.375 0.51562 0.21875 0 0.4375-0.1875 0.4375-0.39062 0-0.0625 0-0.09375-0.0625-0.23438-0.3125-0.75-0.3125-1.4375-0.3125-1.7344 0-0.54688 0.078125-1.125 0.1875-1.6719h1.2031c0.14062 0 0.51562 0 0.51562-0.35938 0-0.25-0.21875-0.25-0.42188-0.25h-3.5156c-0.23438 0-0.625 0-1.0938 0.5-0.35938 0.40625-0.64062 0.89062-0.64062 0.9375 0 0.015625 0 0.10938 0.125 0.10938 0.09375 0 0.10938-0.046875 0.17188-0.125 0.51562-0.8125 1.125-0.8125 1.3281-0.8125h0.60938c-0.34375 1.2812-0.90625 2.5469-1.3438 3.5-0.09375 0.15625-0.09375 0.1875-0.09375 0.25 0 0.20312 0.17188 0.28125 0.3125 0.28125 0.3125 0 0.39062-0.28125 0.51562-0.67188 0.15625-0.48438 0.15625-0.51562 0.28125-1.0312z"/></symbol><symbol id="b" overflow="visible"><path d="m6.9219-2.4219c0.17188 0 0.35938 0 0.35938-0.20312s-0.1875-0.20312-0.35938-0.20312h-5.6875c-0.17188 0-0.35938 0-0.35938 0.20312s0.1875 0.20312 0.35938 0.20312z"/></symbol><symbol id="d" overflow="visible"><path d="m3.0938-1.7344v0.92188c0 0.375-0.03125 0.48438-0.8125 0.48438h-0.21875v0.32812c0.4375-0.03125 0.98438-0.03125 1.4219-0.03125s1 0 1.4219 0.03125v-0.32812h-0.21875c-0.76562 0-0.79688-0.10938-0.79688-0.48438v-0.92188h1.0625v-0.32812h-1.0625v-4.7656c0-0.21875 0-0.28125-0.15625-0.28125-0.09375 0-0.14062 0-0.21875 0.125l-3.2188 4.9219v0.32812zm0.0625-0.32812h-2.5625l2.5625-3.9062z"/></symbol><symbol id="c" overflow="visible"><path d="m3.8594-3.3438v0.34375c0 2.4531-1.0938 2.9375-1.7031 2.9375-0.1875 0-0.75-0.015625-1.0312-0.375 0.45312 0 0.54688-0.3125 0.54688-0.48438 0-0.32812-0.25-0.48438-0.48438-0.48438-0.17188 0-0.48438 0.09375-0.48438 0.5 0 0.70312 0.5625 1.1406 1.4531 1.1406 1.3594 0 2.6406-1.4375 2.6406-3.6875 0-2.8281-1.2031-3.5469-2.1406-3.5469-0.57812 0-1.0938 0.20312-1.5469 0.67188-0.42188 0.46875-0.67188 0.90625-0.67188 1.7031 0 1.3125 0.92188 2.3438 2.1094 2.3438 0.64062 0 1.0625-0.45312 1.3125-1.0625zm-1.3125 0.8125c-0.15625 0-0.64062 0-0.96875-0.65625-0.1875-0.39062-0.1875-0.92188-0.1875-1.4375 0-0.5625 0-1.0625 0.21875-1.4375 0.28125-0.53125 0.67188-0.67188 1.0469-0.67188 0.48438 0 0.82812 0.35938 1.0156 0.82812 0.125 0.34375 0.15625 1 0.15625 1.4844 0 0.875-0.35938 1.8906-1.2812 1.8906z"/></symbol></defs><path transform="matrix(1,0,0,-1,83.181,52.136)" d="m-80.15-7.1875e-4h158.3" fill="none" stroke="#000" stroke-miterlimit="10" stroke-width=".3985"/><path d="m163.33 52.137-3.1875-1.5938 1.1953 1.5938-1.1953 1.5938"/><g><use x="160.329" y="60.356" xlink:href="#g"/></g><path transform="matrix(1,0,0,-1,83.181,52.136)" d="m-0.0013125-42.52v83.047" fill="none" stroke="#000" stroke-miterlimit="10" stroke-width=".3985"/><path d="m83.18 9.6172-1.5938 3.1875 1.5938-1.1953 1.5938 1.1953"/><g><use x="73.957" y="10.855" xlink:href="#f"/><use x="74.016" y="61.593" xlink:href="#e"/></g><path transform="matrix(1,0,0,-1,83.181,52.136)" d="m-66.79-10.63s4.0195-4.8633 5.5664-6.2344c1.543-1.375 4.0195-3.0859 5.5664-3.6719 1.543-0.58203 4.0195-0.83594 5.5664-0.54297 1.543 0.29688 4.0195 1.5391 5.5625 2.668 1.5469 1.1289 4.0234 3.6758 5.5664 5.4688 1.5469 1.793 4.0234 5.2578 5.5664 7.4375 1.543 2.1836 4.0195 6.0391 5.5664 8.2773 1.543 2.2383 4.0195 5.9023 5.5664 7.8555 1.543 1.957 4.0195 4.8633 5.5664 6.2383 1.543 1.3711 4.0195 3.0859 5.5625 3.668 1.5469 0.58594 4.0234 0.83594 5.5664 0.54297 1.5469-0.29297 4.0234-1.5352 5.5664-2.6641s4.0234-3.6797 5.5664-5.4688c1.543-1.793 4.0195-5.2617 5.5664-7.4414 1.543-2.1797 4.0195-6.0352 5.5664-8.2734 1.543-2.2383 4.0195-5.9023 5.5625-7.8594 1.5469-1.9531 4.0234-4.8594 5.5664-6.2344 1.5469-1.375 4.0234-3.0859 5.5664-3.6719 1.5469-0.58203 4.0234-0.83594 5.5664-0.54297 1.543 0.29688 4.0195 1.5391 5.5664 2.668 1.543 1.125 4.0195 3.6758 5.5664 5.4688 1.543 1.7891 4.0195 5.2578 5.5664 7.4375 1.543 2.1797 4.0195 6.0391 5.5625 8.2773 1.5469 2.2383 5.5664 7.8555 5.5664 7.8555" fill="none" stroke="#000" stroke-miterlimit="10" stroke-width=".79701"/><path transform="matrix(1,0,0,-1,83.181,52.136)" d="m-66.79-7.1875e-4v2.125" fill="none" stroke="#000" stroke-miterlimit="10" stroke-width=".3985"/><path transform="matrix(1,0,0,-1,83.181,52.136)" d="m-29.685-7.1875e-4v2.125" fill="none" stroke="#000" stroke-miterlimit="10" stroke-width=".3985"/><path transform="matrix(1,0,0,-1,83.181,52.136)" d="m66.792-7.1875e-4v2.125" fill="none" stroke="#000" stroke-miterlimit="10" stroke-width=".3985"/><g><use x="9.126" y="61.96" xlink:href="#b"/><use x="17.293" y="61.96" xlink:href="#a"/><use x="45.246" y="69.705" xlink:href="#b"/><use x="54.608" y="62.602" xlink:href="#d"/><use x="59.858" y="62.602" xlink:href="#a"/></g><path transform="matrix(1,0,0,-1,34.065,89.57)" d="m20.544 22.492h11.609" fill="none" stroke="#000" stroke-miterlimit="10" stroke-width=".4364"/><g><use x="57.789" y="76.908" xlink:href="#c"/><use x="146.79" y="60.356" xlink:href="#a"/></g></svg>
