<svg xmlns="http://www.w3.org/2000/svg" xmlns:xlink="http://www.w3.org/1999/xlink" width="128" height="211.6799" version="1.2"><defs/><defs><symbol overflow="visible" id="a"><path style="stroke:none" d="M.2969-3.4531l.4219.4687.203-.1094c.047 0 .172-.0312.3595-.0625.1874-.0156.3593-.0312.4687-.0312h1.4375l-.0313.4688c-.0312.5156-.1093.9843-.203 1.4062-.0782.4219-.2813.8594-.5782 1.2969-.2969.4531-.9531.9062-1.9531 1.375L.5 1.5313c.5938-.2344 1.0469-.4532 1.375-.6563.3438-.1875.6563-.4531.9531-.7813.2969-.328.5156-.6875.6406-1.1093.125-.4219.2188-.8125.2657-1.2031.0312-.375.0469-.6875.0781-.9688h2.4531v3.1719L6.1875 1.578c.2969-.0781.4688-.1406.5156-.1562.0625-.0313.1406-.0781.25-.1563L6.8906.0625v-3.25h2.5625c.0625 0 .0938 0 .0938-.0469.0156-.0156-.0157-.0781-.0938-.1719l-.6875-.6718-.6093.6562H6.8906v-2.9844c.0625 0 .1094-.0312.1563-.0625l2.0312-.0156c.0313 0 .0469-.0156.0625-.0312.0157-.0313-.0312-.0938-.0937-.1563l-.7657-.6875-.4843.6563H2.2188L.9063-6.7656l.3593.4687.1875-.0937c.125-.0469.3906-.0781.7656-.0781h1.0157L3.1875-3.422H1.6094zm3.5156.0312l.0313-.5c.0156-.4687.0312-1.3125.0468-2.5469h2.375v3.047zm0 0"/></symbol><symbol overflow="visible" id="b"><path style="stroke:none" d="M.2031 1.5781l.0469.1094.6406-.2969c.0938-.0469.3282-.2031.7188-.5.4062-.2656.6875-.5.8594-.6875.1718-.1875.3437-.375.5-.5781.2656.2969.4375.4688.4843.5313.0625.078.1094.1718.1875.3125.0625.1406.125.25.1875.3125.0469.078.0938.1093.1406.1093.047 0 .1094-.0312.172-.1093.078-.0625.125-.1563.1562-.2813.0312-.125.0312-.2344.0156-.3281-.0313-.0938-.1094-.1875-.2031-.3125C4-.25 3.8906-.3594 3.7656-.4531c-.125-.0781-.2969-.2031-.5156-.3281l.2969-.672c.1094-.2187.2187-.5468.2969-.9843.0937-.4219.1562-.8125.203-1.1563.047-.328.0938-.703.1407-1.1093l.2813-.2344c.0625-.0313.078-.0625.078-.0938-.0156-.0156-.0468-.0468-.0937-.078L3.797-5.547l-.375.5h-.8906c.0937-.6406.203-1.2969.328-1.9844l.2344-.1093c.1094-.0625.172-.0938.1563-.1094-.0156-.0313-.0469-.0625-.125-.0938l-.8438-.3437-.078.9063c-.0157.2187-.0938.8125-.2344 1.7343h-.8282L.4062-5.078l.3594.3594c.2344-.0782.4219-.1094.5469-.1094h.6094l-.0469.4062c0 .0313-.0625.3281-.1719.8906-.1094.5782-.1875.922-.2344 1.0782-.0156.1406-.1093.4531-.2656.9219l.5469.2187c.0313.0156.1406.0938.3438.2344.203.125.375.2656.5.4062-.1875.2657-.3594.5-.5157.6563-.1406.1719-.3281.375-.5625.5937-.2344.2344-.6719.5625-1.3125 1zM1.797-1.5625l.2812-1.1563c.0469-.2187.1875-.9375.4063-2.1093H3.625L3.6094-4.5c-.0156.0781-.0313.2969-.0781.6563-.047.3437-.1094.7343-.172 1.1406-.0624.4062-.1562.75-.2656 1.0156-.1093.2656-.2187.4844-.2812.6406zM6.578-7.75l-.2344.7344c-.0312.1094-.1562.3906-.375.8594-.2343.4687-.453.875-.6875 1.25-.2343.375-.3906.5625-.4687.625-.1094.0312-.2344.0468-.4063.0468l.375.7813.4844-.1719c.0938-.0313.3438-.0625.7188-.1094.375-.0312 1.2812-.1406 2.7187-.3281l.125.3594.1094.4219c.0469.0937.1094.1406.1563.1562.0625 0 .125-.0313.1875-.1094s.125-.1562.1718-.25c.0313-.0781.0625-.1719.0625-.2656.0157-.125-.0625-.3281-.1875-.5938-.1406-.2656-.7187-.7656-1.7187-1.5312l-.0781.0938c.0312.0468.1718.2187.4218.5312.2656.3125.4063.5.4531.5781.047.0781.125.2031.2344.3594l-3.4375.1094C5.797-5.047 6.422-5.9375 7.0625-6.875l.2813-.0938c.078-.0156.125-.0468.1406-.0937 0-.0313-.0625-.0781-.1719-.1719zm1.6563 4.8438l-.3125.4687H5.7656L5-2.875l.0469 1.0469V.3438l-.0781 1.328c.2968-.0937.5-.203.6562-.3124V.5625l2.4219.0156v1.0781c.1718-.0624.3125-.1093.3906-.1562a2.0134 2.0134 0 00.2813-.2031L8.6405.3125V-2l.25-.2188c.0782-.0625.0938-.1093.1094-.1093.0156-.0313-.0469-.0781-.1563-.1719zm-.1875 3.25L5.625.328V-2.203h2.4219zm0 0"/></symbol><symbol overflow="visible" id="d"><path style="stroke:none" d="M.4531-.8906l.3906.625c.3907-.2188.6407-.3594.75-.4063.125-.0625.3126-.1562.6094-.2812V.7813l-.0312.8906c.2031-.0938.4062-.1875.5469-.2969L2.6875.6719v-1.8281l1.25-.5157-.0469-.1562-1.2031.375v-1.4063h1.2031c.0625 0 .0938-.0156.1094-.0469.0156-.0312-.0156-.078-.0938-.1718l-.5312-.5156-.4063.5h-.2812l.0156-1 .1719-.1094c.0625-.0313.0938-.0469.0938-.0781.0156-.0157-.0313-.047-.1094-.0782l-.7031-.3281.0468 1.0156v.5781h-.8125c.2031-.6875.4063-1.453.6406-2.2656h2c.0938 0 .1407-.0156.1407-.0312.0156-.0156-.0156-.0625-.0625-.1094l-.6875-.5938-.4375.4844-.875.0156.3281-1.1718.2188-.0938c.0625-.0312.078-.0469.0937-.0781 0-.0313-.0313-.0625-.1094-.0938l-.7187-.3593-.0781.5312c-.047.1875-.125.625-.2657 1.2656H.9844l-.5469-.0156L.75-5.25c.1406-.0781.2813-.1094.3906-.1094H1.5c-.125.5313-.2188.9375-.3125 1.2031l-.2031.6407c-.0157.0781-.0625.1406-.1094.1875-.0469.0625-.1563.125-.3125.2344l.625.6093.25-.375h.7656v1.5469c-.5312.1719-.8906.2656-1.0625.2969-.1562.0312-.3906.0781-.6875.125zM3.375-3.9687l.0625.078C4.3438-4.4686 4.9688-5 5.3438-5.453c.3593-.4531.6875-.8906.9843-1.3438l.1094.3125c.0313.1094.1094.2656.2344.4375.125.1875.25.3594.4062.5.1563.1563.3438.3594.6094.5781.25.2188.4375.3594.5469.4375.0937.0625.25.1407.4531.25.1094-.1875.2188-.328.3281-.3593.1094-.0469.2813-.0781.5-.0938l.0157-.1094c-.3438-.078-.625-.1406-.8282-.203C8.5-5.125 8.1875-5.2813 7.797-5.5c-.4063-.2344-.7031-.4844-.8906-.75s-.3438-.4844-.4532-.6719L6.5-6.9844l.1719-.0312c.0469 0 .0625-.0156.0781-.0469.0156-.0313-.0156-.0625-.0781-.0781l-.7813-.3906-.0781.2656c-.0469.1719-.1406.3906-.2656.6406-.1406.2813-.3281.5781-.5781.9531-.2657.375-.797.9375-1.5938 1.7031zm.6563 5.6562l.1406-.0469.3125-.1406c.0156 0 .0469-.0313.0937-.0625L4.547.8437V-.7188h1.1406V.5156c0 .125-.0313.2344-.0781.2813-.0625.0468-.1406.0781-.2031.0781-.0782.0156-.3282 0-.7657-.0313L4.625.9531c.3281.0625.5313.1407.6094.2188.0781.0625.125.1406.1562.1875.0313.0625.0469.1406.0781.2344.25-.0938.4063-.2032.5313-.3438.0938-.1094.1563-.2813.1563-.5v-3.9375l.25-.1406c.0468-.0313.0625-.0625.0468-.0938 0-.0312 0-.0469-.0312-.0781l-.5781-.4531-.3125.4219-.9532-.0157-.5625-.3437.0469 1.3125V.5938zm.5156-2.6406v-1.125h1.1406v1.125zm0-1.3438v-1.0156h1.1406v1.0156zM6.625-4.6875H5.2031l-.5156-.0156L5-4.3594c.1563-.0781.3125-.1094.4531-.0937h2.1406c.0782 0 .1094-.0156.1094-.0469.0156-.0313-.0156-.0625-.0781-.125l-.5781-.5313zm1.4063.8125l.0468 1.0781V.4062c0 .125-.0312.2188-.1093.297-.0625.0468-.2344.078-.4844.0468-.2656-.0313-.5625-.0781-.8906-.1094v.125c.4687.1875.75.2969.828.3282.0782.0468.1407.125.172.2187.0468.0781.078.2031.1093.3438.2969-.1407.5-.25.5938-.3438.0937-.0938.1562-.1719.2031-.2969.0313-.0937.0469-.2344.0469-.3906v-3.8438l.2343-.1875c.047-.0312.0782-.0625.0782-.078-.0157 0-.0469-.0313-.1094-.047zm-1.25 3.8281c.203-.0781.3437-.125.3906-.1562.0469-.0313.0937-.0625.1406-.1094l-.0313-.6094v-1.9219l.172-.1093c.078-.0469.1093-.0781.1093-.0938-.0156-.0156-.0313-.0312-.0781-.0625l-.7188-.375.0469.8594v1.7188zm0 0"/></symbol><symbol overflow="visible" id="e"><path style="stroke:none" d="M4.8594-5.4688c-.1406.5157-.2969.9532-.4531 1.297-.1407.3593-.3282.75-.5625 1.1874-.2188.4063-.422.7656-.6094 1.0781-.1875.297-.4375.625-.7031.9688-.2813.3438-.5625.6563-.8594.9531C1.3594.297.875.7188.1719 1.25l.0781.1094C.7813 1.0938 1.2813.7813 1.7344.4219 2.2188.078 2.6719-.375 3.125-.922c.4531-.5312.8438-1.1094 1.1875-1.6875.3125-.5937.5156-.9844.6094-1.1562.0781-.1563.1562-.3438.25-.5469L5.4844-3.25c.0469.1875.1562.5.3437.9219.1563.4375.3125.7656.4688 1.0312.1406.25.3281.5156.5625.8125.2344.2813.4219.5313.625.75.1875.2031.5.5156.9531.9375L8.7031.922c.0313-.0469.125-.1094.2657-.1407.1562-.0625.3906-.078.7187-.0625l.0313-.125a16.992 16.992 0 01-.9844-.453C8.5 0 8.1719-.2188 7.7812-.5314a4.5704 4.5704 0 01-1.0468-1.1875c-.3125-.4687-.5938-1-.8281-1.5937a15.3544 15.3544 0 01-.5313-1.5469c-.125-.4375-.1875-.75-.2188-.9219-.0312-.1562-.0468-.375-.0625-.625l.2657-.2656c.0469-.0625.0781-.0937.0781-.125 0-.0156-.0313-.0469-.0781-.0625l-1.0625-.2812.2656.6406zm0 0"/></symbol><symbol overflow="visible" id="p"><path style="stroke:none" d="M1.3594-2.4375l.0625.9063v1.875l-.3594.2656.7031.5.3125-.4375h5.7656v.9218l.0938-.0312.2813-.1094c.1406-.0469.25-.0937.2968-.125L8.4688.3906v-2.1562l.203-.1719c.047-.0313.0782-.0625.0782-.0938 0-.0156-.0469-.0468-.1094-.078l-.8593-.3126.0625.9844v1.875H5.1875v-3.8594h2.2969v.3438a1.6568 1.6568 0 00.6562-.2344l-.0625-.9844v-1.375l.2344-.1875c.0469-.0156.0625-.0469.0625-.0625 0-.0156-.0156-.0469-.0625-.0625l-.8906-.4219.0625 1.0782v1.6719H5.1875v-3.1875L5.4219-7c.0937-.0625.125-.0938.125-.1094 0-.0156-.0313-.0312-.125-.0781l-.8594-.375.0469 1.4063v2.5H2.4688v-2l.2187-.2032.0781-.0781c.0156 0-.0156-.0156-.0781-.0469l-.8281-.3125.0156 1.125v1.2188l-.3438.3281.6094.5469.375-.3438h2.0938V.4375H2.0313v-2.2031l.25-.1719c.078-.0469.0937-.0781.1093-.0938.0156 0-.0312-.0312-.125-.078zm0 0"/></symbol><symbol overflow="visible" id="r"><path style="stroke:none" d="M.3281-4.3281l.4219.6406c.3906-.1563.7188-.2656 1-.3125.2656-.0625.5781-.125.9063-.1875l-.375.6094-.625.9219c-.1563.2187-.2657.3593-.3594.4218-.0938.0781-.2969.1406-.5625.2031l.4062.672L1.422-1.5c.0781-.0469.4375-.1563 1.0469-.3125.625-.1875 1.1406-.3125 1.5625-.4219l-.0157-.1562a57.2416 57.2416 0 01-2.3594.2812l.2188-.2969.9219-1.1718c.0312-.0313.4062-.5469 1.125-1.5469l.25-.0156c.0625 0 .1094-.0156.1094-.0469.0156-.0156-.0157-.0625-.1094-.1406l-.6406-.5781-.125.3437c-.0313.0938-.0782.2031-.1563.3438-.0625.125-.2188.3906-.4531.7656-.5781.0312-1.1719.0625-1.75.0937l.2969-.4219.9843-1.4062c.1094-.1719.2813-.4219.5-.7656l.2813-.0625c.0781 0 .0937-.0156.125-.0469 0-.0313-.0313-.0625-.1094-.1094l-.7813-.5312c-.0468.2656-.1093.4844-.1718.6406-.0625.1406-.1875.4063-.375.7813-.1875.3593-.3281.625-.4063.7656-.0781.125-.1875.3281-.3594.5781-.1406.2344-.2812.375-.3593.4531-.0938.0625-.2032.125-.3438.1563zm.0781 4.25l.4375.75.2657-.1563C1.328.3906 2.4063 0 4.3438-.6406v-.125l-1.797.3281C1.5-.25.9376-.1406.875-.1406.7969-.125.6406-.1094.4062-.0781zm6.0313-5.5625l-1.1406.0156-1.1094-.0469.3906.3906c.2344-.078.5-.125.8594-.125h1v1.8125H5.2344l-.8906-.0312.3593.375a4.066 4.066 0 01.9375-.1094h3.625c.0469 0 .0782-.0156.0938-.0469L9.25-3.5156 8.6406-4.25l-.5312.6563H7.0469v-1.8125h2.6406c.0781 0 .1094 0 .125-.0313 0-.0313-.0313-.0781-.125-.1719l-.6406-.6094-.5469.5782H7.0469v-1.3906l.3125-.2032c.0469-.0312.0781-.0469.0781-.0781 0-.0313-.0469-.0469-.125-.0781L6.375-7.672l.0625 1.0625zm-1.75 6.375L4.6406 1.75c.1719-.0313.3906-.1094.625-.25V.5312h2.8438v.9844c.2968-.0625.5468-.1562.7031-.3125L8.7656.4844v-2.2031L9-1.9063c.0781-.0624.1094-.0937.1094-.1093 0-.0156-.0469-.0625-.1563-.125l-.6562-.4531-.3282.4843H5.4375l-.7969-.4844.0469.9063zM5.25.2969l.0156-2.1719h2.8438V.2969zm0 0"/></symbol><symbol overflow="visible" id="s"><path style="stroke:none" d="M2.4219-2.375H4c-.1719.3281-.3281.5781-.4688.7656-.1406.1875-.3437.4219-.625.7188-.2812.2656-.5.4843-.6718.625-.1719.1406-.4375.3437-.7969.625-.375.2812-.7344.5312-1.0938.75l.0782.1094c.4844-.2344.9375-.4844 1.3594-.75a12.667 12.667 0 001.125-.7657c.328-.2344.6093-.5.875-.7969.2656-.2968.5156-.5937.7656-.9218L4.5313.6406 4.5 1.547c.2188-.0469.3594-.0781.4375-.1094.0625-.0469.1406-.0938.2188-.1406L5.125.6406V-2.375h.0938l.2812.5c.0313.0781.1406.2344.3438.5.1718.2813.328.4531.4218.5625.1094.1094.2813.2656.5313.4688.25.2187.4531.3593.5937.4687.1563.0781.5313.2813 1.125.5781.2032-.25.3594-.3906.5-.4218.1094-.0313.2657-.047.4219-.0625V.125c-.4063-.0781-.7344-.1406-.9844-.2188-.2656-.078-.5468-.203-.875-.3906C7.25-.6406 7-.8125 6.7812-.9844c-.203-.1562-.3906-.3281-.578-.5156-.1876-.1875-.3282-.3281-.422-.4531-.0937-.1094-.203-.2656-.328-.4219h1.828v.5156c.25-.0625.4063-.1094.4532-.1406.0625-.0313.125-.0781.2187-.1406l-.0312-.6719V-4.25l.1875-.1094c.0781-.0469.125-.0781.125-.1094.0156-.0312-.0313-.078-.1094-.125l-.6719-.453-.2812.4374H5.125v-1.2344h4.0156c.1094 0 .1719-.0156.1875-.0312 0-.0469-.0156-.0938-.0937-.1406l-.7188-.6719-.4843.625H5.125v-.8594l.25-.1406c.0938-.0625.125-.0938.125-.1406-.0156-.0313-.0469-.0469-.1094-.0781L4.5-7.6406l.0313.9062.0156.6719H1.203l-.875-.0156.4063.4219c.1562-.0782.3281-.1094.5468-.1407.1876-.0312.3282-.0469.375-.0469h2.875l.0157 1.2344H2.625l-.8281-.4531.0625.8125v1.8125l-.0625.8594c.2812-.0625.4844-.1719.625-.2969zm0-.2344V-4.375h2.1094v1.7656zm2.7031 0V-4.375h2.1563v1.7656zm0 0"/></symbol><symbol overflow="visible" id="t"><path style="stroke:none" d="M.8906-6.2969c.3282-.1094.7188-.1719 1.1875-.1562h2.6094l-.125.2344c-.0625.1093-.2031.3125-.4219.578-.2187.2657-.5781.672-1.0469 1.2032-.5.5313-1.203 1.0469-2.1562 1.5313l-.5.25-.2656.1406.0469.1562.203-.0781.547-.2188c.25-.0937.5625-.25.9687-.4687.4219-.2031.8281-.4844 1.25-.8281.4375-.3438.7344-.6094.9219-.8125.2031-.1875.3906-.4063.5781-.6563v1.7656L4.6406-2.328c.2656-.0313.5156-.1406.75-.3281l-.0625-.9532V-5.328l.1875-.1563c.0625-.0625.0938-.0937.0938-.125l-.0938-.0469-.4375-.203.4844-.5938H9c.0781 0 .125-.0313.1406-.0469.0157-.0469-.0312-.0938-.1406-.2031l-.75-.6563-.4688.6563H1.172L.578-6.7344zm1.4375 3.6875l.0625 1.2656v1.75l-.0625 1.2813c.1719-.0313.2969-.0781.3906-.1094.0782-.0469.1875-.1094.3125-.2031V.75h4.0313v.7656c.3125-.0625.5469-.2187.7031-.4219L7.7031.1563V-1.797L7.9531-2l.1094-.0938c0-.0156-.0313-.0468-.0938-.0937l-.6875-.4844-.3906.5H3.1094zm.7031 3.125v-2.4531h4.0313V.5156zm2.7344-5.7344l-.0469.1407C7.0625-4.5 7.9375-3.9844 8.297-3.547c.375.4531.5781.7031.6093.75.047.0469.0782.0625.1407.0625.1093 0 .1875-.0937.2187-.2812.0157-.0938.0313-.1875.0313-.2969s-.0469-.2188-.1094-.3438c-.0781-.125-.25-.2968-.5313-.5-.2968-.203-1.2656-.5625-2.8906-1.0625zm0 0"/></symbol><symbol overflow="visible" id="u"><path style="stroke:none" d="M.5313 1.5781l.1093.0938.5-.4219c.1094-.0938.3281-.3281.6563-.7031.3281-.375.5312-.625.6406-.7813.0938-.1406.2031-.3125.3281-.5l.3906.5313c.1407.1719.3282.3594.5782.5469.25.1875.5469.3593.8906.4687.3438.1406.7969.25 1.3906.3281.5781.0781 1.4375.1406 2.5313.1719.1718-.2344.3125-.3906.4062-.4375C9.047.8281 9.25.75 9.5625.6562V.4844c-.8594.1094-1.6406.1562-2.3438.125C6.5157.578 5.9063.5469 5.3907.5L5.375-1.1406h2.7969c.0781 0 .125-.0156.1406-.0625.0156-.0156-.0156-.0781-.0625-.1406l-.6719-.7344-.5312.6562H5.3906v-1.2969h4c.0469 0 .0625 0 .0782-.0312.0156-.0156-.0157-.0781-.0938-.1719l-.6563-.6875-.5937.6563H1.3906L.422-2.9844l.4375.4531.1718-.0937s.0782-.0156.25-.0469c.1563-.0312.25-.0469.2813-.0469l3.25.0157V.375c-.1406-.0313-.3438-.1094-.625-.25-.2969-.1406-.5156-.2969-.6563-.4531-.1562-.1563-.3437-.375-.578-.6406l.4062-.6563.2344-.0938c.078-.0312.125-.0468.1406-.0624 0-.0157-.0469-.0782-.1719-.1876l-.7188-.5468-.0468.3281c-.0156.0781-.0781.2656-.2188.5625-.125.2969-.2344.5469-.3281.75-.1094.1875-.25.4375-.4531.7344-.1875.3125-.3438.5156-.4375.6562C1.2656.6406.9844 1 .5313 1.5781zM7.625-6.5937l.2188-.2032C7.9375-6.875 8-6.9375 8-6.953c0-.0469-.0469-.0781-.125-.1563l-.6094-.4687-.4219.5H3.25l-.7813-.6563.047.9688v2.2031l-.047 1.2031c.2657-.0937.422-.1562.4688-.2031.0469-.0313.1094-.0781.1406-.1094v-.2187H7.047v.3594c.3125-.0938.5312-.2032.6406-.3282l-.0625-1zm-4.5469 2.453v-1.2968H7.047v1.2969zM7.047-5.6718L3.078-5.6875v-1.1563H7.047zm0 0"/></symbol><symbol overflow="visible" id="f"><path style="stroke:none" d="M.875-.5938C.8437-.4375.7812-.203.7812-.1563c0 .172.1407.2657.297.2657.125 0 .2968-.0781.375-.2813 0-.0156.125-.4844.1874-.7344l.2188-.8906c.0469-.2344.1094-.4531.1719-.6719.0312-.1718.1093-.4687.125-.5.1406-.3125.6718-1.2187 1.625-1.2187.453 0 .5312.375.5312.7031 0 .6094-.4844 1.8906-.6406 2.3125-.0938.2344-.1094.3594-.1094.4688 0 .4687.3594.8125.8281.8125.9375 0 1.2969-1.4531 1.2969-1.5313 0-.1094-.0781-.1094-.1094-.1094-.1094 0-.1094.0313-.1562.1876-.2031.6718-.5313 1.2343-1.0156 1.2343-.172 0-.2344-.0937-.2344-.3281 0-.25.0781-.4844.1719-.7031.1875-.5313.6093-1.625.6093-2.2031 0-.6563-.4219-1.0625-1.1406-1.0625-.9063 0-1.3906.6406-1.5625.875-.0469-.5625-.4531-.875-.9219-.875-.4531 0-.6406.3906-.7344.5625C.422-3.5.297-2.9063.297-2.875c0 .1094.0937.1094.1094.1094.1093 0 .1093-.0156.1718-.2344.1719-.7031.375-1.1875.7344-1.1875.1875 0 .2969.125.2969.4531 0 .2188-.0313.3281-.1563.8438zm0 0"/></symbol><symbol overflow="visible" id="j"><path style="stroke:none" d="M1.7813-1.1406C1.3905-.4844 1-.3437.5624-.3125c-.125.0156-.2188.0156-.2188.2031C.3438-.0469.4063 0 .4844 0c.2656 0 .5781-.0313.8437-.0313.3438 0 .6875.0313 1 .0313.0625 0 .1875 0 .1875-.1875 0-.1094-.0781-.125-.1562-.125-.2188-.0156-.4688-.0938-.4688-.3438 0-.125.0625-.2343.1406-.375l.7657-1.2656h2.5c.0156.2031.1562 1.5625.1562 1.6563 0 .2968-.5156.3281-.7187.3281-.1406 0-.2344 0-.2344.2031C4.5 0 4.6094 0 4.6406 0c.4063 0 .8281-.0313 1.2344-.0313.25 0 .8906.0313 1.1406.0313.0469 0 .1719 0 .1719-.2031 0-.1094-.0938-.1094-.2344-.1094-.6094 0-.6094-.0625-.6406-.3594l-.6094-6.2187c-.0156-.2031-.0156-.25-.1875-.25-.1562 0-.2031.0781-.2656.1719zm1.203-1.4688l1.9532-3.2969.3281 3.297zm0 0"/></symbol><symbol overflow="visible" id="g"><path style="stroke:none" d="M6.8438-3.2656c.1562 0 .3437 0 .3437-.1875 0-.2031-.1875-.2031-.3281-.2031H.8906c-.1406 0-.3281 0-.3281.203 0 .1876.1875.1876.3281.1876zm.0156 1.9375c.1406 0 .3281 0 .3281-.2031 0-.1876-.1875-.1876-.3438-.1876H.8907c-.1407 0-.3282 0-.3282.1876 0 .203.1875.203.3281.203zm0 0"/></symbol><symbol overflow="visible" id="h"><path style="stroke:none" d="M4.5781-3.1875c0-.7969-.0469-1.5938-.3906-2.3281-.4531-.9688-1.2813-1.125-1.6875-1.125-.6094 0-1.3281.2656-1.75 1.1875-.3125.6875-.3594 1.4687-.3594 2.2656 0 .75.0313 1.6406.4531 2.4063.422.7968 1.1563 1 1.6407 1 .5312 0 1.2969-.2032 1.7344-1.1563.3125-.6875.3593-1.4688.3593-2.25zM2.4844 0C2.0938 0 1.5-.25 1.328-1.2031c-.1094-.5938-.1094-1.5156-.1094-2.1094 0-.6406 0-1.2969.0782-1.8281.1875-1.1875.9375-1.2813 1.1875-1.2813.3281 0 .9844.1875 1.1719 1.1719.1093.5625.1093 1.3125.1093 1.9375 0 .75 0 1.4219-.1094 2.0625C3.5-.2969 2.9375 0 2.4844 0zm0 0"/></symbol><symbol overflow="visible" id="k"><path style="stroke:none" d="M2.8906-3.5156c.8125-.2656 1.3906-.9531 1.3906-1.75 0-.8125-.875-1.375-1.828-1.375-1 0-1.7657.5937-1.7657 1.3594 0 .328.2188.5156.5156.5156.2969 0 .5-.2188.5-.5156 0-.4844-.4687-.4844-.6094-.4844.297-.5.9532-.625 1.3126-.625.4218 0 .9687.2187.9687 1.1094 0 .125-.0313.703-.2813 1.1406-.2968.4844-.6406.5156-.8906.5156-.0781.0156-.3125.0313-.3906.0313-.0781.0156-.1406.0312-.1406.125 0 .1093.0625.1093.2344.1093h.4374c.8125 0 1.1875.6719 1.1875 1.6563 0 1.3594-.6875 1.6406-1.125 1.6406S1.2188-.2344.875-.8125c.3438.0469.6563-.1719.6563-.5469 0-.3594-.2657-.5625-.547-.5625-.25 0-.5624.1406-.5624.5781 0 .9063.9219 1.5626 2.0156 1.5626 1.2188 0 2.125-.9063 2.125-1.922 0-.8124-.6406-1.5937-1.6719-1.8124zm0 0"/></symbol><symbol overflow="visible" id="n"><path style="stroke:none" d="M1.2656-.7656L2.3281-1.797C3.875-3.1719 4.4687-3.703 4.4687-4.703c0-1.1406-.8906-1.9375-2.1093-1.9375C1.2344-6.6406.5-5.7187.5-4.8281c0 .5469.5.5469.5313.5469.1718 0 .5156-.1094.5156-.5313 0-.25-.1875-.5156-.5313-.5156-.0781 0-.0937 0-.125.0156.2188-.6563.7657-1.0156 1.3438-1.0156.9062 0 1.3281.8125 1.3281 1.625 0 .7969-.4844 1.5781-1.0469 2.2031L.6094-.375C.5-.2656.5-.2344.5 0h3.7031l.2656-1.7344h-.2343C4.1719-1.4375 4.1094-1 4-.8438c-.0625.0782-.7188.0782-.9375.0782zm0 0"/></symbol><symbol overflow="visible" id="l"><path style="stroke:none" d="M.8438-.4375C.828-.3437.7813-.1719.7813-.1562c0 .1562.125.2187.2343.2187.125 0 .2344-.0781.2813-.1406.0312-.0625.0781-.2969.125-.4375.0312-.125.1094-.4532.1406-.625.0469-.1563.0938-.3125.125-.4688.0781-.2812.0938-.3437.2969-.625.1875-.2812.5156-.6406 1.0469-.6406.3906 0 .4062.3594.4062.4844 0 .4219-.2969 1.1875-.4063 1.4844-.078.203-.1093.2656-.1093.375 0 .375.2969.5937.6562.5937.7031 0 1-.9531 1-1.0625 0-.0938-.0781-.0938-.1094-.0938-.0937 0-.0937.047-.125.125-.1562.5625-.4687.8438-.7343.8438-.1563 0-.1875-.0938-.1875-.25 0-.1563.0469-.25.1719-.5625.078-.2188.3593-.9531.3593-1.3438 0-.6718-.5312-.7968-.9062-.7968-.5781 0-.9688.3594-1.1719.6406-.0469-.4844-.4531-.6406-.75-.6406s-.4531.2187-.5469.375c-.1562.2656-.25.6562-.25.7031 0 .0781.0938.0781.125.0781.0938 0 .0938-.0156.1406-.2031.1094-.4063.25-.75.5157-.75.1875 0 .2344.1563.2344.3438 0 .125-.0626.3906-.125.578a16.2924 16.2924 0 00-.1407.625zm0 0"/></symbol><symbol overflow="visible" id="m"><path style="stroke:none" d="M6.5625-2.2969c.1719 0 .3594 0 .3594-.2031 0-.1875-.1875-.1875-.3594-.1875H1.1719c-.1719 0-.3438 0-.3438.1875 0 .2031.1719.2031.3438.2031zm0 0"/></symbol><clipPath id="c"><path d="M31 21h64.2305v27H31zm0 0"/></clipPath><clipPath id="i"><path d="M37 56h58.2305v14H37zm0 0"/></clipPath><clipPath id="o"><path d="M34 77h61.2305v29H34zm0 0"/></clipPath><clipPath id="q"><path d="M45 137h43v20.4883H45zm0 0"/></clipPath></defs><path style="fill:none;stroke:#000;stroke-width:.669554;stroke-linecap:butt;stroke-linejoin:miter;stroke-miterlimit:10;stroke-opacity:1" d="M99.6477.3348h-21.427c-4.4365 0-8.033 3.5965-8.033 8.0331v.6196c0 4.4366 3.5965 8.0331 8.033 8.0331h21.427c4.4366 0 8.0332-3.5965 8.0332-8.0331v-.6196c0-4.4366-3.5966-8.0331-8.0332-8.0331zm0 0"/><g style="fill:#000;fill-opacity:1" transform="matrix(1.3441 0 0 1.3441 0 -.0012)"><use xlink:href="#a" x="56.204" y="9.486" width="100%" height="100%"/><use xlink:href="#b" x="66.1666" y="9.486" width="100%" height="100%"/></g><path style="fill:#fff;fill-opacity:1;fill-rule:nonzero;stroke:none;stroke-width:1.3441" d="M51.7324 54.9811l4.3946-16.4023h70.009l-4.3945 16.4023zm0 0"/><g clip-path="url(#c)" clip-rule="nonzero" transform="matrix(1.3441 0 0 1.3441 0 -.0012)"><path style="fill:none;stroke:#000;stroke-width:.49814;stroke-linecap:butt;stroke-linejoin:miter;stroke-miterlimit:10;stroke-opacity:1" d="M38.4883 40.9063l3.2695-12.2032h52.086l-3.2696 12.2032zm0 0"/></g><g style="fill:#000;fill-opacity:1" transform="matrix(1.3441 0 0 1.3441 0 -.0012)"><use xlink:href="#d" x="43.253" y="37.728" width="100%" height="100%"/><use xlink:href="#e" x="53.2156" y="37.728" width="100%" height="100%"/></g><use xlink:href="#f" x="64.835" y="37.728" width="100%" height="100%" transform="matrix(1.3441 0 0 1.3441 0 -.0012)"/><use xlink:href="#g" x="73.583" y="37.728" width="100%" height="100%" transform="matrix(1.3441 0 0 1.3441 0 -.0012)"/><use xlink:href="#h" x="84.0916" y="37.728" width="100%" height="100%" transform="matrix(1.3441 0 0 1.3441 0 -.0012)"/><g clip-path="url(#i)" clip-rule="nonzero" transform="matrix(1.3441 0 0 1.3441 0 -.0012)"><path style="fill:none;stroke:#000;stroke-width:.3985;stroke-linecap:butt;stroke-linejoin:miter;stroke-miterlimit:10;stroke-opacity:1" d="M37.3047 69.1172h57.7266V57.1836H37.3047zm0 0"/></g><use xlink:href="#j" x="39.296" y="66.294" width="100%" height="100%" transform="matrix(1.3441 0 0 1.3441 0 -.0012)"/><use xlink:href="#g" x="49.535" y="66.294" width="100%" height="100%" transform="matrix(1.3441 0 0 1.3441 0 -.0012)"/><use xlink:href="#k" x="60.0435" y="66.294" width="100%" height="100%" transform="matrix(1.3441 0 0 1.3441 0 -.0012)"/><use xlink:href="#l" x="65.033" y="62.18" width="100%" height="100%" transform="matrix(1.3441 0 0 1.3441 0 -.0012)"/><use xlink:href="#m" x="72.669" y="66.294" width="100%" height="100%" transform="matrix(1.3441 0 0 1.3441 0 -.0012)"/><use xlink:href="#n" x="82.632" y="66.294" width="100%" height="100%" transform="matrix(1.3441 0 0 1.3441 0 -.0012)"/><use xlink:href="#l" x="87.613" y="62.18" width="100%" height="100%" transform="matrix(1.3441 0 0 1.3441 0 -.0012)"/><g clip-path="url(#o)" clip-rule="nonzero" transform="matrix(1.3441 0 0 1.3441 0 -.0012)"><path style="fill:none;stroke:#000;stroke-width:.49814;stroke-linecap:butt;stroke-linejoin:miter;stroke-miterlimit:10;stroke-opacity:1" d="M90.9727 91.496L66.168 84.129l-24.8047 7.367 24.8047 7.3712zm0 0"/></g><path style="fill:none;stroke:#000;stroke-width:.535626;stroke-linecap:butt;stroke-linejoin:miter;stroke-miterlimit:10;stroke-opacity:1" d="M.2678 95.0523h40.171V82.3306H.2678zm0 0"/><path style="fill:#fff;fill-opacity:1;fill-rule:nonzero;stroke:#000;stroke-width:.669554;stroke-linecap:butt;stroke-linejoin:miter;stroke-miterlimit:10;stroke-opacity:1" d="M63.9974 173.1156l4.405-16.4444h45.4687l-4.405 16.4444zm0 0"/><g style="fill:#000;fill-opacity:1" transform="matrix(1.3441 0 0 1.3441 0 -.0012)"><use xlink:href="#d" x="52.386" y="125.618" width="100%" height="100%"/><use xlink:href="#p" x="62.3486" y="125.618" width="100%" height="100%"/></g><use xlink:href="#f" x="73.968" y="125.618" width="100%" height="100%" transform="matrix(1.3441 0 0 1.3441 0 -.0012)"/><g clip-path="url(#q)" clip-rule="nonzero" transform="matrix(1.3441 0 0 1.3441 0 -.0012)"><path style="fill:none;stroke:#000;stroke-width:.49814;stroke-linecap:butt;stroke-linejoin:miter;stroke-miterlimit:10;stroke-opacity:1" d="M74.1367 144.8086H58.1953c-3.3008 0-5.9766 2.6758-5.9766 5.9766v.4804c0 3.3008 2.6758 5.9766 5.9766 5.9766h15.9414c3.3008 0 5.9766-2.6758 5.9766-5.9766v-.4804c0-3.3008-2.6758-5.9766-5.9766-5.9766zm0 0"/></g><g style="fill:#000;fill-opacity:1" transform="matrix(1.3441 0 0 1.3441 0 -.0012)"><use xlink:href="#r" x="56.204" y="154.005" width="100%" height="100%"/><use xlink:href="#s" x="66.1666" y="154.005" width="100%" height="100%"/></g><path style="fill:none;stroke:#000;stroke-width:.535626;stroke-linecap:butt;stroke-linejoin:miter;stroke-miterlimit:10;stroke-opacity:1" d="M88.9369 17.3566v17.631"/><path style="fill:#000;fill-opacity:1;fill-rule:nonzero;stroke:#000;stroke-width:.535615;stroke-linecap:butt;stroke-linejoin:miter;stroke-miterlimit:10;stroke-opacity:1" d="M88.9421 37.4762l1.3231-3.5125-1.323 1.1603-1.3284-1.1603zm0 0"/><path style="fill:none;stroke:#000;stroke-width:.535626;stroke-linecap:butt;stroke-linejoin:miter;stroke-miterlimit:10;stroke-opacity:1" d="M88.9421 55.3172l-.0052 18.0246"/><path style="fill:#000;fill-opacity:1;fill-rule:nonzero;stroke:#000;stroke-width:.535615;stroke-linecap:butt;stroke-linejoin:miter;stroke-miterlimit:10;stroke-opacity:1" d="M88.9369 75.8305l1.3283-3.5125-1.3283 1.1604-1.3284-1.1604zm0 0"/><path style="fill:none;stroke:#000;stroke-width:.535626;stroke-linecap:butt;stroke-linejoin:miter;stroke-miterlimit:10;stroke-opacity:1" d="M88.9369 93.1674v16.187"/><path style="fill:#000;fill-opacity:1;fill-rule:nonzero;stroke:#000;stroke-width:.535626;stroke-linecap:butt;stroke-linejoin:miter;stroke-miterlimit:10;stroke-opacity:1" d="M88.9369 111.838l1.323-3.5126-1.323 1.1603-1.3284-1.1603zm0 0"/><path style="fill:none;stroke:#000;stroke-width:.535626;stroke-linecap:butt;stroke-linejoin:miter;stroke-miterlimit:10;stroke-opacity:1" d="M88.9369 133.3594v19.7258"/><path style="fill:#000;fill-opacity:1;fill-rule:nonzero;stroke:#000;stroke-width:.535615;stroke-linecap:butt;stroke-linejoin:miter;stroke-miterlimit:10;stroke-opacity:1" d="M88.9369 155.5687l1.3283-3.5126-1.3283 1.1604-1.3231-1.1604zm0 0"/><use xlink:href="#t" x="55.52" y="109.745" width="100%" height="100%" transform="matrix(1.3441 0 0 1.3441 0 -.0012)"/><path style="fill:none;stroke:#000;stroke-width:.535626;stroke-linecap:butt;stroke-linejoin:miter;stroke-miterlimit:10;stroke-opacity:1" d="M55.119 122.9793H20.356V98.5701"/><path style="fill:#000;fill-opacity:1;fill-rule:nonzero;stroke:#000;stroke-width:.535626;stroke-linecap:butt;stroke-linejoin:miter;stroke-miterlimit:10;stroke-opacity:1" d="M20.356 96.0814l-1.3284 3.5125 1.3283-1.1603 1.3231 1.1603zm0 0"/><use xlink:href="#u" x="24.109" y="101.147" width="100%" height="100%" transform="matrix(1.3441 0 0 1.3441 0 -.0012)"/><path style="fill:none;stroke:#000;stroke-width:.535626;stroke-linecap:butt;stroke-linejoin:miter;stroke-miterlimit:10;stroke-opacity:1" d="M20.356 82.0628V65.9545h65.3309"/><path style="fill:#000;fill-opacity:1;fill-rule:nonzero;stroke:#000;stroke-width:.535626;stroke-linecap:butt;stroke-linejoin:miter;stroke-miterlimit:10;stroke-opacity:1" d="M88.1756 65.9545l-3.5126-1.3283 1.1604 1.3283-1.1604 1.3284zm0 0"/><path style="fill:none;stroke:#000;stroke-width:.535626;stroke-linecap:butt;stroke-linejoin:miter;stroke-miterlimit:10;stroke-opacity:1" d="M88.9369 173.4516v17.5994"/><path style="fill:#000;fill-opacity:1;fill-rule:nonzero;stroke:#000;stroke-width:.535615;stroke-linecap:butt;stroke-linejoin:miter;stroke-miterlimit:10;stroke-opacity:1" d="M88.9369 193.5397l1.3283-3.5126-1.3283 1.1604-1.3284-1.1604zm0 0"/></svg>