<?xml version="1.0" encoding="UTF-8"?>
<svg width="206.28pt" height="119.06pt" version="1.2" viewBox="0 0 206.28 119.06" xmlns="http://www.w3.org/2000/svg" xmlns:xlink="http://www.w3.org/1999/xlink"><defs><symbol id="e" overflow="visible"><path d="m3.1875-3.3125h1.7812c1.4844 0 2.9531-1.0938 2.9531-2.2812 0-0.79688-0.70312-1.5781-2.0781-1.5781h-3.3906c-0.20312 0-0.32812 0-0.32812 0.20312 0 0.125 0.09375 0.125 0.3125 0.125 0.14062 0 0.32812 0.015625 0.45312 0.015625 0.17188 0.03125 0.23438 0.0625 0.23438 0.17188 0 0.046875-0.015625 0.078125-0.046875 0.20312l-1.4062 5.6406c-0.10938 0.40625-0.125 0.48438-0.95312 0.48438-0.1875 0-0.29688 0-0.29688 0.20312 0 0.125 0.125 0.125 0.15625 0.125 0.29688 0 1.0312-0.03125 1.3281-0.03125 0.21875 0 0.45312 0.015625 0.67188 0.015625 0.23438 0 0.46875 0.015625 0.6875 0.015625 0.078125 0 0.20312 0 0.20312-0.20312 0-0.125-0.09375-0.125-0.28125-0.125-0.39062 0-0.6875 0-0.6875-0.1875 0-0.0625 0.015625-0.10938 0.03125-0.17188zm0.75-3.1406c0.09375-0.35938 0.10938-0.39062 0.5625-0.39062h1.0156c0.875 0 1.4219 0.28125 1.4219 1 0 0.42188-0.20312 1.3125-0.60938 1.7031-0.53125 0.46875-1.1562 0.54688-1.625 0.54688h-1.4844z"/></symbol><symbol id="d" overflow="visible"><path d="m1.875-1.2031c-0.42188 0.70312-0.82812 0.84375-1.2812 0.875-0.125 0.015625-0.21875 0.015625-0.21875 0.21875 0 0.0625 0.046875 0.10938 0.125 0.10938 0.28125 0 0.60938-0.03125 0.90625-0.03125 0.34375 0 0.71875 0.03125 1.0469 0.03125 0.0625 0 0.20312 0 0.20312-0.20312 0-0.10938-0.09375-0.125-0.17188-0.125-0.23438-0.015625-0.48438-0.10938-0.48438-0.35938 0-0.125 0.0625-0.25 0.14062-0.39062l0.79688-1.3438h2.6406c0.015625 0.21875 0.17188 1.6406 0.17188 1.75 0 0.3125-0.54688 0.34375-0.76562 0.34375-0.14062 0-0.25 0-0.25 0.21875 0 0.10938 0.125 0.10938 0.14062 0.10938 0.4375 0 0.89062-0.03125 1.3125-0.03125 0.26562 0 0.9375 0.03125 1.1875 0.03125 0.0625 0 0.20312 0 0.20312-0.20312 0-0.125-0.10938-0.125-0.25-0.125-0.65625 0-0.65625-0.078125-0.6875-0.375l-0.64062-6.5625c-0.015625-0.20312-0.015625-0.25-0.1875-0.25s-0.21875 0.078125-0.28125 0.17188zm1.2656-1.5469 2.0625-3.4688 0.34375 3.4688z"/></symbol><symbol id="c" overflow="visible"><path d="m1.6875-0.8125c-0.10938 0.40625-0.14062 0.48438-0.96875 0.48438-0.17188 0-0.28125 0-0.28125 0.21875 0 0.10938 0.09375 0.10938 0.28125 0.10938h3.75c1.6562 0 2.9062-1.2344 2.9062-2.2656 0-0.76562-0.60938-1.375-1.625-1.4844 1.0781-0.20312 2.1875-0.96875 2.1875-1.9688 0-0.78125-0.6875-1.4531-1.9531-1.4531h-3.5312c-0.20312 0-0.29688 0-0.29688 0.20312 0 0.125 0.09375 0.125 0.29688 0.125 0.015625 0 0.21875 0 0.39062 0.015625 0.1875 0.03125 0.28125 0.03125 0.28125 0.17188 0 0.046875 0 0.078125-0.03125 0.20312zm1.5781-3.0312 0.65625-2.6094c0.09375-0.35938 0.10938-0.39062 0.5625-0.39062h1.3594c0.92188 0 1.1406 0.625 1.1406 1.0781 0 0.92188-0.90625 1.9219-2.1875 1.9219zm-0.46875 3.5156c-0.15625 0-0.17188 0-0.23438-0.015625-0.10938 0-0.14062-0.015625-0.14062-0.09375 0-0.03125 0-0.0625 0.0625-0.25l0.71875-2.9219h1.9844c1 0 1.2031 0.78125 1.2031 1.2188 0 1.0469-0.9375 2.0625-2.1719 2.0625z"/></symbol><symbol id="b" overflow="visible"><path d="m7.9844-7.2969c0-0.03125-0.03125-0.10938-0.125-0.10938-0.03125 0-0.03125 0.015625-0.15625 0.125l-0.73438 0.8125c-0.09375-0.14062-0.57812-0.9375-1.7344-0.9375-2.3438 0-4.7031 2.3281-4.7031 4.7656 0 1.7344 1.2344 2.875 2.8438 2.875 0.90625 0 1.7031-0.42188 2.2656-0.90625 0.96875-0.85938 1.1562-1.8125 1.1562-1.8438 0-0.10938-0.10938-0.10938-0.125-0.10938-0.0625 0-0.125 0.015625-0.14062 0.10938-0.09375 0.29688-0.34375 1.0469-1.0625 1.6562-0.71875 0.59375-1.3906 0.76562-1.9375 0.76562-0.9375 0-2.0469-0.54688-2.0469-2.1875 0-0.59375 0.21875-2.2969 1.2656-3.5312 0.64062-0.73438 1.625-1.2656 2.5625-1.2656 1.0781 0 1.6875 0.8125 1.6875 2.0312 0 0.42188-0.03125 0.42188-0.03125 0.53125s0.125 0.10938 0.15625 0.10938c0.14062 0 0.14062-0.03125 0.1875-0.21875z"/></symbol><symbol id="a" overflow="visible"><path d="m1.6719-0.8125c-0.10938 0.40625-0.125 0.48438-0.95312 0.48438-0.1875 0-0.29688 0-0.29688 0.20312 0 0.125 0.09375 0.125 0.29688 0.125h3.4688c2.1875 0 4.25-2.2188 4.25-4.5156 0-1.4844-0.89062-2.6562-2.4688-2.6562h-3.5156c-0.20312 0-0.32812 0-0.32812 0.20312 0 0.125 0.09375 0.125 0.3125 0.125 0.14062 0 0.32812 0.015625 0.45312 0.015625 0.17188 0.03125 0.23438 0.0625 0.23438 0.17188 0 0.046875-0.015625 0.078125-0.046875 0.20312zm2.2656-5.6406c0.09375-0.35938 0.10938-0.39062 0.5625-0.39062h1.125c1.0312 0 1.9062 0.54688 1.9062 1.9375 0 0.51562-0.21875 2.2344-1.1094 3.3906-0.29688 0.39062-1.125 1.1875-2.4219 1.1875h-1.1875c-0.14062 0-0.17188 0-0.23438-0.015625-0.09375 0-0.125-0.015625-0.125-0.09375 0-0.03125 0-0.0625 0.046875-0.25z"/></symbol></defs><g><use x="34.356" y="13.512" xlink:href="#e"/><use x="6.334" y="112.726" xlink:href="#d"/><use x="134.994" y="112.726" xlink:href="#c"/><use x="191.688" y="56.032" xlink:href="#b"/><use x="70.109" y="63.318" xlink:href="#a"/></g><path transform="matrix(1 0 0 -1 17.908 109.14)" d="m28.346 99.212 28.348-42.52h113.39m-170.08-56.691 56.695 56.691" fill="none" stroke="#000" stroke-dasharray="2.98883,2.98883" stroke-miterlimit="10" stroke-width=".3985"/><path transform="matrix(1 0 0 -1 17.908 109.14)" d="m28.346 99.212-28.348-99.211h113.39l-85.043 99.211 141.73-42.52-56.691-56.691" fill="none" stroke="#000" stroke-miterlimit="10" stroke-width=".3985"/></svg>
