<?xml version="1.0" encoding="UTF-8"?>
<svg width="134.66pt" height="132.61pt" version="1.2" viewBox="0 0 134.66 132.61" xmlns="http://www.w3.org/2000/svg" xmlns:xlink="http://www.w3.org/1999/xlink"><defs><symbol id="g" overflow="visible"><path d="m7.7656-4.5781c0-1.6875-1.1094-2.8281-2.6719-2.8281-2.2656 0-4.5781 2.3906-4.5781 4.8281 0 1.75 1.1719 2.8125 2.6875 2.8125 2.2188 0 4.5625-2.2969 4.5625-4.8125zm-4.5 4.5312c-1.0469 0-1.7812-0.84375-1.7812-2.2344 0-0.45312 0.15625-2 0.96875-3.2188 0.71875-1.0938 1.75-1.6406 2.5781-1.6406 0.85938 0 1.7969 0.59375 1.7969 2.1562 0 0.75-0.28125 2.3906-1.3125 3.6875-0.5 0.64062-1.375 1.25-2.25 1.25z"/></symbol><symbol id="f" overflow="visible"><path d="m7.9844-7.2969c0-0.03125-0.03125-0.10938-0.125-0.10938-0.03125 0-0.03125 0.015625-0.15625 0.125l-0.73438 0.8125c-0.09375-0.14062-0.57812-0.9375-1.7344-0.9375-2.3438 0-4.7031 2.3281-4.7031 4.7656 0 1.7344 1.2344 2.875 2.8438 2.875 0.90625 0 1.7031-0.42188 2.2656-0.90625 0.96875-0.85938 1.1562-1.8125 1.1562-1.8438 0-0.10938-0.10938-0.10938-0.125-0.10938-0.0625 0-0.125 0.015625-0.14062 0.10938-0.09375 0.29688-0.34375 1.0469-1.0625 1.6562-0.71875 0.59375-1.3906 0.76562-1.9375 0.76562-0.9375 0-2.0469-0.54688-2.0469-2.1875 0-0.59375 0.21875-2.2969 1.2656-3.5312 0.64062-0.73438 1.625-1.2656 2.5625-1.2656 1.0781 0 1.6875 0.8125 1.6875 2.0312 0 0.42188-0.03125 0.42188-0.03125 0.53125s0.125 0.10938 0.15625 0.10938c0.14062 0 0.14062-0.03125 0.1875-0.21875z"/></symbol><symbol id="e" overflow="visible"><path d="m7.4375-2.4531c0.015625-0.046875 0.046875-0.125 0.046875-0.14062s0-0.10938-0.125-0.10938c-0.09375 0-0.10938 0.0625-0.14062 0.125-0.67188 1.5469-1.0625 2.25-2.8594 2.25h-1.5312c-0.15625 0-0.17188 0-0.23438-0.015625-0.10938 0-0.14062-0.015625-0.14062-0.09375 0-0.03125 0-0.0625 0.0625-0.25l0.70312-2.8594h1.0469c0.89062 0 0.89062 0.21875 0.89062 0.48438 0 0.0625 0 0.20312-0.078125 0.51562-0.015625 0.046875-0.03125 0.078125-0.03125 0.10938 0 0.046875 0.046875 0.10938 0.14062 0.10938 0.078125 0 0.10938-0.046875 0.15625-0.20312l0.59375-2.4531c0-0.0625-0.046875-0.125-0.125-0.125-0.09375 0-0.10938 0.0625-0.14062 0.20312-0.21875 0.79688-0.40625 1.0312-1.375 1.0312h-0.98438l0.625-2.5312c0.09375-0.35938 0.10938-0.40625 0.5625-0.40625h1.4844c1.2812 0 1.5938 0.29688 1.5938 1.1562 0 0.26562 0 0.28125-0.046875 0.5625v0.1875c0 0.0625 0.03125 0.125 0.125 0.125 0.10938 0 0.125-0.0625 0.14062-0.26562l0.21875-1.8125c0.03125-0.28125-0.03125-0.28125-0.28125-0.28125h-5.3125c-0.20312 0-0.3125 0-0.3125 0.20312 0 0.125 0.09375 0.125 0.29688 0.125 0.39062 0 0.6875 0 0.6875 0.1875 0 0.046875 0 0.0625-0.0625 0.25l-1.375 5.5625c-0.10938 0.40625-0.14062 0.48438-0.96875 0.48438-0.17188 0-0.28125 0-0.28125 0.20312 0 0.125 0.09375 0.125 0.28125 0.125h5.4531c0.25 0 0.25-0.015625 0.32812-0.17188z"/></symbol><symbol id="d" overflow="visible"><path d="m1.875-1.2031c-0.42188 0.70312-0.82812 0.84375-1.2812 0.875-0.125 0.015625-0.21875 0.015625-0.21875 0.21875 0 0.0625 0.046875 0.10938 0.125 0.10938 0.28125 0 0.60938-0.03125 0.90625-0.03125 0.34375 0 0.71875 0.03125 1.0469 0.03125 0.0625 0 0.20312 0 0.20312-0.20312 0-0.10938-0.09375-0.125-0.17188-0.125-0.23438-0.015625-0.48438-0.10938-0.48438-0.35938 0-0.125 0.0625-0.25 0.14062-0.39062l0.79688-1.3438h2.6406c0.015625 0.21875 0.17188 1.6406 0.17188 1.75 0 0.3125-0.54688 0.34375-0.76562 0.34375-0.14062 0-0.25 0-0.25 0.21875 0 0.10938 0.125 0.10938 0.14062 0.10938 0.4375 0 0.89062-0.03125 1.3125-0.03125 0.26562 0 0.9375 0.03125 1.1875 0.03125 0.0625 0 0.20312 0 0.20312-0.20312 0-0.125-0.10938-0.125-0.25-0.125-0.65625 0-0.65625-0.078125-0.6875-0.375l-0.64062-6.5625c-0.015625-0.20312-0.015625-0.25-0.1875-0.25s-0.21875 0.078125-0.28125 0.17188zm1.2656-1.5469 2.0625-3.4688 0.34375 3.4688z"/></symbol><symbol id="c" overflow="visible"><path d="m3.1875-3.4062h1.0156c0.78125 0 0.875 0.15625 0.875 0.46875 0 0.078125 0 0.20312-0.078125 0.51562-0.015625 0.046875-0.03125 0.09375-0.03125 0.10938 0 0.09375 0.0625 0.125 0.125 0.125 0.10938 0 0.10938-0.03125 0.15625-0.21875l0.57812-2.2812c0.03125-0.10938 0.03125-0.125 0.03125-0.15625s-0.015625-0.125-0.125-0.125-0.10938 0.0625-0.15625 0.21875c-0.21875 0.82812-0.46875 1.0156-1.3594 1.0156h-0.95312l0.67188-2.6719c0.09375-0.35938 0.10938-0.40625 0.5625-0.40625h1.3906c1.2969 0 1.5312 0.34375 1.5312 1.1562 0 0.23438 0 0.28125-0.03125 0.5625-0.015625 0.14062-0.015625 0.15625-0.015625 0.1875 0 0.0625 0.03125 0.125 0.125 0.125 0.10938 0 0.125-0.0625 0.14062-0.26562l0.21875-1.8125c0.03125-0.28125-0.03125-0.28125-0.28125-0.28125h-5.1562c-0.20312 0-0.3125 0-0.3125 0.20312 0 0.125 0.09375 0.125 0.29688 0.125 0.39062 0 0.6875 0 0.6875 0.1875 0 0.046875 0 0.0625-0.0625 0.25l-1.375 5.5625c-0.10938 0.40625-0.14062 0.48438-0.96875 0.48438-0.17188 0-0.28125 0-0.28125 0.20312 0 0.125 0.125 0.125 0.15625 0.125 0.29688 0 1.0781-0.03125 1.375-0.03125 0.34375 0 1.2188 0.03125 1.5625 0.03125 0.09375 0 0.23438 0 0.23438-0.20312 0-0.078125-0.0625-0.09375-0.0625-0.10938-0.03125-0.015625-0.0625-0.015625-0.29688-0.015625s-0.28125 0-0.54688-0.015625c-0.3125-0.03125-0.34375-0.078125-0.34375-0.21875 0-0.015625 0-0.078125 0.046875-0.23438z"/></symbol><symbol id="b" overflow="visible"><path d="m1.6875-0.8125c-0.10938 0.40625-0.14062 0.48438-0.96875 0.48438-0.17188 0-0.28125 0-0.28125 0.21875 0 0.10938 0.09375 0.10938 0.28125 0.10938h3.75c1.6562 0 2.9062-1.2344 2.9062-2.2656 0-0.76562-0.60938-1.375-1.625-1.4844 1.0781-0.20312 2.1875-0.96875 2.1875-1.9688 0-0.78125-0.6875-1.4531-1.9531-1.4531h-3.5312c-0.20312 0-0.29688 0-0.29688 0.20312 0 0.125 0.09375 0.125 0.29688 0.125 0.015625 0 0.21875 0 0.39062 0.015625 0.1875 0.03125 0.28125 0.03125 0.28125 0.17188 0 0.046875 0 0.078125-0.03125 0.20312zm1.5781-3.0312 0.65625-2.6094c0.09375-0.35938 0.10938-0.39062 0.5625-0.39062h1.3594c0.92188 0 1.1406 0.625 1.1406 1.0781 0 0.92188-0.90625 1.9219-2.1875 1.9219zm-0.46875 3.5156c-0.15625 0-0.17188 0-0.23438-0.015625-0.10938 0-0.14062-0.015625-0.14062-0.09375 0-0.03125 0-0.0625 0.0625-0.25l0.71875-2.9219h1.9844c1 0 1.2031 0.78125 1.2031 1.2188 0 1.0469-0.9375 2.0625-2.1719 2.0625z"/></symbol><symbol id="a" overflow="visible"><path d="m1.6719-0.8125c-0.10938 0.40625-0.125 0.48438-0.95312 0.48438-0.1875 0-0.29688 0-0.29688 0.20312 0 0.125 0.09375 0.125 0.29688 0.125h3.4688c2.1875 0 4.25-2.2188 4.25-4.5156 0-1.4844-0.89062-2.6562-2.4688-2.6562h-3.5156c-0.20312 0-0.32812 0-0.32812 0.20312 0 0.125 0.09375 0.125 0.3125 0.125 0.14062 0 0.32812 0.015625 0.45312 0.015625 0.17188 0.03125 0.23438 0.0625 0.23438 0.17188 0 0.046875-0.015625 0.078125-0.046875 0.20312zm2.2656-5.6406c0.09375-0.35938 0.10938-0.39062 0.5625-0.39062h1.125c1.0312 0 1.9062 0.54688 1.9062 1.9375 0 0.51562-0.21875 2.2344-1.1094 3.3906-0.29688 0.39062-1.125 1.1875-2.4219 1.1875h-1.1875c-0.14062 0-0.17188 0-0.23438-0.015625-0.09375 0-0.125-0.015625-0.125-0.09375 0-0.03125 0-0.0625 0.046875-0.25z"/></symbol><clipPath id="h"><path d="m12 3h122.66v126h-122.66z"/></clipPath></defs><g><use x="78.635" y="69.893" xlink:href="#g"/><use x="104.147" y="69.893" xlink:href="#f"/><use x="106.982" y="13.508" xlink:href="#e"/><use x="50.606" y="40.512" xlink:href="#d"/><use x="6.333" y="69.893" xlink:href="#c"/><use x="49.99" y="99.273" xlink:href="#b"/><use x="106.982" y="126.277" xlink:href="#a"/></g><path transform="matrix(1,0,0,-1,74.936,66.305)" d="m28.345-49.097-2.832 49.098 2.832 49.098-41.102-27.004-43.938-22.094 43.938-22.094z" fill="none" stroke="#000" stroke-dasharray="2.98883,2.98883" stroke-miterlimit="10" stroke-width=".3985"/><g clip-path="url(#h)"><path transform="matrix(1,0,0,-1,74.936,66.305)" d="m56.693 3.125e-4c0 31.312-25.383 56.691-56.691 56.691-31.312 0-56.695-25.379-56.695-56.691 0-31.313 25.383-56.695 56.695-56.695 31.309 0 56.691 25.383 56.691 56.695zm-69.449 22.094v-44.188l38.27 22.094z" fill="none" stroke="#000" stroke-miterlimit="10" stroke-width=".3985"/></g><path transform="matrix(1,0,0,-1,74.936,66.305)" d="m0.99759 3.125e-4c0 0.55078-0.44922 0.99609-0.99609 0.99609-0.55078 0-0.99609-0.44531-0.99609-0.99609s0.44531-0.99609 0.99609-0.99609c0.54688 0 0.99609 0.44531 0.99609 0.99609z" stroke="#000" stroke-miterlimit="10" stroke-width=".3985"/></svg>
