<svg xmlns="http://www.w3.org/2000/svg" version="1.1" xml:space="preserve" width="265.4133" height="150.2133"><defs/><g style="font-style:italic;font-variant:normal;font-weight:400;font-size:9.9626px;font-family:CMMI10;-inkscape-font-specification:CMMI10;writing-mode:lr-tb;fill:#000;fill-opacity:1;fill-rule:nonzero;stroke:none"><path d="M42.4606 13.5013q-.1297 0-.1297-.175.0065-.0325.026-.1104.0194-.0843.0518-.1297.039-.0519.0908-.0519.8108 0 1.135-.0908.1687-.0583.2466-.3567L45.7036 5.29q.026-.1297.026-.1816 0-.1427-.1557-.1622-.253-.0519-.96-.0519-.1296 0-.1296-.1751.0064-.0324.0259-.1103.0195-.0843.0519-.1297.039-.0519.0908-.0519h4.5856q.6292 0 1.2194.227.5903.2206.9665.681.3761.4606.3761 1.1157 0 .8432-.5967 1.5047-.5902.6616-1.4788 1.0313-.8821.3697-1.7123.3697h-2.1599l-.8107 3.282q-.026.1297-.026.188 0 .052.013.0909.0194.0324.0454.0454l.0973.0194q.253.052.96.052.1296 0 .1296.175-.0454.1882-.0713.24-.026.052-.1557.052zm3.457-4.5402h1.8616q1.2907 0 1.9653-.694.3437-.3438.5578-.9924.2205-.6486.2205-1.174 0-.655-.4994-.9275-.4995-.2789-1.2389-.2789h-1.2712q-.3633 0-.48.0649-.1168.0584-.214.3891z" style="font-style:normal;font-variant:normal;font-weight:400;font-stretch:normal;font-family:CMMI10;-inkscape-font-specification:CMMI10" aria-label="P"/></g><g style="font-style:italic;font-variant:normal;font-weight:400;font-size:9.9626px;font-family:CMMI10;-inkscape-font-specification:CMMI10;writing-mode:lr-tb;fill:#000;fill-opacity:1;fill-rule:nonzero;stroke:none"><path d="M5.0234 145.7867q-.1297 0-.1297-.1752.0519-.2918.1686-.2918.5383 0 .9275-.214.3957-.2141.681-.6617l.026-.0259 4.7413-7.9973q.1038-.1427.253-.1427h.175q.039 0 .078.0194.0388.013.0648.052.0324.0324.0324.0713l.8043 8.581q0 .0584.0584.1752.1297.1427.9923.1427.1362 0 .1362.175-.0454.1752-.0778.2336-.026.0584-.1492.0584h-3.3208q-.1233 0-.1233-.1752.0714-.2918.1751-.2918 1.0508 0 1.1156-.3568l-.201-2.1923H8.1756l-1.0637 1.7837q-.0973.1427-.0973.3308 0 .2335.2205.3373.227.0973.4995.0973.1297 0 .1297.175-.0454.1882-.0714.24-.026.052-.1491.052zm3.4117-3.483h2.964l-.3956-4.3003z" style="font-style:normal;font-variant:normal;font-weight:400;font-stretch:normal;font-family:CMMI10;-inkscape-font-specification:CMMI10" aria-label="A"/></g><g style="font-style:italic;font-variant:normal;font-weight:400;font-size:9.9626px;font-family:CMMI10;-inkscape-font-specification:CMMI10;writing-mode:lr-tb;fill:#000;fill-opacity:1;fill-rule:nonzero;stroke:none"><path d="M175.6202 145.7867q-.1297 0-.1297-.1752.0065-.0324.026-.1102.0194-.0779.0519-.1297.0324-.052.0972-.052.3762 0 .6551-.0194.279-.0194.4735-.0713.1557-.0584.253-.3568l1.816-7.2968q.026-.1297.026-.1816 0-.1427-.1556-.1622-.253-.0518-.96-.0518-.1297 0-.1297-.1752.0065-.0324.026-.1102.0194-.0844.0518-.1298.039-.0518.0908-.0518h4.7608q.4346 0 .8562.1102.428.1038.7848.3373.3632.2335.5708.5837.214.3438.214.8043 0 .4994-.2594.9275-.253.4281-.6616.746-.4022.3177-.8756.5253-.467.201-.9794.2983.3632 0 .7329.1427.3762.1427.668.3892.292.2465.467.5902.1817.3438.1817.7395 0 .7977-.5578 1.4593-.5578.6616-1.4075 1.0443-.8432.3762-1.6345.3762zm2.4453-.5708q0 .1038.454.1038h1.9004q.6486 0 1.2454-.3568.5967-.3632.9534-.96.3632-.5966.3632-1.2452 0-.3957-.1686-.746-.1622-.3567-.4735-.5577-.3113-.2076-.7135-.2076h-2.5879l-.921 3.6776q-.052.1816-.052.2919zm1.0637-4.3197h2.0172q.6356 0 1.2323-.3243.6032-.3243.9794-.8821.3827-.5578.3827-1.1805 0-.5773-.3632-.9535-.3568-.3761-.9275-.3761h-1.8226q-.3567 0-.48.0648-.1232.0649-.2075.3892z" style="font-style:normal;font-variant:normal;font-weight:400;font-stretch:normal;font-family:CMMI10;-inkscape-font-specification:CMMI10" aria-label="B"/></g><g><g style="font-style:italic;font-variant:normal;font-weight:400;font-size:9.9626px;font-family:CMMI10;-inkscape-font-specification:CMMI10;writing-mode:lr-tb;fill:#000;fill-opacity:1;fill-rule:nonzero;stroke:none"><path d="M252.49 67.3278q0 .7978.3048 1.4075.3114.6032.8951.947.5902.3372 1.388.3372.8367 0 1.6086-.428.7783-.4281 1.3231-1.1416.5514-.72.7524-1.5242.026-.0778.1038-.0778h.1622q.0518 0 .0843.0389.0324.0324.0324.0778 0 .013-.013.039-.227.921-.882 1.7317-.6487.8043-1.5567 1.2778-.908.4734-1.868.4734-1.0378 0-1.8615-.467-.8238-.467-1.2843-1.2972-.454-.8302-.454-1.8744 0-1.1156.4994-2.2053.4995-1.0962 1.3427-1.9458.8431-.8562 1.9198-1.3621 1.0832-.506 2.1923-.506.441 0 .8432.1363.4021.1297.746.4021.3437.2724.5642.6292l1.0507-1.1416q0-.026.0649-.026h.0778q.052 0 .0844.0455.0324.0454.0324.0908l-.9016 3.5868q0 .0908-.1038.0908h-.24q-.1037 0-.1037-.1492.0519-.2919.0519-.7005 0-.6486-.2206-1.2194-.2205-.5772-.6875-.9275-.4605-.3502-1.1286-.3502-1.0831 0-1.9847.5448t-1.5307 1.4334q-.6227.8821-.9664 1.9653-.3373 1.0767-.3373 2.0885z" style="font-style:normal;font-variant:normal;font-weight:400;font-stretch:normal;font-family:CMMI10;-inkscape-font-specification:CMMI10" aria-label="C"/></g></g><g><g style="font-style:italic;font-variant:normal;font-weight:400;font-size:9.9626px;font-family:CMMI10;-inkscape-font-specification:CMMI10;writing-mode:lr-tb;fill:#000;fill-opacity:1;fill-rule:nonzero;stroke:none"><path d="M89.6393 79.4267q-.1298 0-.1298-.1752.0065-.0324.026-.1102.0195-.0843.0519-.1297.0389-.052.0908-.052.8107 0 1.135-.0907.1687-.0584.2465-.3568l1.8226-7.2968q.026-.1297.026-.1816 0-.1427-.1557-.1622-.253-.0518-.96-.0518-.1297 0-.1297-.1752.0065-.0324.026-.1102.0194-.0844.0519-.1298.0389-.0518.0908-.0518h4.7737q.9275 0 1.6215.454.694.4475 1.0637 1.2129.3697.7588.3697 1.6799 0 1.0183-.4215 2.0366-.4216 1.0183-1.1805 1.8615-.7589.8432-1.7318 1.3361-.9729.493-1.9977.493zm2.4841-.5708q0 .1038.454.1038h1.5437q.7395 0 1.427-.3049.6875-.3048 1.2258-.8367.4995-.4994.8822-1.3102.3826-.8107.5902-1.6928.214-.8821.214-1.6215 0-.5384-.1621-.973-.1557-.4345-.4476-.7459-.2854-.3113-.72-.48-.4345-.175-.9793-.175h-1.4594q-.3632 0-.48.0648-.1167.0584-.214.3892l-1.816 7.2903q-.0585.1622-.0585.2919z" style="font-style:normal;font-variant:normal;font-weight:400;font-stretch:normal;font-family:CMMI10;-inkscape-font-specification:CMMI10" aria-label="D"/></g></g><g><path d="M56.8784 8.963l37.7958 56.6935h151.183M19.0826 141.248l75.5915-75.5915" style="fill:none;stroke:#000;stroke-width:.3985;stroke-linecap:butt;stroke-linejoin:miter;stroke-miterlimit:10;stroke-dasharray:2.98883,2.98883;stroke-dashoffset:0;stroke-opacity:1"/></g><path d="M56.8784 8.963L19.0827 141.248h151.183L56.8783 8.963l188.9787 56.6935-75.5915 75.5915" style="fill:none;stroke:#000;stroke-width:.3985;stroke-linecap:butt;stroke-linejoin:miter;stroke-miterlimit:10;stroke-dasharray:none;stroke-opacity:1"/></svg>