<?xml version="1.0" encoding="UTF-8"?>
<svg width="102.86pt" height="163.67pt" version="1.2" viewBox="0 0 102.86 163.67" xmlns="http://www.w3.org/2000/svg" xmlns:xlink="http://www.w3.org/1999/xlink"><defs><symbol id="q" overflow="visible"><path d="m0.29688-3.6406 0.45312 0.5 0.21875-0.10938c0.046875-0.015625 0.17188-0.03125 0.375-0.0625s0.375-0.03125 0.5-0.03125h1.5l-0.03125 0.48438c-0.03125 0.53125-0.09375 1.0312-0.1875 1.4688-0.09375 0.45312-0.3125 0.90625-0.625 1.375-0.3125 0.48438-1 0.95312-2.0625 1.4531l0.09375 0.17188c0.60938-0.25 1.0938-0.46875 1.4375-0.6875 0.35938-0.20312 0.70312-0.46875 1.0156-0.8125 0.29688-0.34375 0.53125-0.73438 0.67188-1.1875 0.14062-0.4375 0.23438-0.85938 0.26562-1.25 0.03125-0.40625 0.0625-0.73438 0.09375-1.0156h2.5938v3.3281l-0.09375 1.6875c0.3125-0.09375 0.48438-0.15625 0.54688-0.1875 0.0625-0.015625 0.14062-0.0625 0.26562-0.15625l-0.078125-1.25v-3.4219h2.7188c0.046875 0 0.078125-0.015625 0.09375-0.0625 0.015625-0.015625-0.03125-0.078125-0.10938-0.17188l-0.71875-0.71875-0.64062 0.70312h-1.3281v-3.1406c0.046875-0.015625 0.10938-0.046875 0.15625-0.078125l2.1406-0.015625c0.03125 0 0.0625-0.015625 0.0625-0.03125 0.015625-0.046875-0.03125-0.10938-0.09375-0.17188l-0.8125-0.73438-0.5 0.70312h-5.8906l-1.375-0.0625 0.375 0.48438 0.20312-0.09375c0.14062-0.046875 0.40625-0.078125 0.8125-0.078125h1.0625l-0.0625 3.2188h-1.6562zm3.7188 0.046875 0.03125-0.53125c0.015625-0.5 0.03125-1.3906 0.046875-2.6875h2.5156v3.2188z"/></symbol><symbol id="p" overflow="visible"><path d="m0.21875 1.6719 0.046875 0.10938 0.67188-0.32812c0.09375-0.03125 0.35938-0.20312 0.76562-0.51562 0.42188-0.28125 0.71875-0.53125 0.90625-0.73438 0.17188-0.1875 0.35938-0.375 0.51562-0.59375 0.28125 0.3125 0.46875 0.48438 0.51562 0.5625 0.0625 0.0625 0.125 0.17188 0.1875 0.32812 0.078125 0.14062 0.14062 0.25 0.20312 0.3125 0.046875 0.09375 0.09375 0.125 0.14062 0.125 0.0625 0 0.125-0.03125 0.20312-0.10938 0.0625-0.078125 0.125-0.17188 0.15625-0.29688 0.03125-0.14062 0.03125-0.26562 0-0.35938s-0.09375-0.1875-0.20312-0.3125c-0.125-0.125-0.23438-0.23438-0.35938-0.32812-0.14062-0.09375-0.3125-0.21875-0.54688-0.35938l0.3125-0.70312c0.125-0.23438 0.21875-0.57812 0.3125-1.0312s0.17188-0.85938 0.21875-1.2188c0.046875-0.34375 0.09375-0.75 0.14062-1.1719l0.3125-0.25c0.046875-0.03125 0.0625-0.0625 0.0625-0.09375 0-0.015625-0.03125-0.046875-0.09375-0.09375l-0.6875-0.45312-0.39062 0.53125h-0.9375c0.09375-0.6875 0.21875-1.375 0.34375-2.0938l0.25-0.125c0.10938-0.046875 0.17188-0.09375 0.15625-0.10938-0.015625-0.03125-0.046875-0.0625-0.125-0.09375l-0.89062-0.35938-0.078125 0.9375c-0.03125 0.25-0.10938 0.85938-0.26562 1.8438h-0.85938l-0.78125-0.03125 0.39062 0.375c0.25-0.078125 0.4375-0.125 0.57812-0.125h0.64062l-0.0625 0.4375c0 0.03125-0.0625 0.34375-0.17188 0.9375s-0.20312 0.96875-0.25 1.1406c-0.03125 0.14062-0.125 0.46875-0.28125 0.96875l0.57812 0.23438c0.03125 0.015625 0.15625 0.09375 0.35938 0.23438 0.21875 0.14062 0.39062 0.29688 0.53125 0.42188-0.20312 0.28125-0.375 0.53125-0.54688 0.70312-0.15625 0.1875-0.34375 0.39062-0.59375 0.625s-0.71875 0.59375-1.375 1.0625zm1.6875-3.3125 0.28125-1.2188c0.046875-0.23438 0.20312-0.98438 0.42188-2.2344h1.2188l-0.03125 0.34375c0 0.09375-0.03125 0.32812-0.078125 0.70312-0.046875 0.35938-0.10938 0.76562-0.1875 1.2031-0.0625 0.42188-0.15625 0.78125-0.28125 1.0625-0.10938 0.29688-0.21875 0.51562-0.28125 0.67188zm5.0312-6.5156-0.26562 0.76562c-0.03125 0.10938-0.15625 0.40625-0.39062 0.90625-0.25 0.5-0.46875 0.9375-0.71875 1.3125-0.23438 0.39062-0.40625 0.60938-0.5 0.65625-0.10938 0.046875-0.25 0.0625-0.42188 0.046875l0.40625 0.82812 0.5-0.17188c0.10938-0.03125 0.35938-0.078125 0.75-0.10938 0.40625-0.046875 1.3594-0.15625 2.875-0.35938l0.125 0.375 0.10938 0.45312c0.046875 0.09375 0.125 0.14062 0.1875 0.15625 0.046875 0.015625 0.10938-0.03125 0.1875-0.10938 0.0625-0.078125 0.125-0.15625 0.17188-0.26562 0.046875-0.09375 0.0625-0.1875 0.078125-0.28125 0-0.125-0.0625-0.34375-0.21875-0.625-0.14062-0.26562-0.73438-0.8125-1.7969-1.6094l-0.078125 0.09375c0.03125 0.046875 0.17188 0.23438 0.4375 0.5625 0.28125 0.32812 0.42188 0.53125 0.48438 0.625 0.046875 0.0625 0.125 0.1875 0.23438 0.35938l-3.6094 0.10938c0.625-0.875 1.2812-1.8125 1.9531-2.8125l0.29688-0.09375c0.09375-0.015625 0.125-0.046875 0.14062-0.09375 0-0.03125-0.046875-0.09375-0.17188-0.17188zm1.7344 5.0938-0.32812 0.48438h-2.2812l-0.79688-0.45312 0.0625 1.1094v2.2812l-0.09375 1.4062c0.3125-0.09375 0.53125-0.21875 0.6875-0.32812v-0.84375l2.5469 0.015625v1.1406c0.1875-0.0625 0.32812-0.125 0.42188-0.17188 0.078125-0.0625 0.17188-0.125 0.28125-0.21875l-0.0625-1.0312v-2.4219l0.25-0.25c0.078125-0.0625 0.10938-0.10938 0.125-0.10938 0-0.03125-0.0625-0.078125-0.17188-0.17188zm-0.20312 3.4219-2.5469-0.015625v-2.6719h2.5469z"/></symbol><symbol id="d" overflow="visible"><path d="m0.48438-0.9375 0.40625 0.65625c0.40625-0.23438 0.67188-0.375 0.79688-0.4375s0.32812-0.15625 0.64062-0.28125v1.8281l-0.046875 0.92188c0.23438-0.09375 0.42188-0.1875 0.57812-0.29688l-0.03125-0.75v-1.9219l1.3125-0.54688-0.046875-0.15625-1.2656 0.39062v-1.4844h1.2812c0.046875 0 0.09375-0.015625 0.10938-0.046875s-0.015625-0.078125-0.10938-0.17188l-0.54688-0.54688-0.4375 0.51562h-0.29688l0.015625-1.0469 0.1875-0.10938c0.0625-0.03125 0.09375-0.0625 0.09375-0.078125 0.015625-0.03125-0.03125-0.0625-0.10938-0.09375l-0.73438-0.35938 0.046875 1.0938v0.59375h-0.85938c0.21875-0.71875 0.4375-1.5156 0.65625-2.3906h2.125c0.09375 0 0.14062 0 0.15625-0.03125 0-0.015625-0.03125-0.0625-0.078125-0.10938l-0.73438-0.625-0.45312 0.51562-0.92188 0.015625 0.35938-1.2344 0.21875-0.09375c0.0625-0.03125 0.09375-0.0625 0.09375-0.09375s-0.03125-0.0625-0.10938-0.09375l-0.75-0.39062-0.09375 0.57812c-0.03125 0.1875-0.125 0.64062-0.28125 1.3281h-0.625l-0.5625-0.015625 0.3125 0.375c0.15625-0.078125 0.3125-0.125 0.42188-0.125h0.375c-0.125 0.57812-0.23438 1-0.32812 1.2812l-0.20312 0.67188c-0.03125 0.078125-0.078125 0.14062-0.125 0.20312s-0.17188 0.125-0.32812 0.25l0.65625 0.64062 0.26562-0.40625h0.8125v1.625c-0.57812 0.1875-0.9375 0.28125-1.125 0.3125-0.17188 0.046875-0.42188 0.09375-0.71875 0.14062zm3.0625-3.2344 0.078125 0.078125c0.95312-0.625 1.6094-1.1719 2-1.6562 0.375-0.46875 0.73438-0.9375 1.0469-1.4062l0.10938 0.32812c0.03125 0.125 0.125 0.28125 0.25 0.46875s0.26562 0.35938 0.42188 0.51562c0.15625 0.17188 0.375 0.375 0.64062 0.60938 0.28125 0.23438 0.46875 0.39062 0.57812 0.45312 0.10938 0.078125 0.26562 0.15625 0.46875 0.26562 0.125-0.20312 0.25-0.32812 0.34375-0.375 0.125-0.0625 0.29688-0.09375 0.54688-0.09375v-0.125c-0.35938-0.0625-0.64062-0.14062-0.85938-0.21875-0.21875-0.0625-0.54688-0.21875-0.95312-0.46875-0.42188-0.25-0.75-0.5-0.9375-0.78125-0.20312-0.28125-0.375-0.51562-0.48438-0.71875l0.046875-0.046875 0.1875-0.03125c0.046875-0.015625 0.0625-0.03125 0.078125-0.0625s-0.015625-0.0625-0.078125-0.09375l-0.82812-0.40625-0.078125 0.28125c-0.0625 0.1875-0.15625 0.40625-0.28125 0.6875-0.15625 0.28125-0.35938 0.60938-0.60938 1-0.28125 0.375-0.82812 0.98438-1.6875 1.7969zm0.6875 5.9531 0.15625-0.0625 0.32812-0.14062c0.03125 0 0.0625-0.03125 0.09375-0.0625l-0.03125-0.64062v-1.625h1.2031v1.2812c0 0.15625-0.03125 0.25-0.078125 0.3125-0.0625 0.046875-0.14062 0.078125-0.21875 0.078125-0.0625 0.015625-0.34375-0.015625-0.79688-0.046875l-0.015625 0.125c0.34375 0.078125 0.54688 0.15625 0.64062 0.23438 0.078125 0.0625 0.14062 0.14062 0.17188 0.1875 0.03125 0.0625 0.046875 0.15625 0.0625 0.26562 0.26562-0.10938 0.4375-0.21875 0.57812-0.35938 0.09375-0.125 0.15625-0.3125 0.15625-0.53125v-4.1406l0.25-0.15625c0.0625-0.03125 0.078125-0.0625 0.0625-0.09375 0-0.046875 0-0.0625-0.03125-0.09375l-0.60938-0.46875-0.32812 0.42188h-1.0156l-0.57812-0.375 0.046875 1.3906v3.3438zm0.54688-2.7812v-1.1875h1.2031v1.1875zm0-1.4219v-1.0781h1.2031v1.0781zm2.1875-2.5156h-1.4844l-0.54688-0.015625 0.32812 0.35938c0.17188-0.078125 0.32812-0.10938 0.48438-0.09375h2.25c0.078125 0 0.10938-0.015625 0.10938-0.046875 0.015625-0.03125-0.015625-0.078125-0.078125-0.14062l-0.60938-0.5625zm1.5 0.85938 0.046875 1.125v3.3906c0 0.125-0.046875 0.21875-0.10938 0.29688-0.078125 0.0625-0.26562 0.078125-0.53125 0.046875s-0.57812-0.0625-0.92188-0.09375l-0.015625 0.125c0.5 0.1875 0.79688 0.29688 0.875 0.34375s0.14062 0.125 0.1875 0.21875 0.078125 0.21875 0.10938 0.375c0.32812-0.15625 0.53125-0.26562 0.625-0.35938s0.17188-0.1875 0.21875-0.3125c0.03125-0.10938 0.0625-0.26562 0.0625-0.42188v-4.0469l0.23438-0.1875c0.046875-0.046875 0.078125-0.078125 0.078125-0.09375-0.015625 0-0.046875-0.03125-0.10938-0.0625zm-1.3281 4.0312c0.21875-0.078125 0.35938-0.125 0.40625-0.15625 0.0625-0.03125 0.10938-0.0625 0.15625-0.125l-0.03125-0.64062v-2.0312l0.1875-0.125c0.0625-0.03125 0.10938-0.0625 0.09375-0.09375 0 0-0.03125-0.03125-0.078125-0.0625l-0.75-0.39062 0.0625 0.90625v1.8125z"/></symbol><symbol id="o" overflow="visible"><path d="m5.125-5.7656c-0.15625 0.54688-0.3125 1.0156-0.48438 1.375-0.14062 0.375-0.34375 0.79688-0.59375 1.2344-0.21875 0.45312-0.45312 0.82812-0.64062 1.1406-0.20312 0.32812-0.45312 0.65625-0.73438 1.0312-0.29688 0.35938-0.60938 0.6875-0.92188 1-0.3125 0.29688-0.84375 0.73438-1.5625 1.3125l0.078125 0.10938c0.54688-0.29688 1.0781-0.625 1.5625-1 0.5-0.35938 0.98438-0.82812 1.4688-1.4062 0.46875-0.5625 0.875-1.1562 1.2344-1.7812 0.34375-0.625 0.5625-1.0312 0.64062-1.2031 0.09375-0.1875 0.1875-0.39062 0.28125-0.59375l0.32812 1.125c0.046875 0.20312 0.15625 0.53125 0.34375 0.96875 0.17188 0.45312 0.34375 0.8125 0.51562 1.0938 0.14062 0.25 0.34375 0.54688 0.57812 0.85938 0.25 0.29688 0.45312 0.54688 0.65625 0.76562 0.20312 0.23438 0.53125 0.54688 1.0156 1l0.28125-0.29688c0.03125-0.0625 0.125-0.10938 0.28125-0.15625 0.17188-0.0625 0.40625-0.0625 0.75-0.0625l0.03125-0.125c-0.42188-0.1875-0.78125-0.34375-1.0312-0.48438s-0.59375-0.375-1-0.70312c-0.40625-0.3125-0.79688-0.73438-1.1094-1.25-0.32812-0.48438-0.625-1.0469-0.875-1.6719s-0.4375-1.1719-0.5625-1.6406-0.20312-0.78125-0.23438-0.96875c-0.03125-0.17188-0.046875-0.39062-0.0625-0.64062l0.28125-0.29688c0.0625-0.0625 0.09375-0.09375 0.09375-0.125s-0.03125-0.046875-0.09375-0.0625l-1.1094-0.3125 0.26562 0.6875z"/></symbol><symbol id="n" overflow="visible"><path d="m1.4219-2.5781 0.0625 0.96875v1.9844l-0.375 0.26562 0.75 0.53125 0.32812-0.46875h6.0781v0.98438l0.10938-0.03125 0.28125-0.125c0.15625-0.046875 0.26562-0.10938 0.3125-0.14062l-0.046875-0.98438v-2.2656l0.21875-0.17188c0.046875-0.046875 0.0625-0.078125 0.0625-0.09375 0-0.03125-0.03125-0.0625-0.10938-0.09375l-0.89062-0.32812 0.0625 1.0312v1.9844h-2.8125v-4.0781h2.4219v0.35938c0.25-0.03125 0.48438-0.10938 0.6875-0.25l-0.046875-1.0312v-1.4375l0.23438-0.1875c0.046875-0.03125 0.0625-0.0625 0.0625-0.078125 0-0.03125-0.015625-0.046875-0.0625-0.0625l-0.9375-0.4375 0.0625 1.125v1.75h-2.4219v-3.3438l0.26562-0.17188c0.09375-0.0625 0.125-0.09375 0.125-0.10938s-0.03125-0.046875-0.125-0.09375l-0.92188-0.39062 0.046875 1.4844v2.625h-2.2344v-2.0938l0.21875-0.20312 0.09375-0.09375c0-0.015625-0.03125-0.015625-0.09375-0.046875l-0.875-0.34375 0.015625 1.1875v1.2812l-0.35938 0.34375 0.64062 0.57812 0.39062-0.35938h2.2031v4.0781h-2.7188v-2.3281l0.28125-0.17188c0.078125-0.0625 0.10938-0.09375 0.10938-0.09375 0.015625-0.015625-0.03125-0.046875-0.125-0.09375z"/></symbol><symbol id="m" overflow="visible"><path d="m0.34375-4.5625 0.4375 0.67188c0.42188-0.15625 0.76562-0.26562 1.0625-0.32812 0.28125-0.0625 0.60938-0.125 0.95312-0.1875l-0.39062 0.64062-0.65625 0.96875c-0.17188 0.23438-0.29688 0.375-0.39062 0.4375-0.09375 0.078125-0.29688 0.15625-0.57812 0.23438l0.42188 0.6875 0.29688-0.14062c0.078125-0.046875 0.45312-0.17188 1.1094-0.32812 0.64062-0.1875 1.1875-0.32812 1.6406-0.45312l-0.015625-0.15625c-0.82812 0.10938-1.6562 0.20312-2.4844 0.29688l0.21875-0.3125 0.98438-1.2344c0.03125-0.03125 0.42188-0.57812 1.1875-1.625l0.26562-0.03125c0.0625 0 0.09375 0 0.10938-0.03125s-0.015625-0.078125-0.10938-0.15625l-0.6875-0.60938-0.125 0.35938c-0.03125 0.09375-0.09375 0.20312-0.17188 0.35938-0.078125 0.14062-0.23438 0.40625-0.46875 0.8125-0.625 0.03125-1.2344 0.0625-1.8438 0.09375l0.3125-0.4375 1.0312-1.4844c0.10938-0.1875 0.28125-0.45312 0.53125-0.8125l0.29688-0.046875c0.0625-0.015625 0.09375-0.03125 0.125-0.0625 0-0.03125-0.03125-0.0625-0.10938-0.125l-0.82812-0.54688c-0.046875 0.28125-0.10938 0.5-0.1875 0.67188-0.0625 0.15625-0.1875 0.42188-0.39062 0.82812-0.20312 0.375-0.34375 0.64062-0.42188 0.79688-0.078125 0.14062-0.20312 0.34375-0.375 0.60938-0.15625 0.25-0.29688 0.40625-0.375 0.48438-0.10938 0.0625-0.21875 0.125-0.375 0.15625zm0.09375 4.4844 0.45312 0.78125 0.28125-0.15625c0.21875-0.14062 1.3594-0.54688 3.4062-1.2344v-0.125l-1.9062 0.34375c-1.0938 0.20312-1.6875 0.32812-1.7656 0.32812-0.0625 0.015625-0.23438 0.03125-0.46875 0.0625zm6.3438-5.8594h-1.1875l-1.1875-0.03125 0.40625 0.40625c0.25-0.09375 0.54688-0.125 0.90625-0.125h1.0625v1.9062h-1.2656l-0.95312-0.03125 0.39062 0.39062c0.28125-0.078125 0.60938-0.10938 0.98438-0.10938h3.8125c0.0625 0 0.09375-0.015625 0.10938-0.046875l-0.10938-0.125-0.65625-0.76562-0.5625 0.6875h-1.1094v-1.9062h2.7812c0.078125 0 0.10938-0.015625 0.125-0.046875 0.015625-0.015625-0.03125-0.078125-0.125-0.17188l-0.67188-0.64062-0.57812 0.60938h-1.5312v-1.4688l0.32812-0.21875c0.046875-0.03125 0.078125-0.046875 0.078125-0.078125s-0.03125-0.0625-0.125-0.09375l-0.98438-0.28125 0.0625 1.1094zm-1.8438 6.7188-0.0625 1.0625c0.20312-0.03125 0.42188-0.10938 0.67188-0.26562v-1.0156h2.9844v1.0312c0.32812-0.0625 0.57812-0.17188 0.75-0.32812l-0.046875-0.76562v-2.3125l0.25-0.1875c0.078125-0.0625 0.10938-0.10938 0.10938-0.125 0 0-0.046875-0.0625-0.17188-0.125l-0.6875-0.48438-0.34375 0.51562h-2.6562l-0.85938-0.51562 0.0625 0.95312zm0.59375-0.46875 0.015625-2.2812h2.9844v2.2812z"/></symbol><symbol id="l" overflow="visible"><path d="m2.5469-2.5156h1.6562c-0.17188 0.35938-0.32812 0.625-0.48438 0.8125-0.15625 0.21875-0.375 0.45312-0.65625 0.76562-0.29688 0.28125-0.53125 0.5-0.70312 0.65625-0.1875 0.14062-0.46875 0.35938-0.84375 0.65625-0.40625 0.29688-0.78125 0.5625-1.1406 0.79688l0.078125 0.10938c0.5-0.23438 0.96875-0.5 1.4219-0.78125 0.45312-0.29688 0.84375-0.54688 1.1875-0.79688 0.34375-0.26562 0.64062-0.54688 0.92188-0.85938 0.28125-0.29688 0.54688-0.625 0.79688-0.96875v2.7969l-0.03125 0.95312c0.21875-0.046875 0.375-0.078125 0.45312-0.10938 0.0625-0.046875 0.15625-0.09375 0.21875-0.15625l-0.03125-0.6875v-3.1875h0.10938l0.29688 0.54688c0.03125 0.0625 0.14062 0.25 0.35938 0.51562 0.1875 0.29688 0.34375 0.48438 0.45312 0.60938 0.09375 0.10938 0.29688 0.26562 0.54688 0.48438 0.26562 0.21875 0.48438 0.375 0.64062 0.48438 0.15625 0.09375 0.54688 0.3125 1.1719 0.625 0.20312-0.26562 0.375-0.40625 0.51562-0.45312 0.14062-0.03125 0.29688-0.0625 0.45312-0.0625v-0.10938c-0.42188-0.078125-0.76562-0.14062-1.0312-0.23438-0.28125-0.078125-0.57812-0.20312-0.92188-0.39062-0.34375-0.17188-0.60938-0.34375-0.82812-0.53125-0.21875-0.17188-0.42188-0.34375-0.625-0.54688s-0.34375-0.35938-0.4375-0.48438c-0.09375-0.10938-0.21875-0.26562-0.34375-0.45312h1.9219v0.54688c0.26562-0.0625 0.42188-0.10938 0.46875-0.14062 0.078125-0.03125 0.14062-0.078125 0.23438-0.14062l-0.03125-0.71875v-1.5156l0.20312-0.10938c0.078125-0.046875 0.125-0.078125 0.125-0.10938 0.015625-0.03125-0.03125-0.078125-0.10938-0.14062l-0.70312-0.48438-0.29688 0.48438h-2.1719v-1.3125h4.2344c0.125 0 0.1875-0.015625 0.1875-0.03125 0.015625-0.046875 0-0.09375-0.078125-0.15625l-0.76562-0.70312-0.51562 0.65625h-3.0625v-0.89062l0.26562-0.15625c0.09375-0.0625 0.14062-0.09375 0.125-0.14062 0-0.03125-0.03125-0.0625-0.10938-0.09375l-0.92188-0.375 0.03125 0.95312v0.70312h-3.5156l-0.92188-0.015625 0.42188 0.4375c0.17188-0.0625 0.35938-0.10938 0.57812-0.14062 0.20312-0.03125 0.34375-0.046875 0.40625-0.046875h3.0312v1.3125h-2.0156l-0.85938-0.48438 0.046875 0.85938v1.9062l-0.0625 0.90625c0.29688-0.078125 0.51562-0.1875 0.65625-0.3125zm0-0.23438v-1.8594h2.2344v1.8594zm2.8438 0v-1.8594h2.2812v1.8594z"/></symbol><symbol id="k" overflow="visible"><path d="m0.9375-6.625c0.34375-0.125 0.76562-0.1875 1.25-0.17188h2.75l-0.14062 0.25c-0.0625 0.10938-0.20312 0.32812-0.42188 0.60938-0.23438 0.28125-0.60938 0.70312-1.125 1.2656s-1.2656 1.1094-2.2656 1.6094l-0.51562 0.26562-0.29688 0.15625 0.0625 0.15625 0.20312-0.078125 0.57812-0.23438c0.26562-0.09375 0.59375-0.26562 1.0312-0.48438s0.875-0.51562 1.3125-0.875c0.46875-0.375 0.78125-0.65625 0.98438-0.85938 0.1875-0.20312 0.39062-0.4375 0.60938-0.70312v1.875l-0.078125 1.3906c0.29688-0.03125 0.5625-0.15625 0.8125-0.34375l-0.0625-1v-1.8125l0.1875-0.17188c0.0625-0.0625 0.09375-0.09375 0.09375-0.125 0 0-0.03125-0.03125-0.09375-0.0625l-0.45312-0.20312 0.5-0.625h3.625c0.078125 0 0.125-0.03125 0.14062-0.046875 0.03125-0.046875-0.03125-0.10938-0.14062-0.21875l-0.79688-0.70312-0.5 0.70312h-6.9531l-0.625-0.03125zm1.5156 3.875 0.0625 1.3281v1.8438l-0.0625 1.3594c0.1875-0.03125 0.3125-0.078125 0.40625-0.125 0.078125-0.046875 0.20312-0.10938 0.32812-0.20312v-0.65625h4.25v0.79688c0.32812-0.078125 0.57812-0.23438 0.73438-0.45312l-0.0625-0.98438v-2.0469l0.26562-0.21875 0.125-0.09375c0-0.015625-0.03125-0.046875-0.10938-0.10938l-0.71875-0.5-0.40625 0.53125h-3.9844zm0.73438 3.2969v-2.5781h4.25v2.5781zm2.875-6.0312-0.046875 0.14062c1.4219 0.59375 2.3438 1.1406 2.7188 1.6094 0.40625 0.48438 0.60938 0.73438 0.65625 0.78125 0.03125 0.0625 0.078125 0.078125 0.14062 0.078125 0.125 0 0.20312-0.09375 0.23438-0.29688 0.015625-0.10938 0.015625-0.20312 0.015625-0.32812 0-0.10938-0.03125-0.23438-0.09375-0.35938-0.09375-0.125-0.28125-0.29688-0.57812-0.51562-0.3125-0.21875-1.3125-0.60938-3.0469-1.1094z"/></symbol><symbol id="j" overflow="visible"><path d="m0.5625 1.6562 0.10938 0.10938 0.53125-0.45312c0.125-0.09375 0.34375-0.34375 0.6875-0.73438s0.5625-0.65625 0.67188-0.82812c0.10938-0.15625 0.21875-0.32812 0.34375-0.53125l0.40625 0.5625c0.15625 0.1875 0.35938 0.39062 0.60938 0.57812 0.28125 0.20312 0.57812 0.375 0.95312 0.5 0.35938 0.15625 0.84375 0.25 1.4688 0.34375 0.60938 0.078125 1.5 0.14062 2.6719 0.1875 0.17188-0.25 0.3125-0.42188 0.40625-0.46875 0.10938-0.046875 0.32812-0.14062 0.65625-0.23438l-0.015625-0.17188c-0.89062 0.10938-1.7188 0.15625-2.4531 0.125-0.75-0.03125-1.3906-0.0625-1.9375-0.10938l-0.015625-1.7344h2.9375c0.09375 0 0.15625-0.015625 0.15625-0.0625 0.03125-0.015625 0-0.078125-0.0625-0.15625l-0.70312-0.76562-0.5625 0.70312h-1.75v-1.375h4.2188c0.046875 0 0.078125 0 0.078125-0.03125 0.03125-0.03125 0-0.09375-0.09375-0.1875l-0.70312-0.71875-0.60938 0.6875h-7.1094l-1-0.03125 0.45312 0.46875 0.17188-0.09375c0.015625 0 0.09375-0.015625 0.26562-0.046875s0.26562-0.046875 0.3125-0.046875l3.4062 0.015625v3.2344c-0.14062-0.03125-0.35938-0.125-0.65625-0.26562s-0.53125-0.29688-0.6875-0.46875c-0.17188-0.17188-0.375-0.39062-0.60938-0.67188l0.42188-0.70312 0.26562-0.09375c0.0625-0.03125 0.125-0.046875 0.125-0.0625 0.015625-0.03125-0.03125-0.09375-0.17188-0.1875l-0.75-0.59375-0.0625 0.34375c-0.015625 0.09375-0.078125 0.28125-0.21875 0.59375-0.14062 0.32812-0.25 0.57812-0.35938 0.79688-0.10938 0.20312-0.26562 0.45312-0.46875 0.78125-0.20312 0.3125-0.35938 0.54688-0.46875 0.6875-0.09375 0.125-0.375 0.5-0.85938 1.1094zm7.4688-8.6094 0.23438-0.20312c0.10938-0.09375 0.15625-0.15625 0.15625-0.17188 0-0.046875-0.046875-0.078125-0.125-0.15625l-0.64062-0.5-0.45312 0.53125h-3.7812l-0.82812-0.6875 0.046875 1.0156v2.3125l-0.046875 1.2812c0.28125-0.10938 0.45312-0.17188 0.5-0.21875 0.0625-0.046875 0.10938-0.078125 0.14062-0.125v-0.23438h4.1875v0.375c0.32812-0.09375 0.5625-0.20312 0.67188-0.32812l-0.0625-1.0469zm-4.7969 2.5938v-1.375h4.1875v1.375zm4.1875-1.6094-4.1875-0.015625v-1.2188h4.1875z"/></symbol><symbol id="c" overflow="visible"><path d="m0.92188-0.625c-0.03125 0.15625-0.09375 0.40625-0.09375 0.45312 0 0.1875 0.14062 0.28125 0.3125 0.28125 0.125 0 0.3125-0.078125 0.375-0.28125 0.015625-0.03125 0.14062-0.51562 0.20312-0.78125l0.23438-0.95312c0.0625-0.21875 0.125-0.45312 0.17188-0.70312 0.046875-0.17188 0.125-0.48438 0.14062-0.51562 0.15625-0.32812 0.71875-1.2812 1.7188-1.2812 0.46875 0 0.5625 0.39062 0.5625 0.73438 0 0.64062-0.51562 1.9844-0.6875 2.4375-0.09375 0.25-0.09375 0.375-0.09375 0.48438 0 0.5 0.35938 0.85938 0.85938 0.85938 0.98438 0 1.375-1.5312 1.375-1.6094 0-0.10938-0.09375-0.10938-0.125-0.10938-0.10938 0-0.10938 0.03125-0.15625 0.1875-0.21875 0.71875-0.5625 1.3125-1.0781 1.3125-0.17188 0-0.25-0.10938-0.25-0.35938s0.09375-0.5 0.1875-0.73438c0.20312-0.5625 0.64062-1.7188 0.64062-2.3125 0-0.70312-0.45312-1.125-1.2031-1.125-0.95312 0-1.4688 0.67188-1.6406 0.90625-0.046875-0.57812-0.48438-0.90625-0.96875-0.90625s-0.6875 0.40625-0.78125 0.59375c-0.17188 0.35938-0.32812 0.98438-0.32812 1.0156 0 0.10938 0.10938 0.10938 0.14062 0.10938 0.09375 0 0.10938 0 0.17188-0.23438 0.17188-0.75 0.39062-1.25 0.76562-1.25 0.20312 0 0.32812 0.125 0.32812 0.48438 0 0.21875-0.03125 0.32812-0.17188 0.875z"/></symbol><symbol id="i" overflow="visible"><path d="m1.875-1.2031c-0.42188 0.70312-0.82812 0.84375-1.2812 0.875-0.125 0.015625-0.21875 0.015625-0.21875 0.21875 0 0.0625 0.046875 0.10938 0.125 0.10938 0.28125 0 0.60938-0.03125 0.90625-0.03125 0.34375 0 0.71875 0.03125 1.0469 0.03125 0.0625 0 0.20312 0 0.20312-0.20312 0-0.10938-0.09375-0.125-0.17188-0.125-0.23438-0.015625-0.48438-0.10938-0.48438-0.35938 0-0.125 0.0625-0.25 0.14062-0.39062l0.79688-1.3438h2.6406c0.015625 0.21875 0.17188 1.6406 0.17188 1.75 0 0.3125-0.54688 0.34375-0.76562 0.34375-0.14062 0-0.25 0-0.25 0.21875 0 0.10938 0.125 0.10938 0.14062 0.10938 0.4375 0 0.89062-0.03125 1.3125-0.03125 0.26562 0 0.9375 0.03125 1.1875 0.03125 0.0625 0 0.20312 0 0.20312-0.20312 0-0.125-0.10938-0.125-0.25-0.125-0.65625 0-0.65625-0.078125-0.6875-0.375l-0.64062-6.5625c-0.015625-0.20312-0.015625-0.25-0.1875-0.25s-0.21875 0.078125-0.28125 0.17188zm1.2656-1.5469 2.0625-3.4688 0.34375 3.4688z"/></symbol><symbol id="b" overflow="visible"><path d="m7.2188-3.4375c0.15625 0 0.35938 0 0.35938-0.20312 0-0.21875-0.20312-0.21875-0.35938-0.21875h-6.2812c-0.15625 0-0.34375 0-0.34375 0.21875 0 0.20312 0.1875 0.20312 0.34375 0.20312zm0 2.0469c0.15625 0 0.35938 0 0.35938-0.21875 0-0.20312-0.20312-0.20312-0.35938-0.20312h-6.2812c-0.15625 0-0.34375 0-0.34375 0.20312 0 0.21875 0.1875 0.21875 0.34375 0.21875z"/></symbol><symbol id="h" overflow="visible"><path d="m4.8281-3.3594c0-0.84375-0.046875-1.6875-0.42188-2.4531-0.48438-1.0156-1.3438-1.1875-1.7812-1.1875-0.625 0-1.3906 0.28125-1.8281 1.25-0.32812 0.73438-0.39062 1.5469-0.39062 2.3906 0 0.78125 0.046875 1.7344 0.46875 2.5312 0.45312 0.84375 1.2188 1.0625 1.7344 1.0625 0.57812 0 1.375-0.21875 1.8281-1.2188 0.34375-0.73438 0.39062-1.5469 0.39062-2.375zm-2.2188 3.3594c-0.40625 0-1.0312-0.26562-1.2188-1.2656-0.10938-0.64062-0.10938-1.5938-0.10938-2.2188 0-0.67188 0-1.3594 0.078125-1.9375 0.20312-1.25 1-1.3438 1.25-1.3438 0.35938 0 1.0469 0.1875 1.25 1.2344 0.09375 0.57812 0.09375 1.3906 0.09375 2.0469 0 0.78125 0 1.5-0.10938 2.1719-0.15625 1-0.75 1.3125-1.2344 1.3125z"/></symbol><symbol id="g" overflow="visible"><path d="m3.0469-3.7031c0.85938-0.28125 1.4688-1.0156 1.4688-1.8438 0-0.85938-0.92188-1.4531-1.9375-1.4531-1.0625 0-1.8594 0.64062-1.8594 1.4375 0 0.34375 0.23438 0.54688 0.54688 0.54688s0.53125-0.23438 0.53125-0.53125c0-0.53125-0.5-0.53125-0.65625-0.53125 0.32812-0.51562 1.0156-0.65625 1.4062-0.65625 0.42188 0 1 0.23438 1 1.1875 0 0.125-0.015625 0.73438-0.29688 1.1875-0.3125 0.5-0.67188 0.53125-0.92188 0.54688-0.09375 0.015625-0.34375 0.03125-0.42188 0.03125-0.078125 0.015625-0.15625 0.015625-0.15625 0.125 0 0.125 0.078125 0.125 0.25 0.125h0.46875c0.85938 0 1.25 0.70312 1.25 1.7344 0 1.4219-0.71875 1.7344-1.1875 1.7344-0.45312 0-1.2344-0.17188-1.6094-0.79688 0.375 0.046875 0.6875-0.1875 0.6875-0.57812 0-0.375-0.28125-0.59375-0.57812-0.59375-0.25 0-0.59375 0.15625-0.59375 0.60938 0 0.95312 0.98438 1.6562 2.125 1.6562 1.2812 0 2.2344-0.95312 2.2344-2.0312 0-0.85938-0.65625-1.6719-1.75-1.9062z"/></symbol><symbol id="f" overflow="visible"><path d="m1.3281-0.8125 1.125-1.0781c1.625-1.4531 2.2656-2.0156 2.2656-3.0625 0-1.2031-0.95312-2.0469-2.2344-2.0469-1.1875 0-1.9531 0.96875-1.9531 1.9062 0 0.59375 0.51562 0.59375 0.54688 0.59375 0.1875 0 0.54688-0.125 0.54688-0.5625 0-0.26562-0.1875-0.54688-0.54688-0.54688-0.09375 0-0.10938 0-0.14062 0.015625 0.23438-0.6875 0.8125-1.0781 1.4219-1.0781 0.95312 0 1.4062 0.85938 1.4062 1.7188 0 0.84375-0.53125 1.6719-1.1094 2.3125l-2.0156 2.25c-0.10938 0.125-0.10938 0.14062-0.10938 0.39062h3.8906l0.29688-1.8281h-0.26562c-0.046875 0.3125-0.125 0.78125-0.23438 0.9375-0.078125 0.078125-0.76562 0.078125-1 0.078125z"/></symbol><symbol id="a" overflow="visible"><path d="m0.84375-0.4375c-0.015625 0.09375-0.0625 0.26562-0.0625 0.28125 0 0.15625 0.125 0.21875 0.23438 0.21875 0.125 0 0.23438-0.078125 0.28125-0.14062 0.03125-0.0625 0.078125-0.29688 0.125-0.4375 0.03125-0.125 0.10938-0.45312 0.14062-0.625 0.046875-0.15625 0.09375-0.3125 0.125-0.46875 0.078125-0.28125 0.09375-0.34375 0.29688-0.625 0.1875-0.28125 0.51562-0.64062 1.0469-0.64062 0.39062 0 0.40625 0.35938 0.40625 0.48438 0 0.42188-0.29688 1.1875-0.40625 1.4844-0.078125 0.20312-0.10938 0.26562-0.10938 0.375 0 0.375 0.29688 0.59375 0.65625 0.59375 0.70312 0 1-0.95312 1-1.0625 0-0.09375-0.078125-0.09375-0.10938-0.09375-0.09375 0-0.09375 0.046875-0.125 0.125-0.15625 0.5625-0.46875 0.84375-0.73438 0.84375-0.15625 0-0.1875-0.09375-0.1875-0.25s0.046875-0.25 0.17188-0.5625c0.078125-0.21875 0.35938-0.95312 0.35938-1.3438 0-0.67188-0.53125-0.79688-0.90625-0.79688-0.57812 0-0.96875 0.35938-1.1719 0.64062-0.046875-0.48438-0.45312-0.64062-0.75-0.64062s-0.45312 0.21875-0.54688 0.375c-0.15625 0.26562-0.25 0.65625-0.25 0.70312 0 0.078125 0.09375 0.078125 0.125 0.078125 0.09375 0 0.09375-0.015625 0.14062-0.20312 0.10938-0.40625 0.25-0.75 0.51562-0.75 0.1875 0 0.23438 0.15625 0.23438 0.34375 0 0.125-0.0625 0.39062-0.125 0.57812-0.046875 0.1875-0.10938 0.46875-0.14062 0.625z"/></symbol><symbol id="e" overflow="visible"><path d="m6.9219-2.4219c0.17188 0 0.35938 0 0.35938-0.20312s-0.1875-0.20312-0.35938-0.20312h-5.6875c-0.17188 0-0.35938 0-0.35938 0.20312s0.1875 0.20312 0.35938 0.20312z"/></symbol><clipPath id="t"><path d="m33 24h69.859v28h-69.859z"/></clipPath><clipPath id="s"><path d="m36 79h66.859v31h-66.859z"/></clipPath><clipPath id="r"><path d="m48 140h44v23.672h-44z"/></clipPath></defs><path transform="matrix(1,0,0,-1,69.808,9.548)" d="m8.7232 6.4621h-17.445c-3.3008 0-5.9766-2.6758-5.9766-5.9805v-0.96484c0-3.3008 2.6758-5.9766 5.9766-5.9766h17.445c3.3008 0 5.9766 2.6758 5.9766 5.9766v0.96484c0 3.3047-2.6758 5.9805-5.9766 5.9805z" fill="none" stroke="#000" stroke-miterlimit="10" stroke-width=".49814"/><g><use x="59.308" y="12.74" xlink:href="#q"/><use x="69.808" y="12.74" xlink:href="#p"/></g><path d="m40.762 44.246 3.4023-12.703h54.691l-3.4023 12.703z" fill="#fff"/><g clip-path="url(#t)"><path transform="matrix(1,0,0,-1,69.808,9.548)" d="m-29.046-34.698 3.4023 12.703h54.691l-3.4023-12.703z" fill="none" stroke="#000" stroke-miterlimit="10" stroke-width=".49814"/></g><g><use x="45.658" y="40.977" xlink:href="#d"/><use x="56.158" y="40.977" xlink:href="#o"/><use x="68.404" y="40.977" xlink:href="#c"/><use x="77.623" y="40.977" xlink:href="#b"/><use x="88.69" y="40.977" xlink:href="#h"/></g><path transform="matrix(1,0,0,-1,69.808,9.548)" d="m-30.019-62.792h60.039v12.199h-60.039z" fill="none" stroke="#000" stroke-miterlimit="10" stroke-width=".3985"/><g><use x="41.781" y="69.473" xlink:href="#i"/><use x="52.572" y="69.473" xlink:href="#b"/><use x="63.639" y="69.473" xlink:href="#g"/><use x="68.905" y="65.137" xlink:href="#a"/><use x="76.662" y="69.473" xlink:href="#e"/><use x="87.162" y="69.473" xlink:href="#f"/><use x="92.412" y="65.137" xlink:href="#a"/></g><g clip-path="url(#s)"><path transform="matrix(1,0,0,-1,69.808,9.548)" d="m26.149-85.042-26.148 7.7734-26.148-7.7734 26.148-7.7695z" fill="none" stroke="#000" stroke-miterlimit="10" stroke-width=".49814"/></g><path transform="matrix(1,0,0,-1,69.808,9.548)" d="m-66.773-64.514h31.5v9.9727h-31.5z" fill="none" stroke="#000" stroke-miterlimit="10" stroke-width=".3985"/><path transform="matrix(1,0,0,-1,69.808,9.548)" d="m-19.429-122.59 3.4102 12.734h35.449l-3.4102-12.734z" fill="#fff" stroke="#000" stroke-miterlimit="10" stroke-width=".49814"/><g><use x="55.283" y="128.868" xlink:href="#d"/><use x="65.783" y="128.868" xlink:href="#n"/><use x="78.029" y="128.868" xlink:href="#c"/></g><g clip-path="url(#r)"><path transform="matrix(1,0,0,-1,69.808,9.548)" d="m8.7232-138.1h-17.445c-3.3008 0-5.9766-2.6758-5.9766-5.9805v-0.98438c0-3.3047 2.6758-5.9805 5.9766-5.9805h17.445c3.3008 0 5.9766 2.6758 5.9766 5.9805v0.98438c0 3.3047-2.6758 5.9805-5.9766 5.9805z" fill="none" stroke="#000" stroke-miterlimit="10" stroke-width=".49814"/></g><g><use x="59.308" y="157.256" xlink:href="#m"/><use x="69.808" y="157.256" xlink:href="#l"/></g><path transform="matrix(1,0,0,-1,69.808,9.548)" d="m5.9375e-4 -6.7098 0.0039062-12.617" fill="none" stroke="#000" stroke-miterlimit="10" stroke-width=".3985"/><path transform="matrix(.00014 .99998 .99998 -.00014 69.811 27.468)" d="m3.259 0.0011438-2.6171 0.98476 0.86316-0.98452-0.86344-0.98818z" stroke="#000" stroke-miterlimit="10" stroke-width=".3985"/><path transform="matrix(1,0,0,-1,69.808,9.548)" d="m0.0045-34.948-0.0039062-13.027" fill="none" stroke="#000" stroke-miterlimit="10" stroke-width=".3985"/><path transform="matrix(-2e-4 .99998 .99998 2e-4 69.809 56.118)" d="m3.2574 5.1524e-4 -2.6135 0.98778 0.8635-0.98813-0.8631-0.98847z" stroke="#000" stroke-miterlimit="10" stroke-width=".3985"/><path transform="matrix(1,0,0,-1,69.808,9.548)" d="m5.9375e-4 -62.991v-11.508" fill="none" stroke="#000" stroke-miterlimit="10" stroke-width=".3985"/><path transform="matrix(0 1 1 0 69.808 82.639)" d="m3.2598 5.9375e-4 -2.6172 0.98828 0.86328-0.98828-0.86328-0.98828z" stroke="#000" stroke-miterlimit="10" stroke-width=".3985"/><path transform="matrix(1,0,0,-1,69.808,9.548)" d="m5.9375e-4 -93.163v-14.023" fill="none" stroke="#000" stroke-miterlimit="10" stroke-width=".3985"/><path transform="matrix(8e-5 .99998 .99998 -8e-5 69.81 115.33)" d="m3.2589-0.001587-2.6172 0.98851 0.86713-0.98837-0.86728-0.98433z" stroke="#000" stroke-miterlimit="10" stroke-width=".3985"/><g><use x="58.445" y="113.098" xlink:href="#k"/></g><path transform="matrix(1,0,0,-1,69.808,9.548)" d="m-26.499-85.042h-24.523v17.91" fill="none" stroke="#000" stroke-miterlimit="10" stroke-width=".3985"/><path transform="matrix(0 -1 -1 0 18.784 78.089)" d="m3.2567-0.0014962-2.6133 0.98828 0.86328-0.98828-0.86328-0.98437z" stroke="#000" stroke-miterlimit="10" stroke-width=".3985"/><g><use x="28.234" y="106.124" xlink:href="#j"/></g><path transform="matrix(1,0,0,-1,69.808,9.548)" d="m-51.023-54.343v11.672h48.605" fill="none" stroke="#000" stroke-miterlimit="10" stroke-width=".3985"/><path transform="matrix(1 0 0 -1 65.984 52.219)" d="m3.2583 5e-4 -2.6133 0.98828 0.86328-0.98828-0.86328-0.98828z" stroke="#000" stroke-miterlimit="10" stroke-width=".3985"/><path transform="matrix(1,0,0,-1,69.808,9.548)" d="m0.0045-122.84-0.0039062-12.59" fill="none" stroke="#000" stroke-miterlimit="10" stroke-width=".3985"/><path transform="matrix(-.00017 .99998 .99998 .00017 69.809 143.57)" d="m3.2574 5.1752e-4 -2.6135 0.98786 0.86347-0.98815-0.86313-0.98845z" stroke="#000" stroke-miterlimit="10" stroke-width=".3985"/></svg>
